<svg width="4747" height="2711" viewBox="0 0 4747 2711" fill="none" xmlns="http://www.w3.org/2000/svg">
<rect x="3778.14" y="534.113" width="4.43438" height="53.39" transform="rotate(-45 3778.14 534.113)" fill="black" stroke="black" stroke-width="4.43438"/>
<rect x="3813.51" y="321.25" width="4.5" height="240.5" fill="black" stroke="black" stroke-width="4.5"/>
<rect x="3850.5" y="530.975" width="4.43438" height="53.39" transform="rotate(45 3850.5 530.975)" fill="black" stroke="black" stroke-width="4.43438"/>
<rect x="3537" y="5" width="570" height="186" rx="15" fill="white" stroke="#3498DB" stroke-width="10"/>
<path d="M3614.32 142V78.512H3628.78L3630.19 87.088C3632.24 84.016 3634.93 81.584 3638.26 79.792C3641.67 77.9147 3645.59 76.976 3650.03 76.976C3659.85 76.976 3666.8 80.7733 3670.9 88.368C3673.2 84.8693 3676.27 82.096 3680.11 80.048C3684.04 78 3688.3 76.976 3692.91 76.976C3701.19 76.976 3707.55 79.4507 3711.98 84.4C3716.42 89.3493 3718.64 96.6027 3718.64 106.16V142H3702.26V107.696C3702.26 102.235 3701.19 98.0533 3699.06 95.152C3697.01 92.2507 3693.81 90.8 3689.46 90.8C3685.02 90.8 3681.43 92.4213 3678.7 95.664C3676.06 98.9067 3674.74 103.429 3674.74 109.232V142H3658.35V107.696C3658.35 102.235 3657.29 98.0533 3655.15 95.152C3653.02 92.2507 3649.73 90.8 3645.3 90.8C3640.94 90.8 3637.4 92.4213 3634.67 95.664C3632.03 98.9067 3630.7 103.429 3630.7 109.232V142H3614.32ZM3756.08 143.536C3750.62 143.536 3746.14 142.683 3742.64 140.976C3739.14 139.184 3736.54 136.837 3734.84 133.936C3733.13 131.035 3732.28 127.835 3732.28 124.336C3732.28 118.448 3734.58 113.669 3739.19 110C3743.8 106.331 3750.71 104.496 3759.92 104.496H3776.05V102.96C3776.05 98.608 3774.81 95.408 3772.34 93.36C3769.86 91.312 3766.79 90.288 3763.12 90.288C3759.8 90.288 3756.89 91.0987 3754.42 92.72C3751.94 94.256 3750.41 96.56 3749.81 99.632H3733.81C3734.24 95.024 3735.77 91.0133 3738.42 87.6C3741.15 84.1867 3744.65 81.584 3748.92 79.792C3753.18 77.9147 3757.96 76.976 3763.25 76.976C3772.3 76.976 3779.42 79.2373 3784.63 83.76C3789.83 88.2827 3792.44 94.6827 3792.44 102.96V142H3778.48L3776.95 131.76C3775.07 135.173 3772.42 137.989 3769.01 140.208C3765.68 142.427 3761.37 143.536 3756.08 143.536ZM3759.8 130.736C3764.49 130.736 3768.12 129.2 3770.68 126.128C3773.32 123.056 3774.98 119.259 3775.67 114.736H3761.72C3757.36 114.736 3754.25 115.547 3752.37 117.168C3750.49 118.704 3749.56 120.624 3749.56 122.928C3749.56 125.403 3750.49 127.323 3752.37 128.688C3754.25 130.053 3756.72 130.736 3759.8 130.736ZM3834.31 143.536C3828.68 143.536 3823.73 142.64 3819.46 140.848C3815.2 138.971 3811.78 136.411 3809.22 133.168C3806.66 129.925 3805.13 126.171 3804.61 121.904H3821.13C3821.64 124.379 3823 126.512 3825.22 128.304C3827.53 130.011 3830.47 130.864 3834.05 130.864C3837.64 130.864 3840.24 130.139 3841.86 128.688C3843.57 127.237 3844.42 125.573 3844.42 123.696C3844.42 120.965 3843.23 119.131 3840.84 118.192C3838.45 117.168 3835.12 116.187 3830.85 115.248C3828.12 114.651 3825.35 113.925 3822.53 113.072C3819.72 112.219 3817.12 111.152 3814.73 109.872C3812.42 108.507 3810.54 106.8 3809.09 104.752C3807.64 102.619 3806.92 100.016 3806.92 96.944C3806.92 91.312 3809.14 86.576 3813.57 82.736C3818.1 78.896 3824.41 76.976 3832.52 76.976C3840.03 76.976 3846 78.7253 3850.44 82.224C3854.96 85.7227 3857.65 90.544 3858.5 96.688H3843.01C3842.08 91.9947 3838.53 89.648 3832.39 89.648C3829.32 89.648 3826.93 90.2453 3825.22 91.44C3823.6 92.6347 3822.79 94.128 3822.79 95.92C3822.79 97.7973 3824.03 99.2907 3826.5 100.4C3828.98 101.509 3832.26 102.533 3836.36 103.472C3840.8 104.496 3844.85 105.648 3848.52 106.928C3852.27 108.123 3855.26 109.957 3857.48 112.432C3859.7 114.821 3860.81 118.277 3860.81 122.8C3860.89 126.725 3859.87 130.267 3857.73 133.424C3855.6 136.581 3852.53 139.056 3848.52 140.848C3844.51 142.64 3839.77 143.536 3834.31 143.536ZM3901.61 142C3894.95 142 3889.62 140.379 3885.61 137.136C3881.6 133.893 3879.59 128.133 3879.59 119.856V92.208H3868.71V78.512H3879.59L3881.51 61.488H3895.98V78.512H3913.13V92.208H3895.98V119.984C3895.98 123.056 3896.62 125.189 3897.9 126.384C3899.26 127.493 3901.57 128.048 3904.81 128.048H3912.74V142H3901.61ZM3956.42 143.536C3950.02 143.536 3944.34 142.171 3939.39 139.44C3934.44 136.709 3930.56 132.869 3927.75 127.92C3924.93 122.971 3923.52 117.253 3923.52 110.768C3923.52 104.197 3924.89 98.352 3927.62 93.232C3930.43 88.112 3934.27 84.144 3939.14 81.328C3944.09 78.4267 3949.89 76.976 3956.55 76.976C3962.78 76.976 3968.28 78.3413 3973.06 81.072C3977.84 83.8027 3981.55 87.5573 3984.19 92.336C3986.92 97.0293 3988.29 102.277 3988.29 108.08C3988.29 109.019 3988.25 110 3988.16 111.024C3988.16 112.048 3988.12 113.115 3988.03 114.224H3939.78C3940.12 119.173 3941.83 123.056 3944.9 125.872C3948.06 128.688 3951.85 130.096 3956.29 130.096C3959.62 130.096 3962.39 129.371 3964.61 127.92C3966.91 126.384 3968.62 124.421 3969.73 122.032H3986.37C3985.18 126.043 3983.17 129.712 3980.35 133.04C3977.62 136.283 3974.21 138.843 3970.11 140.72C3966.1 142.597 3961.54 143.536 3956.42 143.536ZM3956.55 90.288C3952.54 90.288 3948.99 91.44 3945.92 93.744C3942.85 95.9627 3940.89 99.376 3940.03 103.984H3971.65C3971.39 99.8027 3969.86 96.4747 3967.04 94C3964.23 91.5253 3960.73 90.288 3956.55 90.288ZM4002.07 142V78.512H4016.66L4018.2 90.416C4020.5 86.32 4023.62 83.0773 4027.54 80.688C4031.55 78.2133 4036.25 76.976 4041.62 76.976V94.256H4037.01C4033.43 94.256 4030.23 94.8107 4027.41 95.92C4024.6 97.0293 4022.38 98.9493 4020.76 101.68C4019.22 104.411 4018.45 108.208 4018.45 113.072V142H4002.07Z" fill="#3498DB"/>
<rect x="4471.64" y="2145.89" width="4.43438" height="53.39" transform="rotate(135 4471.64 2145.89)" fill="black" stroke="black" stroke-width="4.43438"/>
<rect x="4436.27" y="2358.75" width="4.5" height="240.5" transform="rotate(-180 4436.27 2358.75)" fill="black" stroke="black" stroke-width="4.5"/>
<rect x="4399.27" y="2149.02" width="4.43438" height="53.39" transform="rotate(-135 4399.27 2149.02)" fill="black" stroke="black" stroke-width="4.43438"/>
<rect x="4742" y="2706" width="605" height="217" rx="15" transform="rotate(-180 4742 2706)" fill="white" stroke="#3498DB" stroke-width="10"/>
<path d="M4222.32 2641V2577.51H4236.78L4238.06 2588.26C4240.03 2584.51 4242.84 2581.52 4246.51 2579.3C4250.27 2577.09 4254.66 2575.98 4259.7 2575.98C4267.55 2575.98 4273.65 2578.45 4278 2583.4C4282.35 2588.35 4284.53 2595.6 4284.53 2605.16V2641H4268.14V2606.7C4268.14 2601.23 4267.03 2597.05 4264.82 2594.15C4262.6 2591.25 4259.14 2589.8 4254.45 2589.8C4249.84 2589.8 4246.04 2591.42 4243.06 2594.66C4240.15 2597.91 4238.7 2602.43 4238.7 2608.23V2641H4222.32ZM4331.04 2642.54C4324.64 2642.54 4318.97 2641.17 4314.02 2638.44C4309.07 2635.71 4305.19 2631.87 4302.37 2626.92C4299.56 2621.97 4298.15 2616.25 4298.15 2609.77C4298.15 2603.2 4299.51 2597.35 4302.24 2592.23C4305.06 2587.11 4308.9 2583.14 4313.76 2580.33C4318.71 2577.43 4324.52 2575.98 4331.17 2575.98C4337.4 2575.98 4342.9 2577.34 4347.68 2580.07C4352.46 2582.8 4356.17 2586.56 4358.82 2591.34C4361.55 2596.03 4362.92 2601.28 4362.92 2607.08C4362.92 2608.02 4362.87 2609 4362.79 2610.02C4362.79 2611.05 4362.74 2612.11 4362.66 2613.22H4314.4C4314.74 2618.17 4316.45 2622.06 4319.52 2624.87C4322.68 2627.69 4326.48 2629.1 4330.92 2629.1C4334.24 2629.1 4337.02 2628.37 4339.24 2626.92C4341.54 2625.38 4343.25 2623.42 4344.36 2621.03H4361C4359.8 2625.04 4357.8 2628.71 4354.98 2632.04C4352.25 2635.28 4348.84 2637.84 4344.74 2639.72C4340.73 2641.6 4336.16 2642.54 4331.04 2642.54ZM4331.17 2589.29C4327.16 2589.29 4323.62 2590.44 4320.55 2592.74C4317.48 2594.96 4315.51 2598.38 4314.66 2602.98H4346.28C4346.02 2598.8 4344.48 2595.47 4341.67 2593C4338.85 2590.53 4335.35 2589.29 4331.17 2589.29ZM4386.61 2641L4368.05 2577.51H4384.31L4395.32 2623.21L4408.12 2577.51H4426.29L4439.09 2623.21L4450.23 2577.51H4466.48L4447.8 2641H4430.77L4417.2 2593.51L4403.64 2641H4386.61ZM4475.41 2661.48V2645.86H4548.76V2661.48H4475.41ZM4587.75 2642.54C4579.82 2642.54 4573.67 2640.06 4569.32 2635.11C4565.05 2630.16 4562.92 2622.91 4562.92 2613.35V2577.51H4579.18V2611.82C4579.18 2617.28 4580.29 2621.46 4582.51 2624.36C4584.72 2627.26 4588.22 2628.71 4593 2628.71C4597.52 2628.71 4601.24 2627.09 4604.14 2623.85C4607.12 2620.61 4608.62 2616.08 4608.62 2610.28V2577.51H4625V2641H4610.54L4609.26 2630.25C4607.29 2634 4604.44 2636.99 4600.68 2639.21C4597.01 2641.43 4592.7 2642.54 4587.75 2642.54ZM4650.65 2567.66C4647.67 2567.66 4645.19 2566.76 4643.23 2564.97C4641.35 2563.18 4640.41 2560.91 4640.41 2558.18C4640.41 2555.45 4641.35 2553.23 4643.23 2551.53C4645.19 2549.74 4647.67 2548.84 4650.65 2548.84C4653.64 2548.84 4656.07 2549.74 4657.95 2551.53C4659.91 2553.23 4660.89 2555.45 4660.89 2558.18C4660.89 2560.91 4659.91 2563.18 4657.95 2564.97C4656.07 2566.76 4653.64 2567.66 4650.65 2567.66ZM4642.46 2641V2577.51H4658.84V2641H4642.46Z" fill="#3498DB"/>
<rect x="1228" y="712" width="400" height="400" rx="200" fill="#3498DB"/>
<rect x="1628" y="902" width="828" height="21" fill="#545454"/>
<rect x="2628.84" y="629" width="400" height="400" rx="200" transform="rotate(45 2628.84 629)" fill="#3498DB"/>
<rect x="2821" y="902" width="828" height="21" fill="#545454"/>
<rect x="3821.84" y="629" width="400" height="400" rx="200" transform="rotate(45 3821.84 629)" fill="#3498DB"/>
<rect y="702" width="400" height="400" rx="200" fill="#3498DB"/>
<rect x="400" y="892" width="828" height="21" fill="#545454"/>
<rect x="1628" y="902" width="828" height="21" fill="#545454"/>
<rect x="2628.84" y="629" width="400" height="400" rx="200" transform="rotate(45 2628.84 629)" fill="#6F00FC"/>
<rect x="2821" y="902" width="828" height="21" fill="#545454"/>
<rect x="3821.84" y="629" width="400" height="400" rx="200" transform="rotate(45 3821.84 629)" fill="#6F00FC"/>
<rect y="702" width="400" height="400" rx="200" fill="#6F00FC"/>
<rect x="400" y="892" width="828" height="21" fill="#545454"/>
<rect x="2243" y="1761" width="828" height="21" fill="#545454"/>
<rect x="3243.84" y="1488" width="400" height="400" rx="200" transform="rotate(45 3243.84 1488)" fill="#3498DB"/>
<rect x="3436" y="1761" width="828" height="21" fill="#545454"/>
<rect x="4436.84" y="1488" width="400" height="400" rx="200" transform="rotate(45 4436.84 1488)" fill="#3498DB"/>
<rect x="1504.15" y="1073" width="828" height="21" transform="rotate(54.7396 1504.15 1073)" fill="#545454"/>
<rect x="1228" y="712" width="400" height="400" rx="200" fill="#6F00FC"/>
<rect x="1843" y="1571" width="400" height="400" rx="200" fill="#3498DB"/>
</svg>
