<svg width="6999" height="2547" viewBox="0 0 6999 2547" fill="none" xmlns="http://www.w3.org/2000/svg">
<rect y="996" width="400" height="400" rx="200" fill="#3498DB"/>
<rect x="1228" y="996" width="400" height="400" rx="200" fill="#3498DB"/>
<rect x="400" y="1186" width="828" height="21" fill="#545454"/>
<rect x="3912" y="986" width="400" height="400" rx="200" fill="#3498DB"/>
<rect x="2812" y="1176" width="1100" height="21" fill="#545454"/>
<rect x="5371" y="986" width="400" height="400" rx="200" fill="#3498DB"/>
<rect x="4312" y="1175" width="1059" height="21" fill="#545454"/>
<rect x="4526" y="1857" width="400" height="400" rx="200" fill="#2ECC71"/>
<rect x="3698" y="2047" width="828" height="21" fill="#545454"/>
<rect x="1628" y="1186" width="828" height="21" fill="#545454"/>
<rect x="6999" y="1386" width="400" height="400" rx="200" transform="rotate(-180 6999 1386)" fill="#3498DB"/>
<rect x="6599" y="1196" width="828" height="21" transform="rotate(-180 6599 1196)" fill="#545454"/>
<rect x="2628.84" y="913" width="400" height="400" rx="200" transform="rotate(45 2628.84 913)" fill="#3498DB"/>
<rect x="3504.24" y="1774.26" width="400" height="400" rx="200" transform="rotate(45 3504.24 1774.26)" fill="#2ECC71"/>
<rect x="2777.33" y="1330.19" width="828" height="21" transform="rotate(45 2777.33 1330.19)" fill="#545454"/>
<rect width="827" height="21" transform="matrix(-0.707107 0.707107 0.707107 0.707107 5452.78 1331)" fill="#545454"/>
<rect x="2063.06" y="449.843" width="400" height="400" rx="200" transform="rotate(-45 2063.06 449.843)" fill="#FF3939"/>
<rect x="1619" y="1176.75" width="828" height="21" transform="rotate(-45 1619 1176.75)" fill="#545454"/>
<path d="M2071.7 127V37.4H2129.56V50.584H2088.09V75.672H2121.62V88.6H2088.09V127H2071.7ZM2150.65 53.656C2147.67 53.656 2145.19 52.76 2143.23 50.968C2141.35 49.176 2140.41 46.9147 2140.41 44.184C2140.41 41.4533 2141.35 39.2347 2143.23 37.528C2145.19 35.736 2147.67 34.84 2150.65 34.84C2153.64 34.84 2156.07 35.736 2157.95 37.528C2159.91 39.2347 2160.89 41.4533 2160.89 44.184C2160.89 46.9147 2159.91 49.176 2157.95 50.968C2156.07 52.76 2153.64 53.656 2150.65 53.656ZM2142.46 127V63.512H2158.84V127H2142.46ZM2169.93 127L2192.97 95.256L2169.93 63.512H2187.47L2203.59 86.04L2219.59 63.512H2237.26L2214.09 95.256L2237.26 127H2219.59L2203.59 104.472L2187.47 127H2169.93ZM2256.53 53.656C2253.54 53.656 2251.07 52.76 2249.1 50.968C2247.23 49.176 2246.29 46.9147 2246.29 44.184C2246.29 41.4533 2247.23 39.2347 2249.1 37.528C2251.07 35.736 2253.54 34.84 2256.53 34.84C2259.51 34.84 2261.95 35.736 2263.82 37.528C2265.79 39.2347 2266.77 41.4533 2266.77 44.184C2266.77 46.9147 2265.79 49.176 2263.82 50.968C2261.95 52.76 2259.51 53.656 2256.53 53.656ZM2248.34 127V63.512H2264.72V127H2248.34ZM2281.82 127V63.512H2296.28L2297.56 74.264C2299.53 70.5093 2302.34 67.5227 2306.01 65.304C2309.77 63.0853 2314.16 61.976 2319.2 61.976C2327.05 61.976 2333.15 64.4507 2337.5 69.4C2341.85 74.3493 2344.03 81.6027 2344.03 91.16V127H2327.64V92.696C2327.64 87.2347 2326.53 83.0533 2324.32 80.152C2322.1 77.2507 2318.64 75.8 2313.95 75.8C2309.34 75.8 2305.54 77.4213 2302.56 80.664C2299.65 83.9067 2298.2 88.4293 2298.2 94.232V127H2281.82ZM2386.58 108.056C2383.5 108.056 2380.64 107.715 2378 107.032L2373.26 111.768C2374.71 112.536 2376.68 113.176 2379.15 113.688C2381.63 114.2 2385.64 114.712 2391.18 115.224C2399.63 115.992 2405.78 117.997 2409.62 121.24C2413.46 124.483 2415.38 128.963 2415.38 134.68C2415.38 138.435 2414.35 141.976 2412.3 145.304C2410.26 148.717 2407.1 151.448 2402.83 153.496C2398.56 155.629 2393.1 156.696 2386.45 156.696C2377.4 156.696 2370.11 154.989 2364.56 151.576C2359.01 148.248 2356.24 143.213 2356.24 136.472C2356.24 130.755 2359.01 125.805 2364.56 121.624C2362.85 120.856 2361.36 120.045 2360.08 119.192C2358.88 118.339 2357.82 117.443 2356.88 116.504V113.56L2368.02 101.784C2363.07 97.432 2360.59 91.8427 2360.59 85.016C2360.59 80.7493 2361.62 76.8667 2363.66 73.368C2365.8 69.8693 2368.78 67.096 2372.62 65.048C2376.46 63 2381.11 61.976 2386.58 61.976C2390.16 61.976 2393.49 62.488 2396.56 63.512H2420.62V73.496L2409.74 74.264C2411.45 77.5067 2412.3 81.0907 2412.3 85.016C2412.3 89.2827 2411.28 93.1653 2409.23 96.664C2407.18 100.163 2404.2 102.936 2400.27 104.984C2396.43 107.032 2391.87 108.056 2386.58 108.056ZM2386.58 95.512C2389.9 95.512 2392.63 94.616 2394.77 92.824C2396.99 91.032 2398.1 88.472 2398.1 85.144C2398.1 81.816 2396.99 79.256 2394.77 77.464C2392.63 75.672 2389.9 74.776 2386.58 74.776C2383.08 74.776 2380.26 75.672 2378.13 77.464C2375.99 79.256 2374.93 81.816 2374.93 85.144C2374.93 88.472 2375.99 91.032 2378.13 92.824C2380.26 94.616 2383.08 95.512 2386.58 95.512ZM2371.22 134.808C2371.22 137.965 2372.67 140.312 2375.57 141.848C2378.55 143.469 2382.18 144.28 2386.45 144.28C2390.54 144.28 2393.87 143.427 2396.43 141.72C2398.99 140.099 2400.27 137.88 2400.27 135.064C2400.27 132.76 2399.42 130.84 2397.71 129.304C2396.09 127.768 2392.8 126.829 2387.86 126.488C2384.36 126.232 2381.11 125.848 2378.13 125.336C2375.65 126.701 2373.86 128.195 2372.75 129.816C2371.73 131.437 2371.22 133.101 2371.22 134.808ZM2463.45 127V37.4H2499.42C2508.72 37.4 2515.81 39.576 2520.67 43.928C2525.62 48.1947 2528.09 53.6987 2528.09 60.44C2528.09 66.072 2526.56 70.5947 2523.49 74.008C2520.5 77.336 2516.83 79.5973 2512.48 80.792C2517.6 81.816 2521.82 84.376 2525.15 88.472C2528.48 92.4827 2530.14 97.176 2530.14 102.552C2530.14 109.635 2527.58 115.48 2522.46 120.088C2517.34 124.696 2510.09 127 2500.7 127H2463.45ZM2479.84 75.032H2496.99C2501.6 75.032 2505.14 73.9653 2507.61 71.832C2510.09 69.6987 2511.33 66.6693 2511.33 62.744C2511.33 58.9893 2510.09 56.0453 2507.61 53.912C2505.22 51.6933 2501.6 50.584 2496.73 50.584H2479.84V75.032ZM2479.84 113.688H2498.14C2503.01 113.688 2506.76 112.579 2509.41 110.36C2512.14 108.056 2513.5 104.856 2513.5 100.76C2513.5 96.5787 2512.09 93.2933 2509.28 90.904C2506.46 88.5147 2502.66 87.32 2497.89 87.32H2479.84V113.688ZM2567.63 128.536C2559.69 128.536 2553.55 126.061 2549.2 121.112C2544.93 116.163 2542.8 108.909 2542.8 99.352V63.512H2559.05V97.816C2559.05 103.277 2560.16 107.459 2562.38 110.36C2564.6 113.261 2568.1 114.712 2572.88 114.712C2577.4 114.712 2581.11 113.091 2584.01 109.848C2587 106.605 2588.49 102.083 2588.49 96.28V63.512H2604.88V127H2590.41L2589.13 116.248C2587.17 120.003 2584.31 122.989 2580.56 125.208C2576.89 127.427 2572.58 128.536 2567.63 128.536ZM2648.58 108.056C2645.5 108.056 2642.64 107.715 2640 107.032L2635.26 111.768C2636.71 112.536 2638.68 113.176 2641.15 113.688C2643.63 114.2 2647.64 114.712 2653.18 115.224C2661.63 115.992 2667.78 117.997 2671.62 121.24C2675.46 124.483 2677.38 128.963 2677.38 134.68C2677.38 138.435 2676.35 141.976 2674.3 145.304C2672.26 148.717 2669.1 151.448 2664.83 153.496C2660.56 155.629 2655.1 156.696 2648.45 156.696C2639.4 156.696 2632.11 154.989 2626.56 151.576C2621.01 148.248 2618.24 143.213 2618.24 136.472C2618.24 130.755 2621.01 125.805 2626.56 121.624C2624.85 120.856 2623.36 120.045 2622.08 119.192C2620.88 118.339 2619.82 117.443 2618.88 116.504V113.56L2630.02 101.784C2625.07 97.432 2622.59 91.8427 2622.59 85.016C2622.59 80.7493 2623.62 76.8667 2625.66 73.368C2627.8 69.8693 2630.78 67.096 2634.62 65.048C2638.46 63 2643.11 61.976 2648.58 61.976C2652.16 61.976 2655.49 62.488 2658.56 63.512H2682.62V73.496L2671.74 74.264C2673.45 77.5067 2674.3 81.0907 2674.3 85.016C2674.3 89.2827 2673.28 93.1653 2671.23 96.664C2669.18 100.163 2666.2 102.936 2662.27 104.984C2658.43 107.032 2653.87 108.056 2648.58 108.056ZM2648.58 95.512C2651.9 95.512 2654.63 94.616 2656.77 92.824C2658.99 91.032 2660.1 88.472 2660.1 85.144C2660.1 81.816 2658.99 79.256 2656.77 77.464C2654.63 75.672 2651.9 74.776 2648.58 74.776C2645.08 74.776 2642.26 75.672 2640.13 77.464C2637.99 79.256 2636.93 81.816 2636.93 85.144C2636.93 88.472 2637.99 91.032 2640.13 92.824C2642.26 94.616 2645.08 95.512 2648.58 95.512ZM2633.22 134.808C2633.22 137.965 2634.67 140.312 2637.57 141.848C2640.55 143.469 2644.18 144.28 2648.45 144.28C2652.54 144.28 2655.87 143.427 2658.43 141.72C2660.99 140.099 2662.27 137.88 2662.27 135.064C2662.27 132.76 2661.42 130.84 2659.71 129.304C2658.09 127.768 2654.8 126.829 2649.86 126.488C2646.36 126.232 2643.11 125.848 2640.13 125.336C2637.65 126.701 2635.86 128.195 2634.75 129.816C2633.73 131.437 2633.22 133.101 2633.22 134.808Z" fill="black"/>
<path d="M5330.7 811V721.4H5350.16L5378.7 778.232L5406.86 721.4H5426.32V811H5409.94V749.176L5384.98 798.2H5372.05L5347.09 749.176V811H5330.7ZM5474.17 812.536C5467.77 812.536 5462.09 811.171 5457.14 808.44C5452.19 805.709 5448.31 801.869 5445.5 796.92C5442.68 791.971 5441.27 786.253 5441.27 779.768C5441.27 773.197 5442.64 767.352 5445.37 762.232C5448.18 757.112 5452.02 753.144 5456.89 750.328C5461.84 747.427 5467.64 745.976 5474.3 745.976C5480.53 745.976 5486.03 747.341 5490.81 750.072C5495.59 752.803 5499.3 756.557 5501.94 761.336C5504.67 766.029 5506.04 771.277 5506.04 777.08C5506.04 778.019 5506 779 5505.91 780.024C5505.91 781.048 5505.87 782.115 5505.78 783.224H5457.53C5457.87 788.173 5459.58 792.056 5462.65 794.872C5465.81 797.688 5469.6 799.096 5474.04 799.096C5477.37 799.096 5480.14 798.371 5482.36 796.92C5484.66 795.384 5486.37 793.421 5487.48 791.032H5504.12C5502.93 795.043 5500.92 798.712 5498.1 802.04C5495.37 805.283 5491.96 807.843 5487.86 809.72C5483.85 811.597 5479.29 812.536 5474.17 812.536ZM5474.3 759.288C5470.29 759.288 5466.74 760.44 5463.67 762.744C5460.6 764.963 5458.64 768.376 5457.78 772.984H5489.4C5489.14 768.803 5487.61 765.475 5484.79 763C5481.98 760.525 5478.48 759.288 5474.3 759.288ZM5519.82 811V747.512H5534.41L5535.95 759.416C5538.25 755.32 5541.37 752.077 5545.29 749.688C5549.3 747.213 5554 745.976 5559.37 745.976V763.256H5554.76C5551.18 763.256 5547.98 763.811 5545.16 764.92C5542.35 766.029 5540.13 767.949 5538.51 770.68C5536.97 773.411 5536.2 777.208 5536.2 782.072V811H5519.82ZM5595.95 792.056C5592.88 792.056 5590.02 791.715 5587.37 791.032L5582.64 795.768C5584.09 796.536 5586.05 797.176 5588.53 797.688C5591 798.2 5595.01 798.712 5600.56 799.224C5609.01 799.992 5615.15 801.997 5618.99 805.24C5622.83 808.483 5624.75 812.963 5624.75 818.68C5624.75 822.435 5623.73 825.976 5621.68 829.304C5619.63 832.717 5616.47 835.448 5612.21 837.496C5607.94 839.629 5602.48 840.696 5595.82 840.696C5586.78 840.696 5579.48 838.989 5573.93 835.576C5568.39 832.248 5565.61 827.213 5565.61 820.472C5565.61 814.755 5568.39 809.805 5573.93 805.624C5572.23 804.856 5570.73 804.045 5569.45 803.192C5568.26 802.339 5567.19 801.443 5566.25 800.504V797.56L5577.39 785.784C5572.44 781.432 5569.97 775.843 5569.97 769.016C5569.97 764.749 5570.99 760.867 5573.04 757.368C5575.17 753.869 5578.16 751.096 5582 749.048C5585.84 747 5590.49 745.976 5595.95 745.976C5599.53 745.976 5602.86 746.488 5605.93 747.512H5630V757.496L5619.12 758.264C5620.82 761.507 5621.68 765.091 5621.68 769.016C5621.68 773.283 5620.65 777.165 5618.61 780.664C5616.56 784.163 5613.57 786.936 5609.65 788.984C5605.81 791.032 5601.24 792.056 5595.95 792.056ZM5595.95 779.512C5599.28 779.512 5602.01 778.616 5604.14 776.824C5606.36 775.032 5607.47 772.472 5607.47 769.144C5607.47 765.816 5606.36 763.256 5604.14 761.464C5602.01 759.672 5599.28 758.776 5595.95 758.776C5592.45 758.776 5589.64 759.672 5587.5 761.464C5585.37 763.256 5584.3 765.816 5584.3 769.144C5584.3 772.472 5585.37 775.032 5587.5 776.824C5589.64 778.616 5592.45 779.512 5595.95 779.512ZM5580.59 818.808C5580.59 821.965 5582.04 824.312 5584.94 825.848C5587.93 827.469 5591.56 828.28 5595.82 828.28C5599.92 828.28 5603.25 827.427 5605.81 825.72C5608.37 824.099 5609.65 821.88 5609.65 819.064C5609.65 816.76 5608.79 814.84 5607.09 813.304C5605.46 811.768 5602.18 810.829 5597.23 810.488C5593.73 810.232 5590.49 809.848 5587.5 809.336C5585.03 810.701 5583.24 812.195 5582.13 813.816C5581.1 815.437 5580.59 817.101 5580.59 818.808ZM5650.78 737.656C5647.79 737.656 5645.32 736.76 5643.35 734.968C5641.48 733.176 5640.54 730.915 5640.54 728.184C5640.54 725.453 5641.48 723.235 5643.35 721.528C5645.32 719.736 5647.79 718.84 5650.78 718.84C5653.76 718.84 5656.2 719.736 5658.07 721.528C5660.04 723.235 5661.02 725.453 5661.02 728.184C5661.02 730.915 5660.04 733.176 5658.07 734.968C5656.2 736.76 5653.76 737.656 5650.78 737.656ZM5642.59 811V747.512H5658.97V811H5642.59ZM5676.07 811V747.512H5690.53L5691.81 758.264C5693.78 754.509 5696.59 751.523 5700.26 749.304C5704.02 747.085 5708.41 745.976 5713.45 745.976C5721.3 745.976 5727.4 748.451 5731.75 753.4C5736.1 758.349 5738.28 765.603 5738.28 775.16V811H5721.89V776.696C5721.89 771.235 5720.78 767.053 5718.57 764.152C5716.35 761.251 5712.89 759.8 5708.2 759.8C5703.59 759.8 5699.79 761.421 5696.81 764.664C5693.9 767.907 5692.45 772.429 5692.45 778.232V811H5676.07ZM5780.83 792.056C5777.75 792.056 5774.89 791.715 5772.25 791.032L5767.51 795.768C5768.96 796.536 5770.93 797.176 5773.4 797.688C5775.88 798.2 5779.89 798.712 5785.43 799.224C5793.88 799.992 5800.03 801.997 5803.87 805.24C5807.71 808.483 5809.62 812.963 5809.62 818.68C5809.62 822.435 5808.6 825.976 5806.55 829.304C5804.51 832.717 5801.35 835.448 5797.08 837.496C5792.81 839.629 5787.35 840.696 5780.7 840.696C5771.65 840.696 5764.36 838.989 5758.81 835.576C5753.26 832.248 5750.49 827.213 5750.49 820.472C5750.49 814.755 5753.26 809.805 5758.81 805.624C5757.1 804.856 5755.61 804.045 5754.33 803.192C5753.13 802.339 5752.07 801.443 5751.13 800.504V797.56L5762.27 785.784C5757.32 781.432 5754.84 775.843 5754.84 769.016C5754.84 764.749 5755.87 760.867 5757.91 757.368C5760.05 753.869 5763.03 751.096 5766.87 749.048C5770.71 747 5775.36 745.976 5780.83 745.976C5784.41 745.976 5787.74 746.488 5790.81 747.512H5814.87V757.496L5803.99 758.264C5805.7 761.507 5806.55 765.091 5806.55 769.016C5806.55 773.283 5805.53 777.165 5803.48 780.664C5801.43 784.163 5798.45 786.936 5794.52 788.984C5790.68 791.032 5786.12 792.056 5780.83 792.056ZM5780.83 779.512C5784.15 779.512 5786.88 778.616 5789.02 776.824C5791.24 775.032 5792.35 772.472 5792.35 769.144C5792.35 765.816 5791.24 763.256 5789.02 761.464C5786.88 759.672 5784.15 758.776 5780.83 758.776C5777.33 758.776 5774.51 759.672 5772.38 761.464C5770.24 763.256 5769.18 765.816 5769.18 769.144C5769.18 772.472 5770.24 775.032 5772.38 776.824C5774.51 778.616 5777.33 779.512 5780.83 779.512ZM5765.47 818.808C5765.47 821.965 5766.92 824.312 5769.82 825.848C5772.8 827.469 5776.43 828.28 5780.7 828.28C5784.79 828.28 5788.12 827.427 5790.68 825.72C5793.24 824.099 5794.52 821.88 5794.52 819.064C5794.52 816.76 5793.67 814.84 5791.96 813.304C5790.34 811.768 5787.05 810.829 5782.11 810.488C5778.61 810.232 5775.36 809.848 5772.38 809.336C5769.9 810.701 5768.11 812.195 5767 813.816C5765.98 815.437 5765.47 817.101 5765.47 818.808Z" fill="black"/>
<path d="M3301.7 2507V2417.4H3318.09L3360.2 2480.5V2417.4H3376.58V2507H3360.2L3318.09 2444.02V2507H3301.7ZM3424.42 2508.54C3418.02 2508.54 3412.34 2507.17 3407.39 2504.44C3402.44 2501.71 3398.56 2497.87 3395.75 2492.92C3392.93 2487.97 3391.52 2482.25 3391.52 2475.77C3391.52 2469.2 3392.89 2463.35 3395.62 2458.23C3398.43 2453.11 3402.27 2449.14 3407.14 2446.33C3412.09 2443.43 3417.89 2441.98 3424.55 2441.98C3430.78 2441.98 3436.28 2443.34 3441.06 2446.07C3445.84 2448.8 3449.55 2452.56 3452.19 2457.34C3454.92 2462.03 3456.29 2467.28 3456.29 2473.08C3456.29 2474.02 3456.25 2475 3456.16 2476.02C3456.16 2477.05 3456.12 2478.11 3456.03 2479.22H3407.78C3408.12 2484.17 3409.83 2488.06 3412.9 2490.87C3416.06 2493.69 3419.85 2495.1 3424.29 2495.1C3427.62 2495.1 3430.39 2494.37 3432.61 2492.92C3434.91 2491.38 3436.62 2489.42 3437.73 2487.03H3454.37C3453.18 2491.04 3451.17 2494.71 3448.35 2498.04C3445.62 2501.28 3442.21 2503.84 3438.11 2505.72C3434.1 2507.6 3429.54 2508.54 3424.42 2508.54ZM3424.55 2455.29C3420.54 2455.29 3416.99 2456.44 3413.92 2458.74C3410.85 2460.96 3408.89 2464.38 3408.03 2468.98H3439.65C3439.39 2464.8 3437.86 2461.47 3435.04 2459C3432.23 2456.53 3428.73 2455.29 3424.55 2455.29ZM3479.99 2507L3461.43 2443.51H3477.68L3488.69 2489.21L3501.49 2443.51H3519.67L3532.47 2489.21L3543.6 2443.51H3559.86L3541.17 2507H3524.15L3510.58 2459.51L3497.01 2507H3479.99ZM3635.64 2508.54C3629.07 2508.54 3623.14 2507.26 3617.85 2504.7C3612.56 2502.05 3608.33 2498.08 3605.18 2492.79C3602.1 2487.5 3600.57 2480.8 3600.57 2472.7V2417.4H3616.95V2472.82C3616.95 2479.82 3618.62 2485.03 3621.94 2488.44C3625.36 2491.85 3630.05 2493.56 3636.02 2493.56C3641.91 2493.56 3646.56 2491.85 3649.98 2488.44C3653.39 2485.03 3655.1 2479.82 3655.1 2472.82V2417.4H3671.48V2472.7C3671.48 2480.8 3669.86 2487.5 3666.62 2492.79C3663.37 2498.08 3659.02 2502.05 3653.56 2504.7C3648.18 2507.26 3642.21 2508.54 3635.64 2508.54ZM3688.2 2507V2417.4H3704.59V2507H3688.2Z" fill="black"/>
</svg>
