<svg width="6616" height="2022" viewBox="0 0 6616 2022" fill="none" xmlns="http://www.w3.org/2000/svg">
<rect x="2591.14" y="769.113" width="4.43438" height="53.39" transform="rotate(-45 2591.14 769.113)" fill="black" stroke="black" stroke-width="4.43438"/>
<rect x="2626.51" y="556.25" width="4.5" height="240.5" fill="black" stroke="black" stroke-width="4.5"/>
<rect x="2663.5" y="765.975" width="4.43438" height="53.39" transform="rotate(45 2663.5 765.975)" fill="black" stroke="black" stroke-width="4.43438"/>
<rect x="1228" y="923" width="400" height="400" rx="200" fill="#3498DB"/>
<rect x="1628" y="1113" width="828" height="21" fill="#545454"/>
<rect x="2628.84" y="840" width="400" height="400" rx="200" transform="rotate(45 2628.84 840)" fill="#3498DB"/>
<rect x="6143.64" y="1456.89" width="4.43438" height="53.39" transform="rotate(135 6143.64 1456.89)" fill="black" stroke="black" stroke-width="4.43438"/>
<rect x="6108.27" y="1669.75" width="4.5" height="240.5" transform="rotate(-180 6108.27 1669.75)" fill="black" stroke="black" stroke-width="4.5"/>
<rect x="6071.27" y="1460.02" width="4.43438" height="53.39" transform="rotate(-135 6071.27 1460.02)" fill="black" stroke="black" stroke-width="4.43438"/>
<rect x="2350" y="240" width="570" height="186" rx="15" fill="white" stroke="#3498DB" stroke-width="10"/>
<path d="M2427.32 377V313.512H2441.78L2443.19 322.088C2445.24 319.016 2447.93 316.584 2451.26 314.792C2454.67 312.915 2458.59 311.976 2463.03 311.976C2472.85 311.976 2479.8 315.773 2483.9 323.368C2486.2 319.869 2489.27 317.096 2493.11 315.048C2497.04 313 2501.3 311.976 2505.91 311.976C2514.19 311.976 2520.55 314.451 2524.98 319.4C2529.42 324.349 2531.64 331.603 2531.64 341.16V377H2515.26V342.696C2515.26 337.235 2514.19 333.053 2512.06 330.152C2510.01 327.251 2506.81 325.8 2502.46 325.8C2498.02 325.8 2494.43 327.421 2491.7 330.664C2489.06 333.907 2487.74 338.429 2487.74 344.232V377H2471.35V342.696C2471.35 337.235 2470.29 333.053 2468.15 330.152C2466.02 327.251 2462.73 325.8 2458.3 325.8C2453.94 325.8 2450.4 327.421 2447.67 330.664C2445.03 333.907 2443.7 338.429 2443.7 344.232V377H2427.32ZM2569.08 378.536C2563.62 378.536 2559.14 377.683 2555.64 375.976C2552.14 374.184 2549.54 371.837 2547.84 368.936C2546.13 366.035 2545.28 362.835 2545.28 359.336C2545.28 353.448 2547.58 348.669 2552.19 345C2556.8 341.331 2563.71 339.496 2572.92 339.496H2589.05V337.96C2589.05 333.608 2587.81 330.408 2585.34 328.36C2582.86 326.312 2579.79 325.288 2576.12 325.288C2572.8 325.288 2569.89 326.099 2567.42 327.72C2564.94 329.256 2563.41 331.56 2562.81 334.632H2546.81C2547.24 330.024 2548.77 326.013 2551.42 322.6C2554.15 319.187 2557.65 316.584 2561.92 314.792C2566.18 312.915 2570.96 311.976 2576.25 311.976C2585.3 311.976 2592.42 314.237 2597.63 318.76C2602.83 323.283 2605.44 329.683 2605.44 337.96V377H2591.48L2589.95 366.76C2588.07 370.173 2585.42 372.989 2582.01 375.208C2578.68 377.427 2574.37 378.536 2569.08 378.536ZM2572.8 365.736C2577.49 365.736 2581.12 364.2 2583.68 361.128C2586.32 358.056 2587.98 354.259 2588.67 349.736H2574.72C2570.36 349.736 2567.25 350.547 2565.37 352.168C2563.49 353.704 2562.56 355.624 2562.56 357.928C2562.56 360.403 2563.49 362.323 2565.37 363.688C2567.25 365.053 2569.72 365.736 2572.8 365.736ZM2647.31 378.536C2641.68 378.536 2636.73 377.64 2632.46 375.848C2628.2 373.971 2624.78 371.411 2622.22 368.168C2619.66 364.925 2618.13 361.171 2617.61 356.904H2634.13C2634.64 359.379 2636 361.512 2638.22 363.304C2640.53 365.011 2643.47 365.864 2647.05 365.864C2650.64 365.864 2653.24 365.139 2654.86 363.688C2656.57 362.237 2657.42 360.573 2657.42 358.696C2657.42 355.965 2656.23 354.131 2653.84 353.192C2651.45 352.168 2648.12 351.187 2643.85 350.248C2641.12 349.651 2638.35 348.925 2635.53 348.072C2632.72 347.219 2630.12 346.152 2627.73 344.872C2625.42 343.507 2623.54 341.8 2622.09 339.752C2620.64 337.619 2619.92 335.016 2619.92 331.944C2619.92 326.312 2622.14 321.576 2626.57 317.736C2631.1 313.896 2637.41 311.976 2645.52 311.976C2653.03 311.976 2659 313.725 2663.44 317.224C2667.96 320.723 2670.65 325.544 2671.5 331.688H2656.01C2655.08 326.995 2651.53 324.648 2645.39 324.648C2642.32 324.648 2639.93 325.245 2638.22 326.44C2636.6 327.635 2635.79 329.128 2635.79 330.92C2635.79 332.797 2637.03 334.291 2639.5 335.4C2641.98 336.509 2645.26 337.533 2649.36 338.472C2653.8 339.496 2657.85 340.648 2661.52 341.928C2665.27 343.123 2668.26 344.957 2670.48 347.432C2672.7 349.821 2673.81 353.277 2673.81 357.8C2673.89 361.725 2672.87 365.267 2670.73 368.424C2668.6 371.581 2665.53 374.056 2661.52 375.848C2657.51 377.64 2652.77 378.536 2647.31 378.536ZM2714.61 377C2707.95 377 2702.62 375.379 2698.61 372.136C2694.6 368.893 2692.59 363.133 2692.59 354.856V327.208H2681.71V313.512H2692.59L2694.51 296.488H2708.98V313.512H2726.13V327.208H2708.98V354.984C2708.98 358.056 2709.62 360.189 2710.9 361.384C2712.26 362.493 2714.57 363.048 2717.81 363.048H2725.74V377H2714.61ZM2769.42 378.536C2763.02 378.536 2757.34 377.171 2752.39 374.44C2747.44 371.709 2743.56 367.869 2740.75 362.92C2737.93 357.971 2736.52 352.253 2736.52 345.768C2736.52 339.197 2737.89 333.352 2740.62 328.232C2743.43 323.112 2747.27 319.144 2752.14 316.328C2757.09 313.427 2762.89 311.976 2769.55 311.976C2775.78 311.976 2781.28 313.341 2786.06 316.072C2790.84 318.803 2794.55 322.557 2797.19 327.336C2799.92 332.029 2801.29 337.277 2801.29 343.08C2801.29 344.019 2801.25 345 2801.16 346.024C2801.16 347.048 2801.12 348.115 2801.03 349.224H2752.78C2753.12 354.173 2754.83 358.056 2757.9 360.872C2761.06 363.688 2764.85 365.096 2769.29 365.096C2772.62 365.096 2775.39 364.371 2777.61 362.92C2779.91 361.384 2781.62 359.421 2782.73 357.032H2799.37C2798.18 361.043 2796.17 364.712 2793.35 368.04C2790.62 371.283 2787.21 373.843 2783.11 375.72C2779.1 377.597 2774.54 378.536 2769.42 378.536ZM2769.55 325.288C2765.54 325.288 2761.99 326.44 2758.92 328.744C2755.85 330.963 2753.89 334.376 2753.03 338.984H2784.65C2784.39 334.803 2782.86 331.475 2780.04 329C2777.23 326.525 2773.73 325.288 2769.55 325.288ZM2815.07 377V313.512H2829.66L2831.2 325.416C2833.5 321.32 2836.62 318.077 2840.54 315.688C2844.55 313.213 2849.25 311.976 2854.62 311.976V329.256H2850.01C2846.43 329.256 2843.23 329.811 2840.41 330.92C2837.6 332.029 2835.38 333.949 2833.76 336.68C2832.22 339.411 2831.45 343.208 2831.45 348.072V377H2815.07Z" fill="#3498DB"/>
<rect x="6068.14" y="779.113" width="4.43438" height="53.39" transform="rotate(-45 6068.14 779.113)" fill="black" stroke="black" stroke-width="4.43438"/>
<rect x="6103.51" y="566.25" width="4.5" height="240.5" fill="black" stroke="black" stroke-width="4.5"/>
<rect x="6140.5" y="775.975" width="4.43438" height="53.39" transform="rotate(45 6140.5 775.975)" fill="black" stroke="black" stroke-width="4.43438"/>
<rect x="5827" y="250" width="570" height="186" rx="15" fill="white" stroke="#3498DB" stroke-width="10"/>
<path d="M5904.32 387V323.512H5918.78L5920.19 332.088C5922.24 329.016 5924.93 326.584 5928.26 324.792C5931.67 322.915 5935.59 321.976 5940.03 321.976C5949.85 321.976 5956.8 325.773 5960.9 333.368C5963.2 329.869 5966.27 327.096 5970.11 325.048C5974.04 323 5978.3 321.976 5982.91 321.976C5991.19 321.976 5997.55 324.451 6001.98 329.4C6006.42 334.349 6008.64 341.603 6008.64 351.16V387H5992.26V352.696C5992.26 347.235 5991.19 343.053 5989.06 340.152C5987.01 337.251 5983.81 335.8 5979.46 335.8C5975.02 335.8 5971.43 337.421 5968.7 340.664C5966.06 343.907 5964.74 348.429 5964.74 354.232V387H5948.35V352.696C5948.35 347.235 5947.29 343.053 5945.15 340.152C5943.02 337.251 5939.73 335.8 5935.3 335.8C5930.94 335.8 5927.4 337.421 5924.67 340.664C5922.03 343.907 5920.7 348.429 5920.7 354.232V387H5904.32ZM6046.08 388.536C6040.62 388.536 6036.14 387.683 6032.64 385.976C6029.14 384.184 6026.54 381.837 6024.84 378.936C6023.13 376.035 6022.28 372.835 6022.28 369.336C6022.28 363.448 6024.58 358.669 6029.19 355C6033.8 351.331 6040.71 349.496 6049.92 349.496H6066.05V347.96C6066.05 343.608 6064.81 340.408 6062.34 338.36C6059.86 336.312 6056.79 335.288 6053.12 335.288C6049.8 335.288 6046.89 336.099 6044.42 337.72C6041.94 339.256 6040.41 341.56 6039.81 344.632H6023.81C6024.24 340.024 6025.77 336.013 6028.42 332.6C6031.15 329.187 6034.65 326.584 6038.92 324.792C6043.18 322.915 6047.96 321.976 6053.25 321.976C6062.3 321.976 6069.42 324.237 6074.63 328.76C6079.83 333.283 6082.44 339.683 6082.44 347.96V387H6068.48L6066.95 376.76C6065.07 380.173 6062.42 382.989 6059.01 385.208C6055.68 387.427 6051.37 388.536 6046.08 388.536ZM6049.8 375.736C6054.49 375.736 6058.12 374.2 6060.68 371.128C6063.32 368.056 6064.98 364.259 6065.67 359.736H6051.72C6047.36 359.736 6044.25 360.547 6042.37 362.168C6040.49 363.704 6039.56 365.624 6039.56 367.928C6039.56 370.403 6040.49 372.323 6042.37 373.688C6044.25 375.053 6046.72 375.736 6049.8 375.736ZM6124.31 388.536C6118.68 388.536 6113.73 387.64 6109.46 385.848C6105.2 383.971 6101.78 381.411 6099.22 378.168C6096.66 374.925 6095.13 371.171 6094.61 366.904H6111.13C6111.64 369.379 6113 371.512 6115.22 373.304C6117.53 375.011 6120.47 375.864 6124.05 375.864C6127.64 375.864 6130.24 375.139 6131.86 373.688C6133.57 372.237 6134.42 370.573 6134.42 368.696C6134.42 365.965 6133.23 364.131 6130.84 363.192C6128.45 362.168 6125.12 361.187 6120.85 360.248C6118.12 359.651 6115.35 358.925 6112.53 358.072C6109.72 357.219 6107.12 356.152 6104.73 354.872C6102.42 353.507 6100.54 351.8 6099.09 349.752C6097.64 347.619 6096.92 345.016 6096.92 341.944C6096.92 336.312 6099.14 331.576 6103.57 327.736C6108.1 323.896 6114.41 321.976 6122.52 321.976C6130.03 321.976 6136 323.725 6140.44 327.224C6144.96 330.723 6147.65 335.544 6148.5 341.688H6133.01C6132.08 336.995 6128.53 334.648 6122.39 334.648C6119.32 334.648 6116.93 335.245 6115.22 336.44C6113.6 337.635 6112.79 339.128 6112.79 340.92C6112.79 342.797 6114.03 344.291 6116.5 345.4C6118.98 346.509 6122.26 347.533 6126.36 348.472C6130.8 349.496 6134.85 350.648 6138.52 351.928C6142.27 353.123 6145.26 354.957 6147.48 357.432C6149.7 359.821 6150.81 363.277 6150.81 367.8C6150.89 371.725 6149.87 375.267 6147.73 378.424C6145.6 381.581 6142.53 384.056 6138.52 385.848C6134.51 387.64 6129.77 388.536 6124.31 388.536ZM6191.61 387C6184.95 387 6179.62 385.379 6175.61 382.136C6171.6 378.893 6169.59 373.133 6169.59 364.856V337.208H6158.71V323.512H6169.59L6171.51 306.488H6185.98V323.512H6203.13V337.208H6185.98V364.984C6185.98 368.056 6186.62 370.189 6187.9 371.384C6189.26 372.493 6191.57 373.048 6194.81 373.048H6202.74V387H6191.61ZM6246.42 388.536C6240.02 388.536 6234.34 387.171 6229.39 384.44C6224.44 381.709 6220.56 377.869 6217.75 372.92C6214.93 367.971 6213.52 362.253 6213.52 355.768C6213.52 349.197 6214.89 343.352 6217.62 338.232C6220.43 333.112 6224.27 329.144 6229.14 326.328C6234.09 323.427 6239.89 321.976 6246.55 321.976C6252.78 321.976 6258.28 323.341 6263.06 326.072C6267.84 328.803 6271.55 332.557 6274.19 337.336C6276.92 342.029 6278.29 347.277 6278.29 353.08C6278.29 354.019 6278.25 355 6278.16 356.024C6278.16 357.048 6278.12 358.115 6278.03 359.224H6229.78C6230.12 364.173 6231.83 368.056 6234.9 370.872C6238.06 373.688 6241.85 375.096 6246.29 375.096C6249.62 375.096 6252.39 374.371 6254.61 372.92C6256.91 371.384 6258.62 369.421 6259.73 367.032H6276.37C6275.18 371.043 6273.17 374.712 6270.35 378.04C6267.62 381.283 6264.21 383.843 6260.11 385.72C6256.1 387.597 6251.54 388.536 6246.42 388.536ZM6246.55 335.288C6242.54 335.288 6238.99 336.44 6235.92 338.744C6232.85 340.963 6230.89 344.376 6230.03 348.984H6261.65C6261.39 344.803 6259.86 341.475 6257.04 339C6254.23 336.525 6250.73 335.288 6246.55 335.288ZM6292.07 387V323.512H6306.66L6308.2 335.416C6310.5 331.32 6313.62 328.077 6317.54 325.688C6321.55 323.213 6326.25 321.976 6331.62 321.976V339.256H6327.01C6323.43 339.256 6320.23 339.811 6317.41 340.92C6314.6 342.029 6312.38 343.949 6310.76 346.68C6309.22 349.411 6308.45 353.208 6308.45 358.072V387H6292.07Z" fill="#3498DB"/>
<rect x="6611" y="2017" width="991" height="217" rx="15" transform="rotate(-180 6611 2017)" fill="white" stroke="#3498DB" stroke-width="10"/>
<path d="M5735.78 1953.54C5729.64 1953.54 5724.09 1952.13 5719.14 1949.31C5714.28 1946.5 5710.4 1942.61 5707.5 1937.66C5704.68 1932.63 5703.27 1926.83 5703.27 1920.26C5703.27 1913.69 5704.72 1907.93 5707.62 1902.98C5710.53 1897.94 5714.41 1894.02 5719.27 1891.2C5724.22 1888.38 5729.77 1886.98 5735.91 1886.98C5741.97 1886.98 5747.43 1888.38 5752.3 1891.2C5757.25 1894.02 5761.13 1897.94 5763.94 1902.98C5766.85 1907.93 5768.3 1913.69 5768.3 1920.26C5768.3 1926.83 5766.85 1932.63 5763.94 1937.66C5761.13 1942.61 5757.25 1946.5 5752.3 1949.31C5747.35 1952.13 5741.84 1953.54 5735.78 1953.54ZM5735.78 1939.33C5740.05 1939.33 5743.76 1937.75 5746.92 1934.59C5750.08 1931.35 5751.66 1926.57 5751.66 1920.26C5751.66 1913.94 5750.08 1909.21 5746.92 1906.05C5743.76 1902.81 5740.09 1901.18 5735.91 1901.18C5731.56 1901.18 5727.81 1902.81 5724.65 1906.05C5721.58 1909.21 5720.04 1913.94 5720.04 1920.26C5720.04 1926.57 5721.58 1931.35 5724.65 1934.59C5727.81 1937.75 5731.52 1939.33 5735.78 1939.33ZM5782.95 1952V1888.51H5797.54L5799.07 1900.42C5801.38 1896.32 5804.49 1893.08 5808.42 1890.69C5812.43 1888.21 5817.12 1886.98 5822.5 1886.98V1904.26H5817.89C5814.31 1904.26 5811.11 1904.81 5808.29 1905.92C5805.47 1907.03 5803.25 1908.95 5801.63 1911.68C5800.1 1914.41 5799.33 1918.21 5799.33 1923.07V1952H5782.95ZM5842.53 1878.66C5839.54 1878.66 5837.07 1877.76 5835.1 1875.97C5833.23 1874.18 5832.29 1871.91 5832.29 1869.18C5832.29 1866.45 5833.23 1864.23 5835.1 1862.53C5837.07 1860.74 5839.54 1859.84 5842.53 1859.84C5845.51 1859.84 5847.95 1860.74 5849.82 1862.53C5851.79 1864.23 5852.77 1866.45 5852.77 1869.18C5852.77 1871.91 5851.79 1874.18 5849.82 1875.97C5847.95 1877.76 5845.51 1878.66 5842.53 1878.66ZM5834.34 1952V1888.51H5850.72V1952H5834.34ZM5894.7 1933.06C5891.63 1933.06 5888.77 1932.71 5886.12 1932.03L5881.39 1936.77C5882.84 1937.54 5884.8 1938.18 5887.28 1938.69C5889.75 1939.2 5893.76 1939.71 5899.31 1940.22C5907.76 1940.99 5913.9 1943 5917.74 1946.24C5921.58 1949.48 5923.5 1953.96 5923.5 1959.68C5923.5 1963.43 5922.48 1966.98 5920.43 1970.3C5918.38 1973.72 5915.22 1976.45 5910.96 1978.5C5906.69 1980.63 5901.23 1981.7 5894.57 1981.7C5885.53 1981.7 5878.23 1979.99 5872.68 1976.58C5867.14 1973.25 5864.36 1968.21 5864.36 1961.47C5864.36 1955.75 5867.14 1950.81 5872.68 1946.62C5870.98 1945.86 5869.48 1945.05 5868.2 1944.19C5867.01 1943.34 5865.94 1942.44 5865 1941.5V1938.56L5876.14 1926.78C5871.19 1922.43 5868.72 1916.84 5868.72 1910.02C5868.72 1905.75 5869.74 1901.87 5871.79 1898.37C5873.92 1894.87 5876.91 1892.1 5880.75 1890.05C5884.59 1888 5889.24 1886.98 5894.7 1886.98C5898.28 1886.98 5901.61 1887.49 5904.68 1888.51H5928.75V1898.5L5917.87 1899.26C5919.57 1902.51 5920.43 1906.09 5920.43 1910.02C5920.43 1914.28 5919.4 1918.17 5917.36 1921.66C5915.31 1925.16 5912.32 1927.94 5908.4 1929.98C5904.56 1932.03 5899.99 1933.06 5894.7 1933.06ZM5894.7 1920.51C5898.03 1920.51 5900.76 1919.62 5902.89 1917.82C5905.11 1916.03 5906.22 1913.47 5906.22 1910.14C5906.22 1906.82 5905.11 1904.26 5902.89 1902.46C5900.76 1900.67 5898.03 1899.78 5894.7 1899.78C5891.2 1899.78 5888.39 1900.67 5886.25 1902.46C5884.12 1904.26 5883.05 1906.82 5883.05 1910.14C5883.05 1913.47 5884.12 1916.03 5886.25 1917.82C5888.39 1919.62 5891.2 1920.51 5894.7 1920.51ZM5879.34 1959.81C5879.34 1962.97 5880.79 1965.31 5883.69 1966.85C5886.68 1968.47 5890.31 1969.28 5894.57 1969.28C5898.67 1969.28 5902 1968.43 5904.56 1966.72C5907.12 1965.1 5908.4 1962.88 5908.4 1960.06C5908.4 1957.76 5907.54 1955.84 5905.84 1954.3C5904.21 1952.77 5900.93 1951.83 5895.98 1951.49C5892.48 1951.23 5889.24 1950.85 5886.25 1950.34C5883.78 1951.7 5881.99 1953.19 5880.88 1954.82C5879.85 1956.44 5879.34 1958.1 5879.34 1959.81ZM5949.53 1878.66C5946.54 1878.66 5944.07 1877.76 5942.1 1875.97C5940.23 1874.18 5939.29 1871.91 5939.29 1869.18C5939.29 1866.45 5940.23 1864.23 5942.1 1862.53C5944.07 1860.74 5946.54 1859.84 5949.53 1859.84C5952.51 1859.84 5954.95 1860.74 5956.82 1862.53C5958.79 1864.23 5959.77 1866.45 5959.77 1869.18C5959.77 1871.91 5958.79 1874.18 5956.82 1875.97C5954.95 1877.76 5952.51 1878.66 5949.53 1878.66ZM5941.34 1952V1888.51H5957.72V1952H5941.34ZM5974.82 1952V1888.51H5989.28L5990.56 1899.26C5992.53 1895.51 5995.34 1892.52 5999.01 1890.3C6002.77 1888.09 6007.16 1886.98 6012.2 1886.98C6020.05 1886.98 6026.15 1889.45 6030.5 1894.4C6034.85 1899.35 6037.03 1906.6 6037.03 1916.16V1952H6020.64V1917.7C6020.64 1912.23 6019.53 1908.05 6017.32 1905.15C6015.1 1902.25 6011.64 1900.8 6006.95 1900.8C6002.34 1900.8 5998.54 1902.42 5995.56 1905.66C5992.65 1908.91 5991.2 1913.43 5991.2 1919.23V1952H5974.82ZM6047.32 1966.21L6079.32 1852.54H6095.32L6063.19 1966.21H6047.32ZM6104.2 1952V1888.51H6118.66L6120.07 1897.09C6122.12 1894.02 6124.8 1891.58 6128.13 1889.79C6131.54 1887.91 6135.47 1886.98 6139.91 1886.98C6149.72 1886.98 6156.68 1890.77 6160.77 1898.37C6163.08 1894.87 6166.15 1892.1 6169.99 1890.05C6173.91 1888 6178.18 1886.98 6182.79 1886.98C6191.06 1886.98 6197.42 1889.45 6201.86 1894.4C6206.3 1899.35 6208.52 1906.6 6208.52 1916.16V1952H6192.13V1917.7C6192.13 1912.23 6191.06 1908.05 6188.93 1905.15C6186.88 1902.25 6183.68 1900.8 6179.33 1900.8C6174.89 1900.8 6171.31 1902.42 6168.58 1905.66C6165.93 1908.91 6164.61 1913.43 6164.61 1919.23V1952H6148.23V1917.7C6148.23 1912.23 6147.16 1908.05 6145.03 1905.15C6142.89 1902.25 6139.61 1900.8 6135.17 1900.8C6130.82 1900.8 6127.28 1902.42 6124.55 1905.66C6121.9 1908.91 6120.58 1913.43 6120.58 1919.23V1952H6104.2ZM6245.96 1953.54C6240.5 1953.54 6236.02 1952.68 6232.52 1950.98C6229.02 1949.18 6226.42 1946.84 6224.71 1943.94C6223 1941.03 6222.15 1937.83 6222.15 1934.34C6222.15 1928.45 6224.45 1923.67 6229.06 1920C6233.67 1916.33 6240.58 1914.5 6249.8 1914.5H6265.93V1912.96C6265.93 1908.61 6264.69 1905.41 6262.21 1903.36C6259.74 1901.31 6256.67 1900.29 6253 1900.29C6249.67 1900.29 6246.77 1901.1 6244.29 1902.72C6241.82 1904.26 6240.28 1906.56 6239.69 1909.63H6223.69C6224.11 1905.02 6225.65 1901.01 6228.29 1897.6C6231.02 1894.19 6234.52 1891.58 6238.79 1889.79C6243.06 1887.91 6247.84 1886.98 6253.13 1886.98C6262.17 1886.98 6269.3 1889.24 6274.5 1893.76C6279.71 1898.28 6282.31 1904.68 6282.31 1912.96V1952H6268.36L6266.82 1941.76C6264.94 1945.17 6262.3 1947.99 6258.89 1950.21C6255.56 1952.43 6251.25 1953.54 6245.96 1953.54ZM6249.67 1940.74C6254.36 1940.74 6257.99 1939.2 6260.55 1936.13C6263.2 1933.06 6264.86 1929.26 6265.54 1924.74H6251.59C6247.24 1924.74 6244.12 1925.55 6242.25 1927.17C6240.37 1928.7 6239.43 1930.62 6239.43 1932.93C6239.43 1935.4 6240.37 1937.32 6242.25 1938.69C6244.12 1940.05 6246.6 1940.74 6249.67 1940.74ZM6324.19 1953.54C6318.55 1953.54 6313.6 1952.64 6309.34 1950.85C6305.07 1948.97 6301.66 1946.41 6299.1 1943.17C6296.54 1939.93 6295 1936.17 6294.49 1931.9H6311C6311.51 1934.38 6312.88 1936.51 6315.1 1938.3C6317.4 1940.01 6320.35 1940.86 6323.93 1940.86C6327.51 1940.86 6330.12 1940.14 6331.74 1938.69C6333.44 1937.24 6334.3 1935.57 6334.3 1933.7C6334.3 1930.97 6333.1 1929.13 6330.71 1928.19C6328.32 1927.17 6325 1926.19 6320.73 1925.25C6318 1924.65 6315.23 1923.93 6312.41 1923.07C6309.59 1922.22 6306.99 1921.15 6304.6 1919.87C6302.3 1918.51 6300.42 1916.8 6298.97 1914.75C6297.52 1912.62 6296.79 1910.02 6296.79 1906.94C6296.79 1901.31 6299.01 1896.58 6303.45 1892.74C6307.97 1888.9 6314.29 1886.98 6322.39 1886.98C6329.9 1886.98 6335.88 1888.73 6340.31 1892.22C6344.84 1895.72 6347.52 1900.54 6348.38 1906.69H6332.89C6331.95 1901.99 6328.41 1899.65 6322.27 1899.65C6319.19 1899.65 6316.8 1900.25 6315.1 1901.44C6313.48 1902.63 6312.67 1904.13 6312.67 1905.92C6312.67 1907.8 6313.9 1909.29 6316.38 1910.4C6318.85 1911.51 6322.14 1912.53 6326.23 1913.47C6330.67 1914.5 6334.72 1915.65 6338.39 1916.93C6342.15 1918.12 6345.13 1919.96 6347.35 1922.43C6349.57 1924.82 6350.68 1928.28 6350.68 1932.8C6350.77 1936.73 6349.74 1940.27 6347.61 1943.42C6345.48 1946.58 6342.4 1949.06 6338.39 1950.85C6334.38 1952.64 6329.65 1953.54 6324.19 1953.54ZM6391.48 1952C6384.83 1952 6379.49 1950.38 6375.48 1947.14C6371.47 1943.89 6369.47 1938.13 6369.47 1929.86V1902.21H6358.59V1888.51H6369.47L6371.39 1871.49H6385.85V1888.51H6403V1902.21H6385.85V1929.98C6385.85 1933.06 6386.49 1935.19 6387.77 1936.38C6389.14 1937.49 6391.44 1938.05 6394.68 1938.05H6402.62V1952H6391.48ZM6446.29 1953.54C6439.89 1953.54 6434.22 1952.17 6429.27 1949.44C6424.32 1946.71 6420.44 1942.87 6417.62 1937.92C6414.81 1932.97 6413.4 1927.25 6413.4 1920.77C6413.4 1914.2 6414.76 1908.35 6417.49 1903.23C6420.31 1898.11 6424.15 1894.14 6429.01 1891.33C6433.96 1888.43 6439.77 1886.98 6446.42 1886.98C6452.65 1886.98 6458.15 1888.34 6462.93 1891.07C6467.71 1893.8 6471.42 1897.56 6474.07 1902.34C6476.8 1907.03 6478.17 1912.28 6478.17 1918.08C6478.17 1919.02 6478.12 1920 6478.04 1921.02C6478.04 1922.05 6477.99 1923.11 6477.91 1924.22H6429.65C6429.99 1929.17 6431.7 1933.06 6434.77 1935.87C6437.93 1938.69 6441.73 1940.1 6446.17 1940.1C6449.49 1940.1 6452.27 1939.37 6454.49 1937.92C6456.79 1936.38 6458.5 1934.42 6459.61 1932.03H6476.25C6475.05 1936.04 6473.05 1939.71 6470.23 1943.04C6467.5 1946.28 6464.09 1948.84 6459.99 1950.72C6455.98 1952.6 6451.41 1953.54 6446.29 1953.54ZM6446.42 1900.29C6442.41 1900.29 6438.87 1901.44 6435.8 1903.74C6432.73 1905.96 6430.76 1909.38 6429.91 1913.98H6461.53C6461.27 1909.8 6459.73 1906.47 6456.92 1904C6454.1 1901.53 6450.6 1900.29 6446.42 1900.29ZM6491.95 1952V1888.51H6506.54L6508.07 1900.42C6510.38 1896.32 6513.49 1893.08 6517.42 1890.69C6521.43 1888.21 6526.12 1886.98 6531.5 1886.98V1904.26H6526.89C6523.31 1904.26 6520.11 1904.81 6517.29 1905.92C6514.47 1907.03 6512.25 1908.95 6510.63 1911.68C6509.1 1914.41 6508.33 1918.21 6508.33 1923.07V1952H6491.95Z" fill="#3498DB"/>
<rect y="913" width="400" height="400" rx="200" fill="#3498DB"/>
<rect x="400" y="1103" width="828" height="21" fill="#545454"/>
<rect x="4711" y="933" width="400" height="400" rx="200" fill="#3498DB"/>
<rect x="5111" y="1123" width="828" height="21" fill="#545454"/>
<rect x="6111.84" y="850" width="400" height="400" rx="200" transform="rotate(45 6111.84 850)" fill="#3498DB"/>
<rect x="3483" y="923" width="400" height="400" rx="200" fill="#3498DB"/>
<rect x="3883" y="1113" width="828" height="21" fill="#545454"/>
<path d="M900.8 200.4C887.6 200.4 876.067 197.4 866.2 191.4C856.333 185.4 848.667 177.067 843.2 166.4C837.733 155.6 835 143.067 835 128.8C835 114.4 837.8 101.733 843.4 90.8C849.133 79.7333 857.2 71.1333 867.6 65C878.133 58.7333 890.6 55.6 905 55.6C921.4 55.6 935 59.5333 945.8 67.4C956.6 75.2667 963.6 86.1333 966.8 100H938.2C936.067 93.4667 932.2 88.4 926.6 84.8C921 81.0667 913.8 79.2 905 79.2C891 79.2 880.2 83.6667 872.6 92.6C865 101.4 861.2 113.533 861.2 129C861.2 144.467 864.933 156.467 872.4 165C880 173.4 890.267 177.6 903.2 177.6C915.867 177.6 925.4 174.2 931.8 167.4C938.333 160.467 942.267 151.4 943.6 140.2H908.2V121H969.4V198H945.8L943.8 179.6C939.267 186.267 933.6 191.4 926.8 195C920 198.6 911.333 200.4 900.8 200.4ZM1007.49 83.4C1002.82 83.4 998.954 82 995.888 79.2C992.954 76.4 991.488 72.8667 991.488 68.6C991.488 64.3333 992.954 60.8667 995.888 58.2C998.954 55.4 1002.82 54 1007.49 54C1012.15 54 1015.95 55.4 1018.89 58.2C1021.95 60.8667 1023.49 64.3333 1023.49 68.6C1023.49 72.8667 1021.95 76.4 1018.89 79.2C1015.95 82 1012.15 83.4 1007.49 83.4ZM994.688 198V98.8H1020.29V198H994.688ZM1091.21 198C1080.81 198 1072.47 195.467 1066.21 190.4C1059.94 185.333 1056.81 176.333 1056.81 163.4V120.2H1039.81V98.8H1056.81L1059.81 72.2H1082.41V98.8H1109.21V120.2H1082.41V163.6C1082.41 168.4 1083.41 171.733 1085.41 173.6C1087.54 175.333 1091.14 176.2 1096.21 176.2H1108.61V198H1091.21ZM1131.19 198V54H1156.79V114C1160.12 108.533 1164.59 104.267 1170.19 101.2C1175.92 98 1182.45 96.4 1189.79 96.4C1202.05 96.4 1211.52 100.267 1218.19 108C1224.99 115.733 1228.39 127.067 1228.39 142V198H1202.99V144.4C1202.99 135.867 1201.25 129.333 1197.79 124.8C1194.45 120.267 1189.12 118 1181.79 118C1174.59 118 1168.59 120.533 1163.79 125.6C1159.12 130.667 1156.79 137.733 1156.79 146.8V198H1131.19ZM1290.07 200.4C1277.67 200.4 1268.07 196.533 1261.27 188.8C1254.6 181.067 1251.27 169.733 1251.27 154.8V98.8H1276.67V152.4C1276.67 160.933 1278.4 167.467 1281.87 172C1285.33 176.533 1290.8 178.8 1298.27 178.8C1305.33 178.8 1311.13 176.267 1315.67 171.2C1320.33 166.133 1322.67 159.067 1322.67 150V98.8H1348.27V198H1325.67L1323.67 181.2C1320.6 187.067 1316.13 191.733 1310.27 195.2C1304.53 198.667 1297.8 200.4 1290.07 200.4ZM1433.35 200.4C1425.88 200.4 1419.35 199 1413.75 196.2C1408.15 193.4 1403.61 189.467 1400.15 184.4L1397.35 198H1374.55V54H1400.15V113C1403.35 108.6 1407.55 104.733 1412.75 101.4C1418.08 98.0667 1424.95 96.4 1433.35 96.4C1442.68 96.4 1451.01 98.6667 1458.35 103.2C1465.68 107.733 1471.48 113.933 1475.75 121.8C1480.01 129.667 1482.15 138.6 1482.15 148.6C1482.15 158.6 1480.01 167.533 1475.75 175.4C1471.48 183.133 1465.68 189.267 1458.35 193.8C1451.01 198.2 1442.68 200.4 1433.35 200.4ZM1427.95 178C1436.08 178 1442.81 175.267 1448.15 169.8C1453.48 164.333 1456.15 157.267 1456.15 148.6C1456.15 139.933 1453.48 132.8 1448.15 127.2C1442.81 121.6 1436.08 118.8 1427.95 118.8C1419.68 118.8 1412.88 121.6 1407.55 127.2C1402.35 132.667 1399.75 139.733 1399.75 148.4C1399.75 157.067 1402.35 164.2 1407.55 169.8C1412.88 175.267 1419.68 178 1427.95 178ZM1553.27 198V58H1604.67C1615.87 58 1625.07 59.9333 1632.27 63.8C1639.61 67.5333 1645.07 72.6667 1648.67 79.2C1652.27 85.6 1654.07 92.7333 1654.07 100.6C1654.07 109.133 1651.81 116.933 1647.27 124C1642.87 131.067 1635.94 136.2 1626.47 139.4L1655.47 198H1626.07L1600.07 142.8H1578.87V198H1553.27ZM1578.87 124H1603.07C1611.61 124 1617.87 121.933 1621.87 117.8C1625.87 113.667 1627.87 108.2 1627.87 101.4C1627.87 94.7333 1625.87 89.4 1621.87 85.4C1618.01 81.4 1611.67 79.4 1602.87 79.4H1578.87V124ZM1719.43 200.4C1709.43 200.4 1700.56 198.267 1692.83 194C1685.09 189.733 1679.03 183.733 1674.63 176C1670.23 168.267 1668.03 159.333 1668.03 149.2C1668.03 138.933 1670.16 129.8 1674.43 121.8C1678.83 113.8 1684.83 107.6 1692.43 103.2C1700.16 98.6667 1709.23 96.4 1719.63 96.4C1729.36 96.4 1737.96 98.5333 1745.43 102.8C1752.89 107.067 1758.69 112.933 1762.83 120.4C1767.09 127.733 1769.23 135.933 1769.23 145C1769.23 146.467 1769.16 148 1769.03 149.6C1769.03 151.2 1768.96 152.867 1768.83 154.6H1693.43C1693.96 162.333 1696.63 168.4 1701.43 172.8C1706.36 177.2 1712.29 179.4 1719.23 179.4C1724.43 179.4 1728.76 178.267 1732.23 176C1735.83 173.6 1738.49 170.533 1740.23 166.8H1766.23C1764.36 173.067 1761.23 178.8 1756.83 184C1752.56 189.067 1747.23 193.067 1740.83 196C1734.56 198.933 1727.43 200.4 1719.43 200.4ZM1719.63 117.2C1713.36 117.2 1707.83 119 1703.03 122.6C1698.23 126.067 1695.16 131.4 1693.83 138.6H1743.23C1742.83 132.067 1740.43 126.867 1736.03 123C1731.63 119.133 1726.16 117.2 1719.63 117.2ZM1790.76 242V98.8H1813.56L1816.36 113C1819.56 108.6 1823.76 104.733 1828.96 101.4C1834.29 98.0667 1841.16 96.4 1849.56 96.4C1858.89 96.4 1867.22 98.6667 1874.56 103.2C1881.89 107.733 1887.69 113.933 1891.96 121.8C1896.22 129.667 1898.36 138.6 1898.36 148.6C1898.36 158.6 1896.22 167.533 1891.96 175.4C1887.69 183.133 1881.89 189.267 1874.56 193.8C1867.22 198.2 1858.89 200.4 1849.56 200.4C1842.09 200.4 1835.56 199 1829.96 196.2C1824.36 193.4 1819.82 189.467 1816.36 184.4V242H1790.76ZM1844.16 178C1852.29 178 1859.02 175.267 1864.36 169.8C1869.69 164.333 1872.36 157.267 1872.36 148.6C1872.36 139.933 1869.69 132.8 1864.36 127.2C1859.02 121.6 1852.29 118.8 1844.16 118.8C1835.89 118.8 1829.09 121.6 1823.76 127.2C1818.56 132.667 1815.96 139.733 1815.96 148.4C1815.96 157.067 1818.56 164.2 1823.76 169.8C1829.09 175.267 1835.89 178 1844.16 178ZM1968.83 200.4C1959.23 200.4 1950.56 198.2 1942.83 193.8C1935.23 189.4 1929.16 183.333 1924.63 175.6C1920.23 167.733 1918.03 158.667 1918.03 148.4C1918.03 138.133 1920.29 129.133 1924.83 121.4C1929.36 113.533 1935.43 107.4 1943.03 103C1950.76 98.6 1959.43 96.4 1969.03 96.4C1978.49 96.4 1987.03 98.6 1994.63 103C2002.36 107.4 2008.43 113.533 2012.83 121.4C2017.36 129.133 2019.63 138.133 2019.63 148.4C2019.63 158.667 2017.36 167.733 2012.83 175.6C2008.43 183.333 2002.36 189.4 1994.63 193.8C1986.89 198.2 1978.29 200.4 1968.83 200.4ZM1968.83 178.2C1975.49 178.2 1981.29 175.733 1986.23 170.8C1991.16 165.733 1993.63 158.267 1993.63 148.4C1993.63 138.533 1991.16 131.133 1986.23 126.2C1981.29 121.133 1975.56 118.6 1969.03 118.6C1962.23 118.6 1956.36 121.133 1951.43 126.2C1946.63 131.133 1944.23 138.533 1944.23 148.4C1944.23 158.267 1946.63 165.733 1951.43 170.8C1956.36 175.733 1962.16 178.2 1968.83 178.2Z" fill="black"/>
<path d="M4271.6 198V58H4302L4346.6 146.8L4390.6 58H4421V198H4395.4V101.4L4356.4 178H4336.2L4297.2 101.4V198H4271.6ZM4459.96 242L4482.96 191.4H4476.96L4438.36 98.8H4466.16L4493.96 168.6L4522.96 98.8H4550.16L4487.16 242H4459.96ZM4678.55 200.4C4664.42 200.4 4652.29 197.4 4642.15 191.4C4632.02 185.267 4624.22 176.8 4618.75 166C4613.29 155.067 4610.55 142.467 4610.55 128.2C4610.55 113.933 4613.29 101.333 4618.75 90.4C4624.22 79.4667 4632.02 70.9333 4642.15 64.8C4652.29 58.6667 4664.42 55.6 4678.55 55.6C4695.35 55.6 4709.09 59.8 4719.75 68.2C4730.55 76.4667 4737.29 88.1333 4739.95 103.2H4711.75C4710.02 95.6 4706.29 89.6667 4700.55 85.4C4694.95 81 4687.49 78.8 4678.15 78.8C4665.22 78.8 4655.09 83.2 4647.75 92C4640.42 100.8 4636.75 112.867 4636.75 128.2C4636.75 143.533 4640.42 155.6 4647.75 164.4C4655.09 173.067 4665.22 177.4 4678.15 177.4C4687.49 177.4 4694.95 175.4 4700.55 171.4C4706.29 167.267 4710.02 161.6 4711.75 154.4H4739.95C4737.29 168.8 4730.55 180.067 4719.75 188.2C4709.09 196.333 4695.35 200.4 4678.55 200.4ZM4809.62 200.4C4800.02 200.4 4791.35 198.2 4783.62 193.8C4776.02 189.4 4769.95 183.333 4765.42 175.6C4761.02 167.733 4758.82 158.667 4758.82 148.4C4758.82 138.133 4761.08 129.133 4765.62 121.4C4770.15 113.533 4776.22 107.4 4783.82 103C4791.55 98.6 4800.22 96.4 4809.82 96.4C4819.28 96.4 4827.82 98.6 4835.42 103C4843.15 107.4 4849.22 113.533 4853.62 121.4C4858.15 129.133 4860.42 138.133 4860.42 148.4C4860.42 158.667 4858.15 167.733 4853.62 175.6C4849.22 183.333 4843.15 189.4 4835.42 193.8C4827.68 198.2 4819.08 200.4 4809.62 200.4ZM4809.62 178.2C4816.28 178.2 4822.08 175.733 4827.02 170.8C4831.95 165.733 4834.42 158.267 4834.42 148.4C4834.42 138.533 4831.95 131.133 4827.02 126.2C4822.08 121.133 4816.35 118.6 4809.82 118.6C4803.02 118.6 4797.15 121.133 4792.22 126.2C4787.42 131.133 4785.02 138.533 4785.02 148.4C4785.02 158.267 4787.42 165.733 4792.22 170.8C4797.15 175.733 4802.95 178.2 4809.62 178.2ZM4883.3 198V98.8H4905.9L4908.1 112.2C4911.3 107.4 4915.5 103.6 4920.7 100.8C4926.04 97.8667 4932.17 96.4 4939.1 96.4C4954.44 96.4 4965.3 102.333 4971.7 114.2C4975.3 108.733 4980.1 104.4 4986.1 101.2C4992.24 98 4998.9 96.4 5006.1 96.4C5019.04 96.4 5028.97 100.267 5035.9 108C5042.84 115.733 5046.3 127.067 5046.3 142V198H5020.7V144.4C5020.7 135.867 5019.04 129.333 5015.7 124.8C5012.5 120.267 5007.5 118 5000.7 118C4993.77 118 4988.17 120.533 4983.9 125.6C4979.77 130.667 4977.7 137.733 4977.7 146.8V198H4952.1V144.4C4952.1 135.867 4950.44 129.333 4947.1 124.8C4943.77 120.267 4938.64 118 4931.7 118C4924.9 118 4919.37 120.533 4915.1 125.6C4910.97 130.667 4908.9 137.733 4908.9 146.8V198H4883.3ZM5070.61 242V98.8H5093.41L5096.21 113C5099.41 108.6 5103.61 104.733 5108.81 101.4C5114.14 98.0667 5121.01 96.4 5129.41 96.4C5138.74 96.4 5147.08 98.6667 5154.41 103.2C5161.74 107.733 5167.54 113.933 5171.81 121.8C5176.08 129.667 5178.21 138.6 5178.21 148.6C5178.21 158.6 5176.08 167.533 5171.81 175.4C5167.54 183.133 5161.74 189.267 5154.41 193.8C5147.08 198.2 5138.74 200.4 5129.41 200.4C5121.94 200.4 5115.41 199 5109.81 196.2C5104.21 193.4 5099.68 189.467 5096.21 184.4V242H5070.61ZM5124.01 178C5132.14 178 5138.88 175.267 5144.21 169.8C5149.54 164.333 5152.21 157.267 5152.21 148.6C5152.21 139.933 5149.54 132.8 5144.21 127.2C5138.88 121.6 5132.14 118.8 5124.01 118.8C5115.74 118.8 5108.94 121.6 5103.61 127.2C5098.41 132.667 5095.81 139.733 5095.81 148.4C5095.81 157.067 5098.41 164.2 5103.61 169.8C5108.94 175.267 5115.74 178 5124.01 178ZM5238.28 200.4C5225.88 200.4 5216.28 196.533 5209.48 188.8C5202.81 181.067 5199.48 169.733 5199.48 154.8V98.8H5224.88V152.4C5224.88 160.933 5226.61 167.467 5230.08 172C5233.54 176.533 5239.01 178.8 5246.48 178.8C5253.54 178.8 5259.34 176.267 5263.88 171.2C5268.54 166.133 5270.88 159.067 5270.88 150V98.8H5296.48V198H5273.88L5271.88 181.2C5268.81 187.067 5264.34 191.733 5258.48 195.2C5252.74 198.667 5246.01 200.4 5238.28 200.4ZM5366.96 198C5356.56 198 5348.22 195.467 5341.96 190.4C5335.69 185.333 5332.56 176.333 5332.56 163.4V120.2H5315.56V98.8H5332.56L5335.56 72.2H5358.16V98.8H5384.96V120.2H5358.16V163.6C5358.16 168.4 5359.16 171.733 5361.16 173.6C5363.29 175.333 5366.89 176.2 5371.96 176.2H5384.36V198H5366.96ZM5452.6 200.4C5442.6 200.4 5433.73 198.267 5426 194C5418.27 189.733 5412.2 183.733 5407.8 176C5403.4 168.267 5401.2 159.333 5401.2 149.2C5401.2 138.933 5403.33 129.8 5407.6 121.8C5412 113.8 5418 107.6 5425.6 103.2C5433.33 98.6667 5442.4 96.4 5452.8 96.4C5462.53 96.4 5471.13 98.5333 5478.6 102.8C5486.07 107.067 5491.87 112.933 5496 120.4C5500.27 127.733 5502.4 135.933 5502.4 145C5502.4 146.467 5502.33 148 5502.2 149.6C5502.2 151.2 5502.13 152.867 5502 154.6H5426.6C5427.13 162.333 5429.8 168.4 5434.6 172.8C5439.53 177.2 5445.47 179.4 5452.4 179.4C5457.6 179.4 5461.93 178.267 5465.4 176C5469 173.6 5471.67 170.533 5473.4 166.8H5499.4C5497.53 173.067 5494.4 178.8 5490 184C5485.73 189.067 5480.4 193.067 5474 196C5467.73 198.933 5460.6 200.4 5452.6 200.4ZM5452.8 117.2C5446.53 117.2 5441 119 5436.2 122.6C5431.4 126.067 5428.33 131.4 5427 138.6H5476.4C5476 132.067 5473.6 126.867 5469.2 123C5464.8 119.133 5459.33 117.2 5452.8 117.2ZM5523.93 198V98.8H5546.73L5549.13 117.4C5552.73 111 5557.6 105.933 5563.73 102.2C5570 98.3333 5577.33 96.4 5585.73 96.4V123.4H5578.53C5572.93 123.4 5567.93 124.267 5563.53 126C5559.13 127.733 5555.66 130.733 5553.13 135C5550.73 139.267 5549.53 145.2 5549.53 152.8V198H5523.93Z" fill="black"/>
</svg>
