<svg width="5454" height="1287" viewBox="0 0 5454 1287" fill="none" xmlns="http://www.w3.org/2000/svg">
<rect y="554" width="400" height="400" rx="200" fill="#3498DB"/>
<rect x="1228" y="554" width="400" height="400" rx="200" fill="#3498DB"/>
<rect x="400" y="744" width="828" height="21" fill="#545454"/>
<rect x="1628" y="744" width="828" height="21" fill="#545454"/>
<rect x="2824" y="744" width="828" height="21" fill="#545454"/>
<rect x="2628.84" y="492.213" width="370" height="370" rx="185" transform="rotate(45 2628.84 492.213)" fill="#3498DB" stroke="#FF6347" stroke-width="30"/>
<path d="M2526.37 789L2551.71 732.264H2518.59V721.8H2564.38V730.536L2539.14 789H2526.37ZM2576.76 789V751.656H2570.23V741.384H2576.76V735.816C2576.76 730.056 2578.2 725.96 2581.08 723.528C2584.02 721.096 2587.99 719.88 2592.98 719.88H2598.26V730.344H2594.9C2592.79 730.344 2591.29 730.76 2590.39 731.592C2589.5 732.424 2589.05 733.832 2589.05 735.816V741.384H2599.32V751.656H2589.05V789H2576.76ZM2625.37 774.792C2623.06 774.792 2620.92 774.536 2618.94 774.024L2615.38 777.576C2616.47 778.152 2617.94 778.632 2619.8 779.016C2621.66 779.4 2624.66 779.784 2628.82 780.168C2635.16 780.744 2639.77 782.248 2642.65 784.68C2645.53 787.112 2646.97 790.472 2646.97 794.76C2646.97 797.576 2646.2 800.232 2644.66 802.728C2643.13 805.288 2640.76 807.336 2637.56 808.872C2634.36 810.472 2630.26 811.272 2625.27 811.272C2618.49 811.272 2613.02 809.992 2608.86 807.432C2604.7 804.936 2602.62 801.16 2602.62 796.104C2602.62 791.816 2604.7 788.104 2608.86 784.968C2607.58 784.392 2606.46 783.784 2605.5 783.144C2604.6 782.504 2603.8 781.832 2603.1 781.128V778.92L2611.45 770.088C2607.74 766.824 2605.88 762.632 2605.88 757.512C2605.88 754.312 2606.65 751.4 2608.18 748.776C2609.78 746.152 2612.02 744.072 2614.9 742.536C2617.78 741 2621.27 740.232 2625.37 740.232C2628.06 740.232 2630.55 740.616 2632.86 741.384H2650.9V748.872L2642.74 749.448C2644.02 751.88 2644.66 754.568 2644.66 757.512C2644.66 760.712 2643.9 763.624 2642.36 766.248C2640.82 768.872 2638.58 770.952 2635.64 772.488C2632.76 774.024 2629.34 774.792 2625.37 774.792ZM2625.37 765.384C2627.86 765.384 2629.91 764.712 2631.51 763.368C2633.18 762.024 2634.01 760.104 2634.01 757.608C2634.01 755.112 2633.18 753.192 2631.51 751.848C2629.91 750.504 2627.86 749.832 2625.37 749.832C2622.74 749.832 2620.63 750.504 2619.03 751.848C2617.43 753.192 2616.63 755.112 2616.63 757.608C2616.63 760.104 2617.43 762.024 2619.03 763.368C2620.63 764.712 2622.74 765.384 2625.37 765.384ZM2613.85 794.856C2613.85 797.224 2614.94 798.984 2617.11 800.136C2619.35 801.352 2622.07 801.96 2625.27 801.96C2628.34 801.96 2630.84 801.32 2632.76 800.04C2634.68 798.824 2635.64 797.16 2635.64 795.048C2635.64 793.32 2635 791.88 2633.72 790.728C2632.5 789.576 2630.04 788.872 2626.33 788.616C2623.7 788.424 2621.27 788.136 2619.03 787.752C2617.18 788.776 2615.83 789.896 2615 791.112C2614.23 792.328 2613.85 793.576 2613.85 794.856ZM2687.71 790.152C2681.5 790.152 2676.19 788.712 2671.77 785.832C2667.35 782.888 2663.93 778.824 2661.5 773.64C2659.13 768.392 2657.95 762.312 2657.95 755.4C2657.95 748.552 2659.13 742.504 2661.5 737.256C2663.93 732.008 2667.35 727.944 2671.77 725.064C2676.19 722.12 2681.5 720.648 2687.71 720.648C2693.91 720.648 2699.23 722.12 2703.64 725.064C2708.06 727.944 2711.45 732.008 2713.82 737.256C2716.25 742.504 2717.47 748.552 2717.47 755.4C2717.47 762.312 2716.25 768.392 2713.82 773.64C2711.45 778.824 2708.06 782.888 2703.64 785.832C2699.23 788.712 2693.91 790.152 2687.71 790.152ZM2687.71 779.112C2692.76 779.112 2696.89 777 2700.09 772.776C2703.29 768.552 2704.89 762.76 2704.89 755.4C2704.89 748.04 2703.29 742.248 2700.09 738.024C2696.89 733.8 2692.76 731.688 2687.71 731.688C2682.59 731.688 2678.43 733.8 2675.23 738.024C2672.09 742.248 2670.52 748.04 2670.52 755.4C2670.52 762.76 2672.09 768.552 2675.23 772.776C2678.43 777 2682.59 779.112 2687.71 779.112ZM2729.46 789.672C2727.22 789.672 2725.36 788.968 2723.89 787.56C2722.48 786.152 2721.78 784.456 2721.78 782.472C2721.78 780.424 2722.48 778.696 2723.89 777.288C2725.36 775.88 2727.22 775.176 2729.46 775.176C2731.7 775.176 2733.52 775.88 2734.93 777.288C2736.4 778.696 2737.14 780.424 2737.14 782.472C2737.14 784.456 2736.4 786.152 2734.93 787.56C2733.52 788.968 2731.7 789.672 2729.46 789.672ZM2752.52 789.672C2750.28 789.672 2748.42 788.968 2746.95 787.56C2745.54 786.152 2744.84 784.456 2744.84 782.472C2744.84 780.424 2745.54 778.696 2746.95 777.288C2748.42 775.88 2750.28 775.176 2752.52 775.176C2754.76 775.176 2756.58 775.88 2757.99 777.288C2759.46 778.696 2760.2 780.424 2760.2 782.472C2760.2 784.456 2759.46 786.152 2757.99 787.56C2756.58 788.968 2754.76 789.672 2752.52 789.672Z" fill="white"/>
<rect x="3839.84" y="471" width="400" height="400" rx="200" transform="rotate(45 3839.84 471)" fill="#FF6347"/>
<rect x="4583" width="451" height="196" rx="20" fill="#2ECC71"/>
<path d="M4644.7 142V52.4H4661.09V89.648H4701.28V52.4H4717.66V142H4701.28V102.96H4661.09V142H4644.7ZM4735.08 142V52.4H4793.58V65.584H4751.46V90.16H4789.74V102.96H4751.46V128.816H4793.58V142H4735.08ZM4803.32 142L4836.09 52.4H4854.52L4887.29 142H4869.88L4862.71 121.264H4827.77L4820.47 142H4803.32ZM4832.25 108.464H4858.23L4845.18 71.216L4832.25 108.464ZM4898.83 142V52.4H4929.42C4939.92 52.4 4948.54 54.2773 4955.28 58.032C4962.1 61.7013 4967.14 66.9067 4970.38 73.648C4973.71 80.304 4975.37 88.1547 4975.37 97.2C4975.37 106.245 4973.71 114.139 4970.38 120.88C4967.14 127.536 4962.1 132.741 4955.28 136.496C4948.54 140.165 4939.92 142 4929.42 142H4898.83ZM4915.21 127.92H4928.65C4936.16 127.92 4942.09 126.725 4946.45 124.336C4950.8 121.861 4953.91 118.363 4955.79 113.84C4957.67 109.232 4958.61 103.685 4958.61 97.2C4958.61 90.8 4957.67 85.296 4955.79 80.688C4953.91 76.08 4950.8 72.5387 4946.45 70.064C4942.09 67.5893 4936.16 66.352 4928.65 66.352H4915.21V127.92Z" fill="white"/>
<rect x="4235.89" y="63.1356" width="4.43438" height="53.39" transform="rotate(45 4235.89 63.1356)" fill="black" stroke="black" stroke-width="4.43438"/>
<rect x="4448.75" y="98.5098" width="4.5" height="240.5" transform="rotate(90 4448.75 98.5098)" fill="black" stroke="black" stroke-width="4.5"/>
<rect x="4239.02" y="135.504" width="4.43438" height="53.39" transform="rotate(135 4239.02 135.504)" fill="black" stroke="black" stroke-width="4.43438"/>
<rect x="4583" width="451" height="196" rx="20" fill="#2ECC71"/>
<path d="M4644.7 142V52.4H4661.09V89.648H4701.28V52.4H4717.66V142H4701.28V102.96H4661.09V142H4644.7ZM4735.08 142V52.4H4793.58V65.584H4751.46V90.16H4789.74V102.96H4751.46V128.816H4793.58V142H4735.08ZM4803.32 142L4836.09 52.4H4854.52L4887.29 142H4869.88L4862.71 121.264H4827.77L4820.47 142H4803.32ZM4832.25 108.464H4858.23L4845.18 71.216L4832.25 108.464ZM4898.83 142V52.4H4929.42C4939.92 52.4 4948.54 54.2773 4955.28 58.032C4962.1 61.7013 4967.14 66.9067 4970.38 73.648C4973.71 80.304 4975.37 88.1547 4975.37 97.2C4975.37 106.245 4973.71 114.139 4970.38 120.88C4967.14 127.536 4962.1 132.741 4955.28 136.496C4948.54 140.165 4939.92 142 4929.42 142H4898.83ZM4915.21 127.92H4928.65C4936.16 127.92 4942.09 126.725 4946.45 124.336C4950.8 121.861 4953.91 118.363 4955.79 113.84C4957.67 109.232 4958.61 103.685 4958.61 97.2C4958.61 90.8 4957.67 85.296 4955.79 80.688C4953.91 76.08 4950.8 72.5387 4946.45 70.064C4942.09 67.5893 4936.16 66.352 4928.65 66.352H4915.21V127.92Z" fill="white"/>
<rect x="3802.14" y="466.113" width="4.43438" height="53.39" transform="rotate(-45 3802.14 466.113)" fill="black" stroke="black" stroke-width="4.43438"/>
<rect x="3837.51" y="253.25" width="4.5" height="240.5" fill="black" stroke="black" stroke-width="4.5"/>
<rect x="3874.5" y="462.975" width="4.43438" height="53.39" transform="rotate(45 3874.5 462.975)" fill="black" stroke="black" stroke-width="4.43438"/>
<rect x="3619" y="5" width="441" height="186" rx="15" fill="white" stroke="#3498DB" stroke-width="10"/>
<path d="M3698.7 142V52.4H3718.16L3746.7 109.232L3774.86 52.4H3794.32V142H3777.94V80.176L3752.98 129.2H3740.05L3715.09 80.176V142H3698.7ZM3833.21 143.536C3827.75 143.536 3823.27 142.683 3819.77 140.976C3816.27 139.184 3813.67 136.837 3811.96 133.936C3810.25 131.035 3809.4 127.835 3809.4 124.336C3809.4 118.448 3811.7 113.669 3816.31 110C3820.92 106.331 3827.83 104.496 3837.05 104.496H3853.18V102.96C3853.18 98.608 3851.94 95.408 3849.46 93.36C3846.99 91.312 3843.92 90.288 3840.25 90.288C3836.92 90.288 3834.02 91.0987 3831.54 92.72C3829.07 94.256 3827.53 96.56 3826.94 99.632H3810.94C3811.36 95.024 3812.9 91.0133 3815.54 87.6C3818.27 84.1867 3821.77 81.584 3826.04 79.792C3830.31 77.9147 3835.09 76.976 3840.38 76.976C3849.42 76.976 3856.55 79.2373 3861.75 83.76C3866.96 88.2827 3869.56 94.6827 3869.56 102.96V142H3855.61L3854.07 131.76C3852.19 135.173 3849.55 137.989 3846.14 140.208C3842.81 142.427 3838.5 143.536 3833.21 143.536ZM3836.92 130.736C3841.61 130.736 3845.24 129.2 3847.8 126.128C3850.45 123.056 3852.11 119.259 3852.79 114.736H3838.84C3834.49 114.736 3831.37 115.547 3829.5 117.168C3827.62 118.704 3826.68 120.624 3826.68 122.928C3826.68 125.403 3827.62 127.323 3829.5 128.688C3831.37 130.053 3833.85 130.736 3836.92 130.736ZM3894.03 68.656C3891.04 68.656 3888.57 67.76 3886.6 65.968C3884.73 64.176 3883.79 61.9147 3883.79 59.184C3883.79 56.4533 3884.73 54.2347 3886.6 52.528C3888.57 50.736 3891.04 49.84 3894.03 49.84C3897.01 49.84 3899.45 50.736 3901.32 52.528C3903.29 54.2347 3904.27 56.4533 3904.27 59.184C3904.27 61.9147 3903.29 64.176 3901.32 65.968C3899.45 67.76 3897.01 68.656 3894.03 68.656ZM3885.84 142V78.512H3902.22V142H3885.84ZM3919.32 142V78.512H3933.78L3935.06 89.264C3937.03 85.5093 3939.84 82.5227 3943.51 80.304C3947.27 78.0853 3951.66 76.976 3956.7 76.976C3964.55 76.976 3970.65 79.4507 3975 84.4C3979.35 89.3493 3981.53 96.6027 3981.53 106.16V142H3965.14V107.696C3965.14 102.235 3964.03 98.0533 3961.82 95.152C3959.6 92.2507 3956.14 90.8 3951.45 90.8C3946.84 90.8 3943.04 92.4213 3940.06 95.664C3937.15 98.9067 3935.7 103.429 3935.7 109.232V142H3919.32Z" fill="#3498DB"/>
<path d="M3674.18 1132V1074.69H3654.59V1064.8H3706.14V1074.69H3686.46V1132H3674.18ZM3714.96 1132V1062.88H3727.25V1091.68C3728.85 1089.06 3730.99 1087.01 3733.68 1085.54C3736.43 1084 3739.57 1083.23 3743.09 1083.23C3748.97 1083.23 3753.52 1085.09 3756.72 1088.8C3759.98 1092.51 3761.61 1097.95 3761.61 1105.12V1132H3749.42V1106.27C3749.42 1102.18 3748.59 1099.04 3746.93 1096.86C3745.33 1094.69 3742.77 1093.6 3739.25 1093.6C3735.79 1093.6 3732.91 1094.82 3730.61 1097.25C3728.37 1099.68 3727.25 1103.07 3727.25 1107.42V1132H3714.96ZM3779.99 1076.99C3777.75 1076.99 3775.89 1076.32 3774.42 1074.98C3773.01 1073.63 3772.31 1071.94 3772.31 1069.89C3772.31 1067.84 3773.01 1066.18 3774.42 1064.9C3775.89 1063.55 3777.75 1062.88 3779.99 1062.88C3782.23 1062.88 3784.05 1063.55 3785.46 1064.9C3786.93 1066.18 3787.67 1067.84 3787.67 1069.89C3787.67 1071.94 3786.93 1073.63 3785.46 1074.98C3784.05 1076.32 3782.23 1076.99 3779.99 1076.99ZM3773.85 1132V1084.38H3786.13V1132H3773.85ZM3818.64 1133.15C3814.41 1133.15 3810.7 1132.48 3807.5 1131.14C3804.3 1129.73 3801.74 1127.81 3799.82 1125.38C3797.9 1122.94 3796.75 1120.13 3796.37 1116.93H3808.75C3809.13 1118.78 3810.16 1120.38 3811.82 1121.73C3813.55 1123.01 3815.76 1123.65 3818.45 1123.65C3821.13 1123.65 3823.09 1123.1 3824.3 1122.02C3825.58 1120.93 3826.22 1119.68 3826.22 1118.27C3826.22 1116.22 3825.33 1114.85 3823.53 1114.14C3821.74 1113.38 3819.25 1112.64 3816.05 1111.94C3814 1111.49 3811.92 1110.94 3809.81 1110.3C3807.69 1109.66 3805.74 1108.86 3803.95 1107.9C3802.22 1106.88 3800.81 1105.6 3799.73 1104.06C3798.64 1102.46 3798.09 1100.51 3798.09 1098.21C3798.09 1093.98 3799.76 1090.43 3803.09 1087.55C3806.48 1084.67 3811.21 1083.23 3817.29 1083.23C3822.93 1083.23 3827.41 1084.54 3830.73 1087.17C3834.13 1089.79 3836.14 1093.41 3836.78 1098.02H3825.17C3824.46 1094.5 3821.81 1092.74 3817.2 1092.74C3814.89 1092.74 3813.1 1093.18 3811.82 1094.08C3810.61 1094.98 3810 1096.1 3810 1097.44C3810 1098.85 3810.93 1099.97 3812.78 1100.8C3814.64 1101.63 3817.1 1102.4 3820.17 1103.1C3823.5 1103.87 3826.54 1104.74 3829.29 1105.7C3832.11 1106.59 3834.35 1107.97 3836.01 1109.82C3837.68 1111.62 3838.51 1114.21 3838.51 1117.6C3838.57 1120.54 3837.81 1123.2 3836.21 1125.57C3834.61 1127.94 3832.3 1129.79 3829.29 1131.14C3826.29 1132.48 3822.73 1133.15 3818.64 1133.15ZM3872.27 1132V1084.38H3883.12L3884.08 1092.45C3885.55 1089.63 3887.66 1087.39 3890.42 1085.73C3893.23 1084.06 3896.53 1083.23 3900.3 1083.23C3906.19 1083.23 3910.77 1085.09 3914.03 1088.8C3917.3 1092.51 3918.93 1097.95 3918.93 1105.12V1132H3906.64V1106.27C3906.64 1102.18 3905.81 1099.04 3904.14 1096.86C3902.48 1094.69 3899.89 1093.6 3896.37 1093.6C3892.91 1093.6 3890.06 1094.82 3887.82 1097.25C3885.65 1099.68 3884.56 1103.07 3884.56 1107.42V1132H3872.27ZM3953.81 1133.15C3949.01 1133.15 3944.76 1132.13 3941.05 1130.08C3937.33 1128.03 3934.42 1125.15 3932.31 1121.44C3930.2 1117.73 3929.14 1113.44 3929.14 1108.58C3929.14 1103.65 3930.17 1099.26 3932.21 1095.42C3934.33 1091.58 3937.21 1088.61 3940.85 1086.5C3944.57 1084.32 3948.92 1083.23 3953.91 1083.23C3958.58 1083.23 3962.71 1084.26 3966.29 1086.3C3969.88 1088.35 3972.66 1091.17 3974.65 1094.75C3976.69 1098.27 3977.72 1102.21 3977.72 1106.56C3977.72 1107.26 3977.69 1108 3977.62 1108.77C3977.62 1109.54 3977.59 1110.34 3977.53 1111.17H3941.33C3941.59 1114.88 3942.87 1117.79 3945.17 1119.9C3947.54 1122.02 3950.39 1123.07 3953.72 1123.07C3956.21 1123.07 3958.29 1122.53 3959.96 1121.44C3961.69 1120.29 3962.97 1118.82 3963.8 1117.02H3976.28C3975.38 1120.03 3973.88 1122.78 3971.77 1125.28C3969.72 1127.71 3967.16 1129.63 3964.09 1131.04C3961.08 1132.45 3957.65 1133.15 3953.81 1133.15ZM3953.91 1093.22C3950.9 1093.22 3948.25 1094.08 3945.94 1095.81C3943.64 1097.47 3942.17 1100.03 3941.53 1103.49H3965.24C3965.05 1100.35 3963.89 1097.86 3961.78 1096C3959.67 1094.14 3957.05 1093.22 3953.91 1093.22ZM3995.49 1132L3981.57 1084.38H3993.76L4002.02 1118.66L4011.62 1084.38H4025.25L4034.85 1118.66L4043.2 1084.38H4055.39L4041.38 1132H4028.61L4018.43 1096.38L4008.26 1132H3995.49ZM4109.35 1133.15C4104.49 1133.15 4100.2 1132.1 4096.49 1129.98C4092.77 1127.87 4089.83 1124.93 4087.65 1121.15C4085.54 1117.38 4084.49 1113.06 4084.49 1108.19C4084.49 1103.33 4085.54 1099.01 4087.65 1095.23C4089.83 1091.46 4092.77 1088.51 4096.49 1086.4C4100.2 1084.29 4104.49 1083.23 4109.35 1083.23C4115.43 1083.23 4120.55 1084.83 4124.71 1088.03C4128.87 1091.17 4131.53 1095.52 4132.68 1101.09H4119.72C4119.08 1098.78 4117.8 1096.99 4115.88 1095.71C4114.02 1094.37 4111.81 1093.7 4109.25 1093.7C4105.86 1093.7 4102.98 1094.98 4100.61 1097.54C4098.25 1100.1 4097.06 1103.65 4097.06 1108.19C4097.06 1112.74 4098.25 1116.29 4100.61 1118.85C4102.98 1121.41 4105.86 1122.69 4109.25 1122.69C4111.81 1122.69 4114.02 1122.05 4115.88 1120.77C4117.8 1119.49 4119.08 1117.66 4119.72 1115.3H4132.68C4131.53 1120.67 4128.87 1124.99 4124.71 1128.26C4120.55 1131.52 4115.43 1133.15 4109.35 1133.15ZM4166.43 1133.15C4161.82 1133.15 4157.66 1132.1 4153.95 1129.98C4150.3 1127.87 4147.39 1124.96 4145.22 1121.25C4143.1 1117.47 4142.05 1113.12 4142.05 1108.19C4142.05 1103.26 4143.14 1098.94 4145.31 1095.23C4147.49 1091.46 4150.4 1088.51 4154.05 1086.4C4157.76 1084.29 4161.92 1083.23 4166.53 1083.23C4171.07 1083.23 4175.17 1084.29 4178.82 1086.4C4182.53 1088.51 4185.44 1091.46 4187.55 1095.23C4189.73 1098.94 4190.82 1103.26 4190.82 1108.19C4190.82 1113.12 4189.73 1117.47 4187.55 1121.25C4185.44 1124.96 4182.53 1127.87 4178.82 1129.98C4175.1 1132.1 4170.98 1133.15 4166.43 1133.15ZM4166.43 1122.5C4169.63 1122.5 4172.42 1121.31 4174.78 1118.94C4177.15 1116.51 4178.34 1112.93 4178.34 1108.19C4178.34 1103.46 4177.15 1099.9 4174.78 1097.54C4172.42 1095.1 4169.66 1093.89 4166.53 1093.89C4163.26 1093.89 4160.45 1095.1 4158.08 1097.54C4155.78 1099.9 4154.62 1103.46 4154.62 1108.19C4154.62 1112.93 4155.78 1116.51 4158.08 1118.94C4160.45 1121.31 4163.23 1122.5 4166.43 1122.5ZM4201.8 1132V1084.38H4212.65L4213.71 1090.82C4215.24 1088.51 4217.26 1086.69 4219.75 1085.34C4222.31 1083.94 4225.26 1083.23 4228.59 1083.23C4235.95 1083.23 4241.16 1086.08 4244.23 1091.78C4245.96 1089.15 4248.27 1087.07 4251.15 1085.54C4254.09 1084 4257.29 1083.23 4260.75 1083.23C4266.95 1083.23 4271.72 1085.09 4275.05 1088.8C4278.38 1092.51 4280.04 1097.95 4280.04 1105.12V1132H4267.75V1106.27C4267.75 1102.18 4266.95 1099.04 4265.35 1096.86C4263.82 1094.69 4261.42 1093.6 4258.15 1093.6C4254.83 1093.6 4252.14 1094.82 4250.09 1097.25C4248.11 1099.68 4247.11 1103.07 4247.11 1107.42V1132H4234.83V1106.27C4234.83 1102.18 4234.03 1099.04 4232.43 1096.86C4230.83 1094.69 4228.36 1093.6 4225.03 1093.6C4221.77 1093.6 4219.11 1094.82 4217.07 1097.25C4215.08 1099.68 4214.09 1103.07 4214.09 1107.42V1132H4201.8ZM4291.71 1132V1084.38H4302.56L4303.61 1090.82C4305.15 1088.51 4307.16 1086.69 4309.66 1085.34C4312.22 1083.94 4315.16 1083.23 4318.49 1083.23C4325.85 1083.23 4331.07 1086.08 4334.14 1091.78C4335.87 1089.15 4338.17 1087.07 4341.05 1085.54C4344 1084 4347.2 1083.23 4350.65 1083.23C4356.86 1083.23 4361.63 1085.09 4364.96 1088.8C4368.28 1092.51 4369.95 1097.95 4369.95 1105.12V1132H4357.66V1106.27C4357.66 1102.18 4356.86 1099.04 4355.26 1096.86C4353.72 1094.69 4351.32 1093.6 4348.06 1093.6C4344.73 1093.6 4342.04 1094.82 4340 1097.25C4338.01 1099.68 4337.02 1103.07 4337.02 1107.42V1132H4324.73V1106.27C4324.73 1102.18 4323.93 1099.04 4322.33 1096.86C4320.73 1094.69 4318.27 1093.6 4314.94 1093.6C4311.68 1093.6 4309.02 1094.82 4306.97 1097.25C4304.99 1099.68 4304 1103.07 4304 1107.42V1132H4291.71ZM4388.24 1076.99C4386 1076.99 4384.14 1076.32 4382.67 1074.98C4381.26 1073.63 4380.56 1071.94 4380.56 1069.89C4380.56 1067.84 4381.26 1066.18 4382.67 1064.9C4384.14 1063.55 4386 1062.88 4388.24 1062.88C4390.48 1062.88 4392.3 1063.55 4393.71 1064.9C4395.18 1066.18 4395.92 1067.84 4395.92 1069.89C4395.92 1071.94 4395.18 1073.63 4393.71 1074.98C4392.3 1076.32 4390.48 1076.99 4388.24 1076.99ZM4382.1 1132V1084.38H4394.38V1132H4382.1ZM4428.42 1132C4423.43 1132 4419.43 1130.78 4416.42 1128.35C4413.42 1125.92 4411.91 1121.6 4411.91 1115.39V1094.66H4403.75V1084.38H4411.91L4413.35 1071.62H4424.2V1084.38H4437.06V1094.66H4424.2V1115.49C4424.2 1117.79 4424.68 1119.39 4425.64 1120.29C4426.66 1121.12 4428.39 1121.54 4430.82 1121.54H4436.78V1132H4428.42ZM4470.49 1132V1084.38H4481.43L4482.59 1093.31C4484.31 1090.24 4486.65 1087.81 4489.59 1086.02C4492.6 1084.16 4496.12 1083.23 4500.15 1083.23V1096.19H4496.7C4494.01 1096.19 4491.61 1096.61 4489.5 1097.44C4487.39 1098.27 4485.72 1099.71 4484.51 1101.76C4483.35 1103.81 4482.78 1106.66 4482.78 1110.3V1132H4470.49ZM4530.84 1133.15C4526.04 1133.15 4521.79 1132.13 4518.08 1130.08C4514.36 1128.03 4511.45 1125.15 4509.34 1121.44C4507.23 1117.73 4506.17 1113.44 4506.17 1108.58C4506.17 1103.65 4507.2 1099.26 4509.24 1095.42C4511.36 1091.58 4514.24 1088.61 4517.88 1086.5C4521.6 1084.32 4525.95 1083.23 4530.94 1083.23C4535.61 1083.23 4539.74 1084.26 4543.32 1086.3C4546.91 1088.35 4549.69 1091.17 4551.68 1094.75C4553.72 1098.27 4554.75 1102.21 4554.75 1106.56C4554.75 1107.26 4554.72 1108 4554.65 1108.77C4554.65 1109.54 4554.62 1110.34 4554.56 1111.17H4518.36C4518.62 1114.88 4519.9 1117.79 4522.2 1119.9C4524.57 1122.02 4527.42 1123.07 4530.75 1123.07C4533.24 1123.07 4535.32 1122.53 4536.99 1121.44C4538.72 1120.29 4540 1118.82 4540.83 1117.02H4553.31C4552.41 1120.03 4550.91 1122.78 4548.8 1125.28C4546.75 1127.71 4544.19 1129.63 4541.12 1131.04C4538.11 1132.45 4534.68 1133.15 4530.84 1133.15ZM4530.94 1093.22C4527.93 1093.22 4525.28 1094.08 4522.97 1095.81C4520.67 1097.47 4519.2 1100.03 4518.56 1103.49H4542.27C4542.08 1100.35 4540.92 1097.86 4538.81 1096C4536.7 1094.14 4534.08 1093.22 4530.94 1093.22ZM4576.07 1132L4558.6 1084.38H4571.46L4583.56 1120.38L4595.66 1084.38H4608.52L4590.95 1132H4576.07ZM4637.06 1133.15C4632.26 1133.15 4628.01 1132.13 4624.3 1130.08C4620.58 1128.03 4617.67 1125.15 4615.56 1121.44C4613.45 1117.73 4612.39 1113.44 4612.39 1108.58C4612.39 1103.65 4613.42 1099.26 4615.46 1095.42C4617.58 1091.58 4620.46 1088.61 4624.1 1086.5C4627.82 1084.32 4632.17 1083.23 4637.16 1083.23C4641.83 1083.23 4645.96 1084.26 4649.54 1086.3C4653.13 1088.35 4655.91 1091.17 4657.9 1094.75C4659.94 1098.27 4660.97 1102.21 4660.97 1106.56C4660.97 1107.26 4660.94 1108 4660.87 1108.77C4660.87 1109.54 4660.84 1110.34 4660.78 1111.17H4624.58C4624.84 1114.88 4626.12 1117.79 4628.42 1119.9C4630.79 1122.02 4633.64 1123.07 4636.97 1123.07C4639.46 1123.07 4641.54 1122.53 4643.21 1121.44C4644.94 1120.29 4646.22 1118.82 4647.05 1117.02H4659.53C4658.63 1120.03 4657.13 1122.78 4655.02 1125.28C4652.97 1127.71 4650.41 1129.63 4647.34 1131.04C4644.33 1132.45 4640.9 1133.15 4637.06 1133.15ZM4637.16 1093.22C4634.15 1093.22 4631.5 1094.08 4629.19 1095.81C4626.89 1097.47 4625.42 1100.03 4624.78 1103.49H4648.49C4648.3 1100.35 4647.14 1097.86 4645.03 1096C4642.92 1094.14 4640.3 1093.22 4637.16 1093.22ZM4671.3 1132V1084.38H4682.25L4683.4 1093.31C4685.13 1090.24 4687.46 1087.81 4690.41 1086.02C4693.41 1084.16 4696.93 1083.23 4700.97 1083.23V1096.19H4697.51C4694.82 1096.19 4692.42 1096.61 4690.31 1097.44C4688.2 1098.27 4686.53 1099.71 4685.32 1101.76C4684.17 1103.81 4683.59 1106.66 4683.59 1110.3V1132H4671.3ZM4729.05 1133.15C4724.82 1133.15 4721.11 1132.48 4717.91 1131.14C4714.71 1129.73 4712.15 1127.81 4710.23 1125.38C4708.31 1122.94 4707.16 1120.13 4706.77 1116.93H4719.16C4719.54 1118.78 4720.57 1120.38 4722.23 1121.73C4723.96 1123.01 4726.17 1123.65 4728.85 1123.65C4731.54 1123.65 4733.49 1123.1 4734.71 1122.02C4735.99 1120.93 4736.63 1119.68 4736.63 1118.27C4736.63 1116.22 4735.73 1114.85 4733.94 1114.14C4732.15 1113.38 4729.65 1112.64 4726.45 1111.94C4724.41 1111.49 4722.33 1110.94 4720.21 1110.3C4718.1 1109.66 4716.15 1108.86 4714.36 1107.9C4712.63 1106.88 4711.22 1105.6 4710.13 1104.06C4709.05 1102.46 4708.5 1100.51 4708.5 1098.21C4708.5 1093.98 4710.17 1090.43 4713.49 1087.55C4716.89 1084.67 4721.62 1083.23 4727.7 1083.23C4733.33 1083.23 4737.81 1084.54 4741.14 1087.17C4744.53 1089.79 4746.55 1093.41 4747.19 1098.02H4735.57C4734.87 1094.5 4732.21 1092.74 4727.61 1092.74C4725.3 1092.74 4723.51 1093.18 4722.23 1094.08C4721.01 1094.98 4720.41 1096.1 4720.41 1097.44C4720.41 1098.85 4721.33 1099.97 4723.19 1100.8C4725.05 1101.63 4727.51 1102.4 4730.58 1103.1C4733.91 1103.87 4736.95 1104.74 4739.7 1105.7C4742.52 1106.59 4744.76 1107.97 4746.42 1109.82C4748.09 1111.62 4748.92 1114.21 4748.92 1117.6C4748.98 1120.54 4748.21 1123.2 4746.61 1125.57C4745.01 1127.94 4742.71 1129.79 4739.7 1131.14C4736.69 1132.48 4733.14 1133.15 4729.05 1133.15ZM4782.94 1133.15C4778.14 1133.15 4773.88 1132.13 4770.17 1130.08C4766.46 1128.03 4763.55 1125.15 4761.43 1121.44C4759.32 1117.73 4758.27 1113.44 4758.27 1108.58C4758.27 1103.65 4759.29 1099.26 4761.34 1095.42C4763.45 1091.58 4766.33 1088.61 4769.98 1086.5C4773.69 1084.32 4778.04 1083.23 4783.03 1083.23C4787.71 1083.23 4791.83 1084.26 4795.42 1086.3C4799 1088.35 4801.79 1091.17 4803.77 1094.75C4805.82 1098.27 4806.84 1102.21 4806.84 1106.56C4806.84 1107.26 4806.81 1108 4806.75 1108.77C4806.75 1109.54 4806.71 1110.34 4806.65 1111.17H4770.46C4770.71 1114.88 4771.99 1117.79 4774.3 1119.9C4776.67 1122.02 4779.51 1123.07 4782.84 1123.07C4785.34 1123.07 4787.42 1122.53 4789.08 1121.44C4790.81 1120.29 4792.09 1118.82 4792.92 1117.02H4805.4C4804.51 1120.03 4803 1122.78 4800.89 1125.28C4798.84 1127.71 4796.28 1129.63 4793.21 1131.04C4790.2 1132.45 4786.78 1133.15 4782.94 1133.15ZM4783.03 1093.22C4780.03 1093.22 4777.37 1094.08 4775.07 1095.81C4772.76 1097.47 4771.29 1100.03 4770.65 1103.49H4794.36C4794.17 1100.35 4793.02 1097.86 4790.91 1096C4788.79 1094.14 4786.17 1093.22 4783.03 1093.22ZM4836.86 1133.15C4832.63 1133.15 4828.92 1132.48 4825.72 1131.14C4822.52 1129.73 4819.96 1127.81 4818.04 1125.38C4816.12 1122.94 4814.97 1120.13 4814.59 1116.93H4826.97C4827.35 1118.78 4828.38 1120.38 4830.04 1121.73C4831.77 1123.01 4833.98 1123.65 4836.67 1123.65C4839.35 1123.65 4841.31 1123.1 4842.52 1122.02C4843.8 1120.93 4844.44 1119.68 4844.44 1118.27C4844.44 1116.22 4843.55 1114.85 4841.75 1114.14C4839.96 1113.38 4837.47 1112.64 4834.27 1111.94C4832.22 1111.49 4830.14 1110.94 4828.03 1110.3C4825.91 1109.66 4823.96 1108.86 4822.17 1107.9C4820.44 1106.88 4819.03 1105.6 4817.95 1104.06C4816.86 1102.46 4816.31 1100.51 4816.31 1098.21C4816.31 1093.98 4817.98 1090.43 4821.31 1087.55C4824.7 1084.67 4829.43 1083.23 4835.51 1083.23C4841.15 1083.23 4845.63 1084.54 4848.95 1087.17C4852.35 1089.79 4854.36 1093.41 4855 1098.02H4843.39C4842.68 1094.5 4840.03 1092.74 4835.42 1092.74C4833.11 1092.74 4831.32 1093.18 4830.04 1094.08C4828.83 1094.98 4828.22 1096.1 4828.22 1097.44C4828.22 1098.85 4829.15 1099.97 4831 1100.8C4832.86 1101.63 4835.32 1102.4 4838.39 1103.1C4841.72 1103.87 4844.76 1104.74 4847.51 1105.7C4850.33 1106.59 4852.57 1107.97 4854.23 1109.82C4855.9 1111.62 4856.73 1114.21 4856.73 1117.6C4856.79 1120.54 4856.03 1123.2 4854.43 1125.57C4852.83 1127.94 4850.52 1129.79 4847.51 1131.14C4844.51 1132.48 4840.95 1133.15 4836.86 1133.15ZM4911.71 1132C4906.71 1132 4902.71 1130.78 4899.71 1128.35C4896.7 1125.92 4895.19 1121.6 4895.19 1115.39V1094.66H4887.03V1084.38H4895.19L4896.63 1071.62H4907.48V1084.38H4920.35V1094.66H4907.48V1115.49C4907.48 1117.79 4907.96 1119.39 4908.92 1120.29C4909.95 1121.12 4911.67 1121.54 4914.11 1121.54H4920.06V1132H4911.71ZM4930.9 1132V1062.88H4943.18V1091.68C4944.78 1089.06 4946.93 1087.01 4949.62 1085.54C4952.37 1084 4955.5 1083.23 4959.02 1083.23C4964.91 1083.23 4969.46 1085.09 4972.66 1088.8C4975.92 1092.51 4977.55 1097.95 4977.55 1105.12V1132H4965.36V1106.27C4965.36 1102.18 4964.53 1099.04 4962.86 1096.86C4961.26 1094.69 4958.7 1093.6 4955.18 1093.6C4951.73 1093.6 4948.85 1094.82 4946.54 1097.25C4944.3 1099.68 4943.18 1103.07 4943.18 1107.42V1132H4930.9ZM5012.44 1133.15C5007.64 1133.15 5003.38 1132.13 4999.67 1130.08C4995.96 1128.03 4993.05 1125.15 4990.93 1121.44C4988.82 1117.73 4987.77 1113.44 4987.77 1108.58C4987.77 1103.65 4988.79 1099.26 4990.84 1095.42C4992.95 1091.58 4995.83 1088.61 4999.48 1086.5C5003.19 1084.32 5007.54 1083.23 5012.53 1083.23C5017.21 1083.23 5021.33 1084.26 5024.92 1086.3C5028.5 1088.35 5031.29 1091.17 5033.27 1094.75C5035.32 1098.27 5036.34 1102.21 5036.34 1106.56C5036.34 1107.26 5036.31 1108 5036.25 1108.77C5036.25 1109.54 5036.21 1110.34 5036.15 1111.17H4999.96C5000.21 1114.88 5001.49 1117.79 5003.8 1119.9C5006.17 1122.02 5009.01 1123.07 5012.34 1123.07C5014.84 1123.07 5016.92 1122.53 5018.58 1121.44C5020.31 1120.29 5021.59 1118.82 5022.42 1117.02H5034.9C5034.01 1120.03 5032.5 1122.78 5030.39 1125.28C5028.34 1127.71 5025.78 1129.63 5022.71 1131.04C5019.7 1132.45 5016.28 1133.15 5012.44 1133.15ZM5012.53 1093.22C5009.53 1093.22 5006.87 1094.08 5004.57 1095.81C5002.26 1097.47 5000.79 1100.03 5000.15 1103.49H5023.86C5023.67 1100.35 5022.52 1097.86 5020.41 1096C5018.29 1094.14 5015.67 1093.22 5012.53 1093.22ZM5092.88 1133.15C5088.02 1133.15 5083.73 1132.1 5080.02 1129.98C5076.3 1127.87 5073.36 1124.93 5071.18 1121.15C5069.07 1117.38 5068.02 1113.06 5068.02 1108.19C5068.02 1103.33 5069.07 1099.01 5071.18 1095.23C5073.36 1091.46 5076.3 1088.51 5080.02 1086.4C5083.73 1084.29 5088.02 1083.23 5092.88 1083.23C5098.96 1083.23 5104.08 1084.83 5108.24 1088.03C5112.4 1091.17 5115.06 1095.52 5116.21 1101.09H5103.25C5102.61 1098.78 5101.33 1096.99 5099.41 1095.71C5097.55 1094.37 5095.34 1093.7 5092.78 1093.7C5089.39 1093.7 5086.51 1094.98 5084.14 1097.54C5081.78 1100.1 5080.59 1103.65 5080.59 1108.19C5080.59 1112.74 5081.78 1116.29 5084.14 1118.85C5086.51 1121.41 5089.39 1122.69 5092.78 1122.69C5095.34 1122.69 5097.55 1122.05 5099.41 1120.77C5101.33 1119.49 5102.61 1117.66 5103.25 1115.3H5116.21C5115.06 1120.67 5112.4 1124.99 5108.24 1128.26C5104.08 1131.52 5098.96 1133.15 5092.88 1133.15ZM5127.12 1132V1062.88H5139.4V1091.68C5141 1089.06 5143.15 1087.01 5145.84 1085.54C5148.59 1084 5151.72 1083.23 5155.24 1083.23C5161.13 1083.23 5165.68 1085.09 5168.88 1088.8C5172.14 1092.51 5173.77 1097.95 5173.77 1105.12V1132H5161.58V1106.27C5161.58 1102.18 5160.75 1099.04 5159.08 1096.86C5157.48 1094.69 5154.92 1093.6 5151.4 1093.6C5147.95 1093.6 5145.07 1094.82 5142.76 1097.25C5140.52 1099.68 5139.4 1103.07 5139.4 1107.42V1132H5127.12ZM5201.94 1133.15C5197.84 1133.15 5194.48 1132.51 5191.86 1131.23C5189.23 1129.89 5187.28 1128.13 5186 1125.95C5184.72 1123.78 5184.08 1121.38 5184.08 1118.75C5184.08 1114.34 5185.81 1110.75 5189.27 1108C5192.72 1105.25 5197.91 1103.87 5204.82 1103.87H5216.91V1102.72C5216.91 1099.46 5215.99 1097.06 5214.13 1095.52C5212.27 1093.98 5209.97 1093.22 5207.22 1093.22C5204.72 1093.22 5202.55 1093.82 5200.69 1095.04C5198.83 1096.19 5197.68 1097.92 5197.23 1100.22H5185.23C5185.55 1096.77 5186.71 1093.76 5188.69 1091.2C5190.74 1088.64 5193.36 1086.69 5196.56 1085.34C5199.76 1083.94 5203.35 1083.23 5207.31 1083.23C5214.1 1083.23 5219.44 1084.93 5223.35 1088.32C5227.25 1091.71 5229.2 1096.51 5229.2 1102.72V1132H5218.74L5217.59 1124.32C5216.18 1126.88 5214.19 1128.99 5211.63 1130.66C5209.14 1132.32 5205.91 1133.15 5201.94 1133.15ZM5204.72 1123.55C5208.24 1123.55 5210.96 1122.4 5212.88 1120.1C5214.87 1117.79 5216.11 1114.94 5216.63 1111.55H5206.16C5202.9 1111.55 5200.56 1112.16 5199.15 1113.38C5197.75 1114.53 5197.04 1115.97 5197.04 1117.7C5197.04 1119.55 5197.75 1120.99 5199.15 1122.02C5200.56 1123.04 5202.42 1123.55 5204.72 1123.55ZM5240.93 1132V1084.38H5251.78L5252.74 1092.45C5254.21 1089.63 5256.32 1087.39 5259.07 1085.73C5261.89 1084.06 5265.18 1083.23 5268.96 1083.23C5274.85 1083.23 5279.42 1085.09 5282.69 1088.8C5285.95 1092.51 5287.58 1097.95 5287.58 1105.12V1132H5275.3V1106.27C5275.3 1102.18 5274.46 1099.04 5272.8 1096.86C5271.14 1094.69 5268.54 1093.6 5265.02 1093.6C5261.57 1093.6 5258.72 1094.82 5256.48 1097.25C5254.3 1099.68 5253.22 1103.07 5253.22 1107.42V1132H5240.93ZM5319.49 1117.79C5317.19 1117.79 5315.05 1117.54 5313.06 1117.02L5309.51 1120.58C5310.6 1121.15 5312.07 1121.63 5313.93 1122.02C5315.78 1122.4 5318.79 1122.78 5322.95 1123.17C5329.29 1123.74 5333.89 1125.25 5336.77 1127.68C5339.65 1130.11 5341.09 1133.47 5341.09 1137.76C5341.09 1140.58 5340.33 1143.23 5338.79 1145.73C5337.25 1148.29 5334.89 1150.34 5331.69 1151.87C5328.49 1153.47 5324.39 1154.27 5319.4 1154.27C5312.61 1154.27 5307.14 1152.99 5302.98 1150.43C5298.82 1147.94 5296.74 1144.16 5296.74 1139.1C5296.74 1134.82 5298.82 1131.1 5302.98 1127.97C5301.7 1127.39 5300.58 1126.78 5299.62 1126.14C5298.73 1125.5 5297.93 1124.83 5297.22 1124.13V1121.92L5305.57 1113.09C5301.86 1109.82 5300.01 1105.63 5300.01 1100.51C5300.01 1097.31 5300.77 1094.4 5302.31 1091.78C5303.91 1089.15 5306.15 1087.07 5309.03 1085.54C5311.91 1084 5315.4 1083.23 5319.49 1083.23C5322.18 1083.23 5324.68 1083.62 5326.98 1084.38H5345.03V1091.87L5336.87 1092.45C5338.15 1094.88 5338.79 1097.57 5338.79 1100.51C5338.79 1103.71 5338.02 1106.62 5336.49 1109.25C5334.95 1111.87 5332.71 1113.95 5329.77 1115.49C5326.89 1117.02 5323.46 1117.79 5319.49 1117.79ZM5319.49 1108.38C5321.99 1108.38 5324.04 1107.71 5325.64 1106.37C5327.3 1105.02 5328.13 1103.1 5328.13 1100.61C5328.13 1098.11 5327.3 1096.19 5325.64 1094.85C5324.04 1093.5 5321.99 1092.83 5319.49 1092.83C5316.87 1092.83 5314.76 1093.5 5313.16 1094.85C5311.56 1096.19 5310.76 1098.11 5310.76 1100.61C5310.76 1103.1 5311.56 1105.02 5313.16 1106.37C5314.76 1107.71 5316.87 1108.38 5319.49 1108.38ZM5307.97 1137.86C5307.97 1140.22 5309.06 1141.98 5311.24 1143.14C5313.48 1144.35 5316.2 1144.96 5319.4 1144.96C5322.47 1144.96 5324.97 1144.32 5326.89 1143.04C5328.81 1141.82 5329.77 1140.16 5329.77 1138.05C5329.77 1136.32 5329.13 1134.88 5327.85 1133.73C5326.63 1132.58 5324.17 1131.87 5320.45 1131.62C5317.83 1131.42 5315.4 1131.14 5313.16 1130.75C5311.3 1131.78 5309.96 1132.9 5309.13 1134.11C5308.36 1135.33 5307.97 1136.58 5307.97 1137.86ZM5375.25 1133.15C5370.45 1133.15 5366.2 1132.13 5362.48 1130.08C5358.77 1128.03 5355.86 1125.15 5353.75 1121.44C5351.64 1117.73 5350.58 1113.44 5350.58 1108.58C5350.58 1103.65 5351.6 1099.26 5353.65 1095.42C5355.76 1091.58 5358.64 1088.61 5362.29 1086.5C5366 1084.32 5370.36 1083.23 5375.35 1083.23C5380.02 1083.23 5384.15 1084.26 5387.73 1086.3C5391.32 1088.35 5394.1 1091.17 5396.08 1094.75C5398.13 1098.27 5399.16 1102.21 5399.16 1106.56C5399.16 1107.26 5399.12 1108 5399.06 1108.77C5399.06 1109.54 5399.03 1110.34 5398.96 1111.17H5362.77C5363.03 1114.88 5364.31 1117.79 5366.61 1119.9C5368.98 1122.02 5371.83 1123.07 5375.16 1123.07C5377.65 1123.07 5379.73 1122.53 5381.4 1121.44C5383.12 1120.29 5384.4 1118.82 5385.24 1117.02H5397.72C5396.82 1120.03 5395.32 1122.78 5393.2 1125.28C5391.16 1127.71 5388.6 1129.63 5385.52 1131.04C5382.52 1132.45 5379.09 1133.15 5375.25 1133.15ZM5375.35 1093.22C5372.34 1093.22 5369.68 1094.08 5367.38 1095.81C5365.08 1097.47 5363.6 1100.03 5362.96 1103.49H5386.68C5386.48 1100.35 5385.33 1097.86 5383.22 1096C5381.11 1094.14 5378.48 1093.22 5375.35 1093.22ZM5429.17 1133.15C5424.95 1133.15 5421.23 1132.48 5418.03 1131.14C5414.83 1129.73 5412.27 1127.81 5410.35 1125.38C5408.43 1122.94 5407.28 1120.13 5406.9 1116.93H5419.28C5419.67 1118.78 5420.69 1120.38 5422.35 1121.73C5424.08 1123.01 5426.29 1123.65 5428.98 1123.65C5431.67 1123.65 5433.62 1123.1 5434.83 1122.02C5436.11 1120.93 5436.75 1119.68 5436.75 1118.27C5436.75 1116.22 5435.86 1114.85 5434.07 1114.14C5432.27 1113.38 5429.78 1112.64 5426.58 1111.94C5424.53 1111.49 5422.45 1110.94 5420.34 1110.3C5418.23 1109.66 5416.27 1108.86 5414.48 1107.9C5412.75 1106.88 5411.35 1105.6 5410.26 1104.06C5409.17 1102.46 5408.63 1100.51 5408.63 1098.21C5408.63 1093.98 5410.29 1090.43 5413.62 1087.55C5417.01 1084.67 5421.75 1083.23 5427.83 1083.23C5433.46 1083.23 5437.94 1084.54 5441.27 1087.17C5444.66 1089.79 5446.67 1093.41 5447.31 1098.02H5435.7C5434.99 1094.5 5432.34 1092.74 5427.73 1092.74C5425.43 1092.74 5423.63 1093.18 5422.35 1094.08C5421.14 1094.98 5420.53 1096.1 5420.53 1097.44C5420.53 1098.85 5421.46 1099.97 5423.31 1100.8C5425.17 1101.63 5427.63 1102.4 5430.71 1103.1C5434.03 1103.87 5437.07 1104.74 5439.83 1105.7C5442.64 1106.59 5444.88 1107.97 5446.55 1109.82C5448.21 1111.62 5449.04 1114.21 5449.04 1117.6C5449.11 1120.54 5448.34 1123.2 5446.74 1125.57C5445.14 1127.94 5442.83 1129.79 5439.83 1131.14C5436.82 1132.48 5433.27 1133.15 5429.17 1133.15ZM3681.09 1258.15C3676.48 1258.15 3672.32 1257.1 3668.61 1254.98C3664.96 1252.87 3662.05 1249.96 3659.87 1246.25C3657.76 1242.47 3656.7 1238.12 3656.7 1233.19C3656.7 1228.26 3657.79 1223.94 3659.97 1220.23C3662.14 1216.46 3665.06 1213.51 3668.7 1211.4C3672.42 1209.29 3676.58 1208.23 3681.18 1208.23C3685.73 1208.23 3689.82 1209.29 3693.47 1211.4C3697.18 1213.51 3700.1 1216.46 3702.21 1220.23C3704.38 1223.94 3705.47 1228.26 3705.47 1233.19C3705.47 1238.12 3704.38 1242.47 3702.21 1246.25C3700.1 1249.96 3697.18 1252.87 3693.47 1254.98C3689.76 1257.1 3685.63 1258.15 3681.09 1258.15ZM3681.09 1247.5C3684.29 1247.5 3687.07 1246.31 3689.44 1243.94C3691.81 1241.51 3692.99 1237.93 3692.99 1233.19C3692.99 1228.46 3691.81 1224.9 3689.44 1222.54C3687.07 1220.1 3684.32 1218.89 3681.18 1218.89C3677.92 1218.89 3675.1 1220.1 3672.74 1222.54C3670.43 1224.9 3669.28 1228.46 3669.28 1233.19C3669.28 1237.93 3670.43 1241.51 3672.74 1243.94C3675.1 1246.31 3677.89 1247.5 3681.09 1247.5ZM3718.67 1257V1219.66H3712.14V1209.38H3718.67V1203.82C3718.67 1198.06 3720.11 1193.96 3722.99 1191.53C3725.93 1189.1 3729.9 1187.88 3734.89 1187.88H3740.17V1198.34H3736.81C3734.7 1198.34 3733.19 1198.76 3732.3 1199.59C3731.4 1200.42 3730.95 1201.83 3730.95 1203.82V1209.38H3741.23V1219.66H3730.95V1257H3718.67ZM3797.16 1258.15C3792.3 1258.15 3788.01 1257.1 3784.3 1254.98C3780.59 1252.87 3777.64 1249.93 3775.47 1246.15C3773.35 1242.38 3772.3 1238.06 3772.3 1233.19C3772.3 1228.33 3773.35 1224.01 3775.47 1220.23C3777.64 1216.46 3780.59 1213.51 3784.3 1211.4C3788.01 1209.29 3792.3 1208.23 3797.16 1208.23C3803.24 1208.23 3808.36 1209.83 3812.52 1213.03C3816.68 1216.17 3819.34 1220.52 3820.49 1226.09H3807.53C3806.89 1223.78 3805.61 1221.99 3803.69 1220.71C3801.83 1219.37 3799.63 1218.7 3797.07 1218.7C3793.67 1218.7 3790.79 1219.98 3788.43 1222.54C3786.06 1225.1 3784.87 1228.65 3784.87 1233.19C3784.87 1237.74 3786.06 1241.29 3788.43 1243.85C3790.79 1246.41 3793.67 1247.69 3797.07 1247.69C3799.63 1247.69 3801.83 1247.05 3803.69 1245.77C3805.61 1244.49 3806.89 1242.66 3807.53 1240.3H3820.49C3819.34 1245.67 3816.68 1249.99 3812.52 1253.26C3808.36 1256.52 3803.24 1258.15 3797.16 1258.15ZM3854.24 1258.15C3849.64 1258.15 3845.48 1257.1 3841.76 1254.98C3838.12 1252.87 3835.2 1249.96 3833.03 1246.25C3830.92 1242.47 3829.86 1238.12 3829.86 1233.19C3829.86 1228.26 3830.95 1223.94 3833.12 1220.23C3835.3 1216.46 3838.21 1213.51 3841.86 1211.4C3845.57 1209.29 3849.73 1208.23 3854.34 1208.23C3858.88 1208.23 3862.98 1209.29 3866.63 1211.4C3870.34 1213.51 3873.25 1216.46 3875.36 1220.23C3877.54 1223.94 3878.63 1228.26 3878.63 1233.19C3878.63 1238.12 3877.54 1242.47 3875.36 1246.25C3873.25 1249.96 3870.34 1252.87 3866.63 1254.98C3862.92 1257.1 3858.79 1258.15 3854.24 1258.15ZM3854.24 1247.5C3857.44 1247.5 3860.23 1246.31 3862.6 1243.94C3864.96 1241.51 3866.15 1237.93 3866.15 1233.19C3866.15 1228.46 3864.96 1224.9 3862.6 1222.54C3860.23 1220.1 3857.48 1218.89 3854.34 1218.89C3851.08 1218.89 3848.26 1220.1 3845.89 1222.54C3843.59 1224.9 3842.44 1228.46 3842.44 1233.19C3842.44 1237.93 3843.59 1241.51 3845.89 1243.94C3848.26 1246.31 3851.04 1247.5 3854.24 1247.5ZM3889.62 1257V1209.38H3900.46L3901.52 1215.82C3903.06 1213.51 3905.07 1211.69 3907.57 1210.34C3910.13 1208.94 3913.07 1208.23 3916.4 1208.23C3923.76 1208.23 3928.98 1211.08 3932.05 1216.78C3933.78 1214.15 3936.08 1212.07 3938.96 1210.54C3941.9 1209 3945.1 1208.23 3948.56 1208.23C3954.77 1208.23 3959.54 1210.09 3962.86 1213.8C3966.19 1217.51 3967.86 1222.95 3967.86 1230.12V1257H3955.57V1231.27C3955.57 1227.18 3954.77 1224.04 3953.17 1221.86C3951.63 1219.69 3949.23 1218.6 3945.97 1218.6C3942.64 1218.6 3939.95 1219.82 3937.9 1222.25C3935.92 1224.68 3934.93 1228.07 3934.93 1232.42V1257H3922.64V1231.27C3922.64 1227.18 3921.84 1224.04 3920.24 1221.86C3918.64 1219.69 3916.18 1218.6 3912.85 1218.6C3909.58 1218.6 3906.93 1219.82 3904.88 1222.25C3902.9 1224.68 3901.9 1228.07 3901.9 1232.42V1257H3889.62ZM3979.52 1257V1209.38H3990.37L3991.43 1215.82C3992.96 1213.51 3994.98 1211.69 3997.47 1210.34C4000.03 1208.94 4002.98 1208.23 4006.31 1208.23C4013.67 1208.23 4018.88 1211.08 4021.95 1216.78C4023.68 1214.15 4025.99 1212.07 4028.87 1210.54C4031.81 1209 4035.01 1208.23 4038.47 1208.23C4044.67 1208.23 4049.44 1210.09 4052.77 1213.8C4056.1 1217.51 4057.76 1222.95 4057.76 1230.12V1257H4045.47V1231.27C4045.47 1227.18 4044.67 1224.04 4043.07 1221.86C4041.54 1219.69 4039.14 1218.6 4035.87 1218.6C4032.55 1218.6 4029.86 1219.82 4027.81 1222.25C4025.83 1224.68 4024.83 1228.07 4024.83 1232.42V1257H4012.55V1231.27C4012.55 1227.18 4011.75 1224.04 4010.15 1221.86C4008.55 1219.69 4006.08 1218.6 4002.75 1218.6C3999.49 1218.6 3996.83 1219.82 3994.79 1222.25C3992.8 1224.68 3991.81 1228.07 3991.81 1232.42V1257H3979.52ZM4076.05 1201.99C4073.81 1201.99 4071.96 1201.32 4070.48 1199.98C4069.08 1198.63 4068.37 1196.94 4068.37 1194.89C4068.37 1192.84 4069.08 1191.18 4070.48 1189.9C4071.96 1188.55 4073.81 1187.88 4076.05 1187.88C4078.29 1187.88 4080.12 1188.55 4081.52 1189.9C4083 1191.18 4083.73 1192.84 4083.73 1194.89C4083.73 1196.94 4083 1198.63 4081.52 1199.98C4080.12 1201.32 4078.29 1201.99 4076.05 1201.99ZM4069.91 1257V1209.38H4082.2V1257H4069.91ZM4116.24 1257C4111.25 1257 4107.25 1255.78 4104.24 1253.35C4101.23 1250.92 4099.73 1246.6 4099.73 1240.39V1219.66H4091.57V1209.38H4099.73L4101.17 1196.62H4112.01V1209.38H4124.88V1219.66H4112.01V1240.49C4112.01 1242.79 4112.49 1244.39 4113.45 1245.29C4114.48 1246.12 4116.21 1246.54 4118.64 1246.54H4124.59V1257H4116.24ZM4162.43 1257L4187.77 1200.26H4154.65V1189.8H4200.45V1198.54L4175.2 1257H4162.43ZM4212.82 1257V1219.66H4206.3V1209.38H4212.82V1203.82C4212.82 1198.06 4214.26 1193.96 4217.14 1191.53C4220.09 1189.1 4224.06 1187.88 4229.05 1187.88H4234.33V1198.34H4230.97C4228.86 1198.34 4227.35 1198.76 4226.46 1199.59C4225.56 1200.42 4225.11 1201.83 4225.11 1203.82V1209.38H4235.38V1219.66H4225.11V1257H4212.82ZM4261.43 1242.79C4259.13 1242.79 4256.98 1242.54 4255 1242.02L4251.45 1245.58C4252.54 1246.15 4254.01 1246.63 4255.86 1247.02C4257.72 1247.4 4260.73 1247.78 4264.89 1248.17C4271.22 1248.74 4275.83 1250.25 4278.71 1252.68C4281.59 1255.11 4283.03 1258.47 4283.03 1262.76C4283.03 1265.58 4282.26 1268.23 4280.73 1270.73C4279.19 1273.29 4276.82 1275.34 4273.62 1276.87C4270.42 1278.47 4266.33 1279.27 4261.34 1279.27C4254.55 1279.27 4249.08 1277.99 4244.92 1275.43C4240.76 1272.94 4238.68 1269.16 4238.68 1264.1C4238.68 1259.82 4240.76 1256.1 4244.92 1252.97C4243.64 1252.39 4242.52 1251.78 4241.56 1251.14C4240.66 1250.5 4239.86 1249.83 4239.16 1249.13V1246.92L4247.51 1238.09C4243.8 1234.82 4241.94 1230.63 4241.94 1225.51C4241.94 1222.31 4242.71 1219.4 4244.25 1216.78C4245.85 1214.15 4248.09 1212.07 4250.97 1210.54C4253.85 1209 4257.34 1208.23 4261.43 1208.23C4264.12 1208.23 4266.62 1208.62 4268.92 1209.38H4286.97V1216.87L4278.81 1217.45C4280.09 1219.88 4280.73 1222.57 4280.73 1225.51C4280.73 1228.71 4279.96 1231.62 4278.42 1234.25C4276.89 1236.87 4274.65 1238.95 4271.7 1240.49C4268.82 1242.02 4265.4 1242.79 4261.43 1242.79ZM4261.43 1233.38C4263.93 1233.38 4265.98 1232.71 4267.58 1231.37C4269.24 1230.02 4270.07 1228.1 4270.07 1225.61C4270.07 1223.11 4269.24 1221.19 4267.58 1219.85C4265.98 1218.5 4263.93 1217.83 4261.43 1217.83C4258.81 1217.83 4256.7 1218.5 4255.1 1219.85C4253.5 1221.19 4252.7 1223.11 4252.7 1225.61C4252.7 1228.1 4253.5 1230.02 4255.1 1231.37C4256.7 1232.71 4258.81 1233.38 4261.43 1233.38ZM4249.91 1262.86C4249.91 1265.22 4251 1266.98 4253.18 1268.14C4255.42 1269.35 4258.14 1269.96 4261.34 1269.96C4264.41 1269.96 4266.9 1269.32 4268.82 1268.04C4270.74 1266.82 4271.7 1265.16 4271.7 1263.05C4271.7 1261.32 4271.06 1259.88 4269.78 1258.73C4268.57 1257.58 4266.1 1256.87 4262.39 1256.62C4259.77 1256.42 4257.34 1256.14 4255.1 1255.75C4253.24 1256.78 4251.9 1257.9 4251.06 1259.11C4250.3 1260.33 4249.91 1261.58 4249.91 1262.86ZM4323.77 1258.15C4317.56 1258.15 4312.25 1256.71 4307.83 1253.83C4303.42 1250.89 4299.99 1246.82 4297.56 1241.64C4295.19 1236.39 4294.01 1230.31 4294.01 1223.4C4294.01 1216.55 4295.19 1210.5 4297.56 1205.26C4299.99 1200.01 4303.42 1195.94 4307.83 1193.06C4312.25 1190.12 4317.56 1188.65 4323.77 1188.65C4329.98 1188.65 4335.29 1190.12 4339.7 1193.06C4344.12 1195.94 4347.51 1200.01 4349.88 1205.26C4352.31 1210.5 4353.53 1216.55 4353.53 1223.4C4353.53 1230.31 4352.31 1236.39 4349.88 1241.64C4347.51 1246.82 4344.12 1250.89 4339.7 1253.83C4335.29 1256.71 4329.98 1258.15 4323.77 1258.15ZM4323.77 1247.11C4328.82 1247.11 4332.95 1245 4336.15 1240.78C4339.35 1236.55 4340.95 1230.76 4340.95 1223.4C4340.95 1216.04 4339.35 1210.25 4336.15 1206.02C4332.95 1201.8 4328.82 1199.69 4323.77 1199.69C4318.65 1199.69 4314.49 1201.8 4311.29 1206.02C4308.15 1210.25 4306.58 1216.04 4306.58 1223.4C4306.58 1230.76 4308.15 1236.55 4311.29 1240.78C4314.49 1245 4318.65 1247.11 4323.77 1247.11ZM4362.27 1257V1248.07C4366.37 1244.68 4370.34 1241.32 4374.18 1237.99C4378.08 1234.66 4381.54 1231.37 4384.54 1228.1C4387.62 1224.84 4390.05 1221.67 4391.84 1218.6C4393.7 1215.46 4394.62 1212.42 4394.62 1209.48C4394.62 1206.73 4393.86 1204.3 4392.32 1202.18C4390.85 1200.07 4388.38 1199.02 4384.93 1199.02C4381.41 1199.02 4378.75 1200.17 4376.96 1202.47C4375.17 1204.78 4374.27 1207.56 4374.27 1210.82H4362.37C4362.5 1205.9 4363.58 1201.8 4365.63 1198.54C4367.68 1195.21 4370.4 1192.74 4373.79 1191.14C4377.18 1189.48 4380.99 1188.65 4385.22 1188.65C4392.06 1188.65 4397.38 1190.54 4401.15 1194.31C4404.99 1198.02 4406.91 1202.86 4406.91 1208.81C4406.91 1212.52 4406.05 1216.14 4404.32 1219.66C4402.66 1223.18 4400.45 1226.57 4397.7 1229.83C4394.94 1233.1 4391.97 1236.17 4388.77 1239.05C4385.57 1241.86 4382.46 1244.49 4379.46 1246.92H4408.54V1257H4362.27ZM4440.73 1258.15C4436.31 1258.15 4432.31 1257.38 4428.73 1255.85C4425.15 1254.25 4422.27 1251.82 4420.09 1248.55C4417.91 1245.29 4416.76 1241.19 4416.63 1236.26H4428.73C4428.79 1239.53 4429.85 1242.28 4431.9 1244.52C4434.01 1246.7 4436.95 1247.78 4440.73 1247.78C4444.31 1247.78 4447.07 1246.79 4448.99 1244.81C4450.91 1242.82 4451.87 1240.33 4451.87 1237.32C4451.87 1233.8 4450.59 1231.14 4448.03 1229.35C4445.53 1227.5 4442.3 1226.57 4438.33 1226.57H4433.34V1216.49H4438.43C4441.69 1216.49 4444.41 1215.72 4446.59 1214.18C4448.76 1212.65 4449.85 1210.38 4449.85 1207.37C4449.85 1204.87 4449.02 1202.89 4447.35 1201.42C4445.75 1199.88 4443.51 1199.11 4440.63 1199.11C4437.5 1199.11 4435.03 1200.04 4433.24 1201.9C4431.51 1203.75 4430.55 1206.02 4430.36 1208.71H4418.36C4418.62 1202.5 4420.76 1197.61 4424.79 1194.02C4428.89 1190.44 4434.17 1188.65 4440.63 1188.65C4445.24 1188.65 4449.11 1189.48 4452.25 1191.14C4455.45 1192.74 4457.85 1194.89 4459.45 1197.58C4461.11 1200.26 4461.95 1203.24 4461.95 1206.5C4461.95 1210.28 4460.89 1213.48 4458.78 1216.1C4456.73 1218.66 4454.17 1220.39 4451.1 1221.29C4454.87 1222.06 4457.95 1223.91 4460.31 1226.86C4462.68 1229.74 4463.87 1233.38 4463.87 1237.8C4463.87 1241.51 4462.97 1244.9 4461.18 1247.98C4459.39 1251.05 4456.76 1253.51 4453.31 1255.37C4449.91 1257.22 4445.72 1258.15 4440.73 1258.15ZM4500.03 1258.15C4495.1 1258.15 4490.85 1257.29 4487.26 1255.56C4483.74 1253.83 4480.96 1251.46 4478.91 1248.46C4476.93 1245.38 4475.77 1241.93 4475.45 1238.09H4487.45C4488.03 1240.84 4489.44 1243.14 4491.68 1245C4493.92 1246.79 4496.7 1247.69 4500.03 1247.69C4503.61 1247.69 4506.53 1246.38 4508.77 1243.75C4511.07 1241.13 4512.22 1237.86 4512.22 1233.96C4512.22 1229.93 4511.07 1226.73 4508.77 1224.36C4506.53 1221.99 4503.68 1220.81 4500.22 1220.81C4497.34 1220.81 4494.85 1221.51 4492.73 1222.92C4490.62 1224.33 4489.12 1226.09 4488.22 1228.2H4476.41L4482.17 1189.8H4519.42V1200.55H4491.39L4488.32 1216.1C4489.73 1214.57 4491.65 1213.32 4494.08 1212.36C4496.51 1211.34 4499.23 1210.82 4502.24 1210.82C4507.04 1210.82 4511.04 1211.91 4514.24 1214.09C4517.44 1216.2 4519.87 1219.02 4521.53 1222.54C4523.2 1225.99 4524.03 1229.77 4524.03 1233.86C4524.03 1238.54 4523.01 1242.7 4520.96 1246.34C4518.97 1249.99 4516.16 1252.87 4512.51 1254.98C4508.93 1257.1 4504.77 1258.15 4500.03 1258.15Z" fill="black"/>
</svg>
