<svg width="2944" height="1347" viewBox="0 0 2944 1347" fill="none" xmlns="http://www.w3.org/2000/svg">
<rect x="32" y="588" width="400" height="400" rx="200" fill="#3498DB"/>
<rect x="1260" y="588" width="400" height="400" rx="200" fill="#3498DB" fill-opacity="0.6"/>
<rect x="432" y="778" width="828" height="21" fill="#545454" fill-opacity="0.6"/>
<rect x="1660" y="778" width="828" height="21" fill="#545454" fill-opacity="0.6"/>
<rect x="2660.84" y="505" width="400" height="400" rx="200" transform="rotate(45 2660.84 505)" fill="#3498DB" fill-opacity="0.6"/>
<rect x="969" width="451" height="196" rx="20" fill="#2ECC71"/>
<path d="M1030.7 142V52.4H1047.09V89.648H1087.28V52.4H1103.66V142H1087.28V102.96H1047.09V142H1030.7ZM1121.08 142V52.4H1179.58V65.584H1137.46V90.16H1175.74V102.96H1137.46V128.816H1179.58V142H1121.08ZM1189.32 142L1222.09 52.4H1240.52L1273.29 142H1255.88L1248.71 121.264H1213.77L1206.47 142H1189.32ZM1218.25 108.464H1244.23L1231.18 71.216L1218.25 108.464ZM1284.83 142V52.4H1315.42C1325.92 52.4 1334.54 54.2773 1341.28 58.032C1348.1 61.7013 1353.14 66.9067 1356.38 73.648C1359.71 80.304 1361.37 88.1547 1361.37 97.2C1361.37 106.245 1359.71 114.139 1356.38 120.88C1353.14 127.536 1348.1 132.741 1341.28 136.496C1334.54 140.165 1325.92 142 1315.42 142H1284.83ZM1301.21 127.92H1314.65C1322.16 127.92 1328.09 126.725 1332.45 124.336C1336.8 121.861 1339.91 118.363 1341.79 113.84C1343.67 109.232 1344.61 103.685 1344.61 97.2C1344.61 90.8 1343.67 85.296 1341.79 80.688C1339.91 76.08 1336.8 72.5387 1332.45 70.064C1328.09 67.5893 1322.16 66.352 1314.65 66.352H1301.21V127.92Z" fill="white"/>
<rect x="621.888" y="63.1356" width="4.43438" height="53.39" transform="rotate(45 621.888 63.1356)" fill="black" stroke="black" stroke-width="4.43438"/>
<rect x="834.75" y="98.5098" width="4.5" height="240.5" transform="rotate(90 834.75 98.5098)" fill="black" stroke="black" stroke-width="4.5"/>
<rect x="625.024" y="135.504" width="4.43438" height="53.39" transform="rotate(135 625.024 135.504)" fill="black" stroke="black" stroke-width="4.43438"/>
<rect x="969" width="451" height="196" rx="20" fill="#2ECC71"/>
<path d="M1030.7 142V52.4H1047.09V89.648H1087.28V52.4H1103.66V142H1087.28V102.96H1047.09V142H1030.7ZM1121.08 142V52.4H1179.58V65.584H1137.46V90.16H1175.74V102.96H1137.46V128.816H1179.58V142H1121.08ZM1189.32 142L1222.09 52.4H1240.52L1273.29 142H1255.88L1248.71 121.264H1213.77L1206.47 142H1189.32ZM1218.25 108.464H1244.23L1231.18 71.216L1218.25 108.464ZM1284.83 142V52.4H1315.42C1325.92 52.4 1334.54 54.2773 1341.28 58.032C1348.1 61.7013 1353.14 66.9067 1356.38 73.648C1359.71 80.304 1361.37 88.1547 1361.37 97.2C1361.37 106.245 1359.71 114.139 1356.38 120.88C1353.14 127.536 1348.1 132.741 1341.28 136.496C1334.54 140.165 1325.92 142 1315.42 142H1284.83ZM1301.21 127.92H1314.65C1322.16 127.92 1328.09 126.725 1332.45 124.336C1336.8 121.861 1339.91 118.363 1341.79 113.84C1343.67 109.232 1344.61 103.685 1344.61 97.2C1344.61 90.8 1343.67 85.296 1341.79 80.688C1339.91 76.08 1336.8 72.5387 1332.45 70.064C1328.09 67.5893 1322.16 66.352 1314.65 66.352H1301.21V127.92Z" fill="white"/>
<rect x="188.136" y="466.113" width="4.43438" height="53.39" transform="rotate(-45 188.136 466.113)" fill="black" stroke="black" stroke-width="4.43438"/>
<rect x="223.509" y="253.25" width="4.5" height="240.5" fill="black" stroke="black" stroke-width="4.5"/>
<rect x="260.505" y="462.975" width="4.43438" height="53.39" transform="rotate(45 260.505 462.975)" fill="black" stroke="black" stroke-width="4.43438"/>
<rect x="5" y="5" width="441" height="186" rx="15" fill="white" stroke="#3498DB" stroke-width="10"/>
<path d="M84.704 142V52.4H104.16L132.704 109.232L160.864 52.4H180.32V142H163.936V80.176L138.976 129.2H126.048L101.088 80.176V142H84.704ZM219.208 143.536C213.747 143.536 209.267 142.683 205.768 140.976C202.269 139.184 199.667 136.837 197.96 133.936C196.253 131.035 195.4 127.835 195.4 124.336C195.4 118.448 197.704 113.669 202.312 110C206.92 106.331 213.832 104.496 223.048 104.496H239.176V102.96C239.176 98.608 237.939 95.408 235.464 93.36C232.989 91.312 229.917 90.288 226.248 90.288C222.92 90.288 220.019 91.0987 217.544 92.72C215.069 94.256 213.533 96.56 212.936 99.632H196.936C197.363 95.024 198.899 91.0133 201.544 87.6C204.275 84.1867 207.773 81.584 212.04 79.792C216.307 77.9147 221.085 76.976 226.376 76.976C235.421 76.976 242.547 79.2373 247.752 83.76C252.957 88.2827 255.56 94.6827 255.56 102.96V142H241.608L240.072 131.76C238.195 135.173 235.549 137.989 232.136 140.208C228.808 142.427 224.499 143.536 219.208 143.536ZM222.92 130.736C227.613 130.736 231.24 129.2 233.8 126.128C236.445 123.056 238.109 119.259 238.792 114.736H224.84C220.488 114.736 217.373 115.547 215.496 117.168C213.619 118.704 212.68 120.624 212.68 122.928C212.68 125.403 213.619 127.323 215.496 128.688C217.373 130.053 219.848 130.736 222.92 130.736ZM280.027 68.656C277.04 68.656 274.566 67.76 272.603 65.968C270.726 64.176 269.787 61.9147 269.787 59.184C269.787 56.4533 270.726 54.2347 272.603 52.528C274.566 50.736 277.04 49.84 280.027 49.84C283.014 49.84 285.446 50.736 287.323 52.528C289.286 54.2347 290.267 56.4533 290.267 59.184C290.267 61.9147 289.286 64.176 287.323 65.968C285.446 67.76 283.014 68.656 280.027 68.656ZM271.835 142V78.512H288.219V142H271.835ZM305.32 142V78.512H319.784L321.064 89.264C323.027 85.5093 325.843 82.5227 329.512 80.304C333.267 78.0853 337.661 76.976 342.696 76.976C350.547 76.976 356.648 79.4507 361 84.4C365.352 89.3493 367.528 96.6027 367.528 106.16V142H351.144V107.696C351.144 102.235 350.035 98.0533 347.816 95.152C345.597 92.2507 342.141 90.8 337.448 90.8C332.84 90.8 329.043 92.4213 326.056 95.664C323.155 98.9067 321.704 103.429 321.704 109.232V142H305.32Z" fill="#3498DB"/>
<path d="M22.176 1192V1134.69H2.592V1124.8H54.144V1134.69H34.464V1192H22.176ZM62.9588 1192V1122.88H75.2468V1151.68C76.8468 1149.06 78.9908 1147.01 81.6788 1145.54C84.4308 1144 87.5668 1143.23 91.0868 1143.23C96.9748 1143.23 101.519 1145.09 104.719 1148.8C107.983 1152.51 109.615 1157.95 109.615 1165.12V1192H97.4228V1166.27C97.4228 1162.18 96.5908 1159.04 94.9268 1156.86C93.3268 1154.69 90.7668 1153.6 87.2468 1153.6C83.7908 1153.6 80.9108 1154.82 78.6068 1157.25C76.3668 1159.68 75.2468 1163.07 75.2468 1167.42V1192H62.9588ZM144.501 1193.15C139.701 1193.15 135.445 1192.13 131.733 1190.08C128.021 1188.03 125.109 1185.15 122.997 1181.44C120.885 1177.73 119.829 1173.44 119.829 1168.58C119.829 1163.65 120.853 1159.26 122.901 1155.42C125.013 1151.58 127.893 1148.61 131.541 1146.5C135.253 1144.32 139.605 1143.23 144.597 1143.23C149.269 1143.23 153.397 1144.26 156.981 1146.3C160.565 1148.35 163.349 1151.17 165.333 1154.75C167.381 1158.27 168.405 1162.21 168.405 1166.56C168.405 1167.26 168.373 1168 168.309 1168.77C168.309 1169.54 168.277 1170.34 168.213 1171.17H132.021C132.277 1174.88 133.557 1177.79 135.861 1179.9C138.229 1182.02 141.077 1183.07 144.405 1183.07C146.901 1183.07 148.981 1182.53 150.645 1181.44C152.373 1180.29 153.653 1178.82 154.485 1177.02H166.965C166.069 1180.03 164.565 1182.78 162.453 1185.28C160.405 1187.71 157.845 1189.63 154.773 1191.04C151.765 1192.45 148.341 1193.15 144.501 1193.15ZM144.597 1153.22C141.589 1153.22 138.933 1154.08 136.629 1155.81C134.325 1157.47 132.853 1160.03 132.213 1163.49H155.925C155.733 1160.35 154.581 1157.86 152.469 1156C150.357 1154.14 147.733 1153.22 144.597 1153.22ZM229.839 1193.15C226.255 1193.15 223.119 1192.48 220.431 1191.14C217.743 1189.79 215.567 1187.9 213.903 1185.47L212.559 1192H201.615V1122.88H213.903V1151.2C215.439 1149.09 217.455 1147.23 219.951 1145.63C222.511 1144.03 225.807 1143.23 229.839 1143.23C234.319 1143.23 238.319 1144.32 241.839 1146.5C245.359 1148.67 248.143 1151.65 250.191 1155.42C252.239 1159.2 253.263 1163.49 253.263 1168.29C253.263 1173.09 252.239 1177.38 250.191 1181.15C248.143 1184.86 245.359 1187.81 241.839 1189.98C238.319 1192.1 234.319 1193.15 229.839 1193.15ZM227.247 1182.4C231.151 1182.4 234.383 1181.09 236.943 1178.46C239.503 1175.84 240.783 1172.45 240.783 1168.29C240.783 1164.13 239.503 1160.7 236.943 1158.02C234.383 1155.33 231.151 1153.98 227.247 1153.98C223.279 1153.98 220.015 1155.33 217.455 1158.02C214.959 1160.64 213.711 1164.03 213.711 1168.19C213.711 1172.35 214.959 1175.78 217.455 1178.46C220.015 1181.09 223.279 1182.4 227.247 1182.4ZM264.24 1192V1144.38H275.184L276.336 1153.31C278.064 1150.24 280.4 1147.81 283.344 1146.02C286.352 1144.16 289.872 1143.23 293.904 1143.23V1156.19H290.448C287.76 1156.19 285.36 1156.61 283.248 1157.44C281.136 1158.27 279.472 1159.71 278.256 1161.76C277.104 1163.81 276.528 1166.66 276.528 1170.3V1192H264.24ZM318.719 1193.15C314.623 1193.15 311.263 1192.51 308.639 1191.23C306.015 1189.89 304.063 1188.13 302.783 1185.95C301.503 1183.78 300.863 1181.38 300.863 1178.75C300.863 1174.34 302.591 1170.75 306.047 1168C309.503 1165.25 314.687 1163.87 321.599 1163.87H333.695V1162.72C333.695 1159.46 332.767 1157.06 330.911 1155.52C329.055 1153.98 326.751 1153.22 323.999 1153.22C321.503 1153.22 319.327 1153.82 317.471 1155.04C315.615 1156.19 314.463 1157.92 314.015 1160.22H302.015C302.335 1156.77 303.487 1153.76 305.471 1151.2C307.519 1148.64 310.143 1146.69 313.343 1145.34C316.543 1143.94 320.127 1143.23 324.095 1143.23C330.879 1143.23 336.223 1144.93 340.127 1148.32C344.031 1151.71 345.983 1156.51 345.983 1162.72V1192H335.519L334.367 1184.32C332.959 1186.88 330.975 1188.99 328.415 1190.66C325.919 1192.32 322.687 1193.15 318.719 1193.15ZM321.503 1183.55C325.023 1183.55 327.743 1182.4 329.663 1180.1C331.647 1177.79 332.895 1174.94 333.407 1171.55H322.943C319.679 1171.55 317.343 1172.16 315.935 1173.38C314.527 1174.53 313.823 1175.97 313.823 1177.7C313.823 1179.55 314.527 1180.99 315.935 1182.02C317.343 1183.04 319.199 1183.55 321.503 1183.55ZM357.709 1192V1144.38H368.557L369.517 1152.45C370.989 1149.63 373.101 1147.39 375.853 1145.73C378.669 1144.06 381.965 1143.23 385.741 1143.23C391.629 1143.23 396.205 1145.09 399.469 1148.8C402.733 1152.51 404.365 1157.95 404.365 1165.12V1192H392.077V1166.27C392.077 1162.18 391.245 1159.04 389.581 1156.86C387.917 1154.69 385.325 1153.6 381.805 1153.6C378.349 1153.6 375.501 1154.82 373.261 1157.25C371.085 1159.68 369.997 1163.07 369.997 1167.42V1192H357.709ZM439.443 1193.15C434.579 1193.15 430.291 1192.1 426.579 1189.98C422.867 1187.87 419.923 1184.93 417.747 1181.15C415.635 1177.38 414.579 1173.06 414.579 1168.19C414.579 1163.33 415.635 1159.01 417.747 1155.23C419.923 1151.46 422.867 1148.51 426.579 1146.4C430.291 1144.29 434.579 1143.23 439.443 1143.23C445.523 1143.23 450.643 1144.83 454.803 1148.03C458.963 1151.17 461.619 1155.52 462.771 1161.09H449.811C449.171 1158.78 447.891 1156.99 445.971 1155.71C444.115 1154.37 441.907 1153.7 439.347 1153.7C435.955 1153.7 433.075 1154.98 430.707 1157.54C428.339 1160.1 427.155 1163.65 427.155 1168.19C427.155 1172.74 428.339 1176.29 430.707 1178.85C433.075 1181.41 435.955 1182.69 439.347 1182.69C441.907 1182.69 444.115 1182.05 445.971 1180.77C447.891 1179.49 449.171 1177.66 449.811 1175.3H462.771C461.619 1180.67 458.963 1184.99 454.803 1188.26C450.643 1191.52 445.523 1193.15 439.443 1193.15ZM473.678 1192V1122.88H485.966V1151.68C487.566 1149.06 489.71 1147.01 492.398 1145.54C495.15 1144 498.286 1143.23 501.806 1143.23C507.694 1143.23 512.238 1145.09 515.438 1148.8C518.701 1152.51 520.333 1157.95 520.333 1165.12V1192H508.142V1166.27C508.142 1162.18 507.31 1159.04 505.646 1156.86C504.046 1154.69 501.486 1153.6 497.966 1153.6C494.51 1153.6 491.63 1154.82 489.326 1157.25C487.086 1159.68 485.966 1163.07 485.966 1167.42V1192H473.678ZM554.959 1213.12V1144.38H565.903L567.247 1151.2C568.783 1149.09 570.799 1147.23 573.295 1145.63C575.855 1144.03 579.151 1143.23 583.183 1143.23C587.663 1143.23 591.663 1144.32 595.183 1146.5C598.703 1148.67 601.487 1151.65 603.535 1155.42C605.583 1159.2 606.607 1163.49 606.607 1168.29C606.607 1173.09 605.583 1177.38 603.535 1181.15C601.487 1184.86 598.703 1187.81 595.183 1189.98C591.663 1192.1 587.663 1193.15 583.183 1193.15C579.599 1193.15 576.463 1192.48 573.775 1191.14C571.087 1189.79 568.911 1187.9 567.247 1185.47V1213.12H554.959ZM580.591 1182.4C584.495 1182.4 587.727 1181.09 590.287 1178.46C592.847 1175.84 594.127 1172.45 594.127 1168.29C594.127 1164.13 592.847 1160.7 590.287 1158.02C587.727 1155.33 584.495 1153.98 580.591 1153.98C576.623 1153.98 573.359 1155.33 570.799 1158.02C568.303 1160.64 567.055 1164.03 567.055 1168.19C567.055 1172.35 568.303 1175.78 570.799 1178.46C573.359 1181.09 576.623 1182.4 580.591 1182.4ZM640.432 1193.15C635.824 1193.15 631.664 1192.1 627.952 1189.98C624.304 1187.87 621.392 1184.96 619.216 1181.25C617.104 1177.47 616.048 1173.12 616.048 1168.19C616.048 1163.26 617.136 1158.94 619.312 1155.23C621.488 1151.46 624.4 1148.51 628.048 1146.4C631.76 1144.29 635.92 1143.23 640.528 1143.23C645.072 1143.23 649.168 1144.29 652.816 1146.4C656.528 1148.51 659.44 1151.46 661.552 1155.23C663.728 1158.94 664.816 1163.26 664.816 1168.19C664.816 1173.12 663.728 1177.47 661.552 1181.25C659.44 1184.96 656.528 1187.87 652.816 1189.98C649.104 1192.1 644.976 1193.15 640.432 1193.15ZM640.432 1182.5C643.632 1182.5 646.416 1181.31 648.784 1178.94C651.152 1176.51 652.336 1172.93 652.336 1168.19C652.336 1163.46 651.152 1159.9 648.784 1157.54C646.416 1155.1 643.664 1153.89 640.528 1153.89C637.264 1153.89 634.448 1155.1 632.08 1157.54C629.776 1159.9 628.624 1163.46 628.624 1168.19C628.624 1172.93 629.776 1176.51 632.08 1178.94C634.448 1181.31 637.232 1182.5 640.432 1182.5ZM682.427 1136.99C680.187 1136.99 678.331 1136.32 676.859 1134.98C675.451 1133.63 674.747 1131.94 674.747 1129.89C674.747 1127.84 675.451 1126.18 676.859 1124.9C678.331 1123.55 680.187 1122.88 682.427 1122.88C684.667 1122.88 686.491 1123.55 687.899 1124.9C689.371 1126.18 690.107 1127.84 690.107 1129.89C690.107 1131.94 689.371 1133.63 687.899 1134.98C686.491 1136.32 684.667 1136.99 682.427 1136.99ZM676.283 1192V1144.38H688.571V1192H676.283ZM701.396 1192V1144.38H712.244L713.204 1152.45C714.676 1149.63 716.788 1147.39 719.54 1145.73C722.356 1144.06 725.652 1143.23 729.428 1143.23C735.316 1143.23 739.892 1145.09 743.156 1148.8C746.42 1152.51 748.052 1157.95 748.052 1165.12V1192H735.764V1166.27C735.764 1162.18 734.932 1159.04 733.268 1156.86C731.604 1154.69 729.012 1153.6 725.492 1153.6C722.036 1153.6 719.188 1154.82 716.948 1157.25C714.772 1159.68 713.684 1163.07 713.684 1167.42V1192H701.396ZM781.019 1192C776.027 1192 772.027 1190.78 769.019 1188.35C766.011 1185.92 764.507 1181.6 764.507 1175.39V1154.66H756.347V1144.38H764.507L765.947 1131.62H776.795V1144.38H789.659V1154.66H776.795V1175.49C776.795 1177.79 777.275 1179.39 778.234 1180.29C779.259 1181.12 780.987 1181.54 783.419 1181.54H789.371V1192H781.019ZM822.126 1193.15C817.326 1193.15 813.07 1192.13 809.358 1190.08C805.646 1188.03 802.734 1185.15 800.622 1181.44C798.51 1177.73 797.454 1173.44 797.454 1168.58C797.454 1163.65 798.478 1159.26 800.526 1155.42C802.638 1151.58 805.518 1148.61 809.166 1146.5C812.878 1144.32 817.23 1143.23 822.222 1143.23C826.894 1143.23 831.022 1144.26 834.606 1146.3C838.19 1148.35 840.974 1151.17 842.958 1154.75C845.006 1158.27 846.03 1162.21 846.03 1166.56C846.03 1167.26 845.998 1168 845.934 1168.77C845.934 1169.54 845.902 1170.34 845.838 1171.17H809.646C809.902 1174.88 811.182 1177.79 813.486 1179.9C815.854 1182.02 818.702 1183.07 822.03 1183.07C824.526 1183.07 826.606 1182.53 828.27 1181.44C829.998 1180.29 831.278 1178.82 832.11 1177.02H844.59C843.694 1180.03 842.19 1182.78 840.078 1185.28C838.03 1187.71 835.47 1189.63 832.398 1191.04C829.39 1192.45 825.966 1193.15 822.126 1193.15ZM822.222 1153.22C819.214 1153.22 816.558 1154.08 814.254 1155.81C811.95 1157.47 810.478 1160.03 809.838 1163.49H833.55C833.358 1160.35 832.206 1157.86 830.094 1156C827.982 1154.14 825.358 1153.22 822.222 1153.22ZM856.365 1192V1144.38H867.309L868.461 1153.31C870.189 1150.24 872.525 1147.81 875.469 1146.02C878.477 1144.16 881.997 1143.23 886.029 1143.23V1156.19H882.573C879.885 1156.19 877.485 1156.61 875.373 1157.44C873.261 1158.27 871.597 1159.71 870.381 1161.76C869.229 1163.81 868.653 1166.66 868.653 1170.3V1192H856.365ZM923.927 1136.99C921.687 1136.99 919.831 1136.32 918.359 1134.98C916.951 1133.63 916.247 1131.94 916.247 1129.89C916.247 1127.84 916.951 1126.18 918.359 1124.9C919.831 1123.55 921.687 1122.88 923.927 1122.88C926.167 1122.88 927.991 1123.55 929.399 1124.9C930.871 1126.18 931.607 1127.84 931.607 1129.89C931.607 1131.94 930.871 1133.63 929.399 1134.98C927.991 1136.32 926.167 1136.99 923.927 1136.99ZM917.783 1192V1144.38H930.071V1192H917.783ZM962.576 1193.15C958.352 1193.15 954.64 1192.48 951.44 1191.14C948.24 1189.73 945.68 1187.81 943.76 1185.38C941.84 1182.94 940.688 1180.13 940.304 1176.93H952.688C953.072 1178.78 954.096 1180.38 955.76 1181.73C957.488 1183.01 959.696 1183.65 962.384 1183.65C965.072 1183.65 967.024 1183.1 968.24 1182.02C969.52 1180.93 970.16 1179.68 970.16 1178.27C970.16 1176.22 969.264 1174.85 967.472 1174.14C965.68 1173.38 963.184 1172.64 959.984 1171.94C957.936 1171.49 955.856 1170.94 953.744 1170.3C951.632 1169.66 949.68 1168.86 947.888 1167.9C946.16 1166.88 944.752 1165.6 943.664 1164.06C942.576 1162.46 942.032 1160.51 942.032 1158.21C942.032 1153.98 943.696 1150.43 947.024 1147.55C950.416 1144.67 955.152 1143.23 961.232 1143.23C966.864 1143.23 971.344 1144.54 974.672 1147.17C978.064 1149.79 980.08 1153.41 980.72 1158.02H969.104C968.4 1154.5 965.744 1152.74 961.136 1152.74C958.832 1152.74 957.04 1153.18 955.76 1154.08C954.544 1154.98 953.936 1156.1 953.936 1157.44C953.936 1158.85 954.864 1159.97 956.72 1160.8C958.576 1161.63 961.04 1162.4 964.112 1163.1C967.44 1163.87 970.48 1164.74 973.232 1165.7C976.048 1166.59 978.288 1167.97 979.952 1169.82C981.616 1171.62 982.448 1174.21 982.448 1177.6C982.512 1180.54 981.744 1183.2 980.144 1185.57C978.544 1187.94 976.24 1189.79 973.232 1191.14C970.224 1192.48 966.672 1193.15 962.576 1193.15ZM1016.21 1192V1144.38H1027.06L1028.11 1150.82C1029.65 1148.51 1031.66 1146.69 1034.16 1145.34C1036.72 1143.94 1039.66 1143.23 1042.99 1143.23C1050.35 1143.23 1055.57 1146.08 1058.64 1151.78C1060.37 1149.15 1062.67 1147.07 1065.55 1145.54C1068.5 1144 1071.7 1143.23 1075.15 1143.23C1081.36 1143.23 1086.13 1145.09 1089.46 1148.8C1092.78 1152.51 1094.45 1157.95 1094.45 1165.12V1192H1082.16V1166.27C1082.16 1162.18 1081.36 1159.04 1079.76 1156.86C1078.22 1154.69 1075.82 1153.6 1072.56 1153.6C1069.23 1153.6 1066.54 1154.82 1064.5 1157.25C1062.51 1159.68 1061.52 1163.07 1061.52 1167.42V1192H1049.23V1166.27C1049.23 1162.18 1048.43 1159.04 1046.83 1156.86C1045.23 1154.69 1042.77 1153.6 1039.44 1153.6C1036.18 1153.6 1033.52 1154.82 1031.47 1157.25C1029.49 1159.68 1028.5 1163.07 1028.5 1167.42V1192H1016.21ZM1128.96 1193.15C1124.36 1193.15 1120.2 1192.1 1116.48 1189.98C1112.84 1187.87 1109.92 1184.96 1107.75 1181.25C1105.64 1177.47 1104.58 1173.12 1104.58 1168.19C1104.58 1163.26 1105.67 1158.94 1107.84 1155.23C1110.02 1151.46 1112.93 1148.51 1116.58 1146.4C1120.29 1144.29 1124.45 1143.23 1129.06 1143.23C1133.6 1143.23 1137.7 1144.29 1141.35 1146.4C1145.06 1148.51 1147.97 1151.46 1150.08 1155.23C1152.26 1158.94 1153.35 1163.26 1153.35 1168.19C1153.35 1173.12 1152.26 1177.47 1150.08 1181.25C1147.97 1184.96 1145.06 1187.87 1141.35 1189.98C1137.64 1192.1 1133.51 1193.15 1128.96 1193.15ZM1128.96 1182.5C1132.16 1182.5 1134.95 1181.31 1137.32 1178.94C1139.68 1176.51 1140.87 1172.93 1140.87 1168.19C1140.87 1163.46 1139.68 1159.9 1137.32 1157.54C1134.95 1155.1 1132.2 1153.89 1129.06 1153.89C1125.8 1153.89 1122.98 1155.1 1120.61 1157.54C1118.31 1159.9 1117.16 1163.46 1117.16 1168.19C1117.16 1172.93 1118.31 1176.51 1120.61 1178.94C1122.98 1181.31 1125.76 1182.5 1128.96 1182.5ZM1174.85 1192L1157.38 1144.38H1170.25L1182.34 1180.38L1194.44 1144.38H1207.3L1189.73 1192H1174.85ZM1235.84 1193.15C1231.04 1193.15 1226.79 1192.13 1223.08 1190.08C1219.36 1188.03 1216.45 1185.15 1214.34 1181.44C1212.23 1177.73 1211.17 1173.44 1211.17 1168.58C1211.17 1163.65 1212.2 1159.26 1214.24 1155.42C1216.36 1151.58 1219.24 1148.61 1222.88 1146.5C1226.6 1144.32 1230.95 1143.23 1235.94 1143.23C1240.61 1143.23 1244.74 1144.26 1248.32 1146.3C1251.91 1148.35 1254.69 1151.17 1256.68 1154.75C1258.72 1158.27 1259.75 1162.21 1259.75 1166.56C1259.75 1167.26 1259.72 1168 1259.65 1168.77C1259.65 1169.54 1259.62 1170.34 1259.56 1171.17H1223.36C1223.62 1174.88 1224.9 1177.79 1227.2 1179.9C1229.57 1182.02 1232.42 1183.07 1235.75 1183.07C1238.24 1183.07 1240.32 1182.53 1241.99 1181.44C1243.72 1180.29 1245 1178.82 1245.83 1177.02H1258.31C1257.41 1180.03 1255.91 1182.78 1253.8 1185.28C1251.75 1187.71 1249.19 1189.63 1246.12 1191.04C1243.11 1192.45 1239.68 1193.15 1235.84 1193.15ZM1235.94 1153.22C1232.93 1153.22 1230.28 1154.08 1227.97 1155.81C1225.67 1157.47 1224.2 1160.03 1223.56 1163.49H1247.27C1247.08 1160.35 1245.92 1157.86 1243.81 1156C1241.7 1154.14 1239.08 1153.22 1235.94 1153.22ZM1291.97 1193.15C1287.49 1193.15 1283.49 1192.06 1279.97 1189.89C1276.45 1187.71 1273.67 1184.74 1271.62 1180.96C1269.57 1177.18 1268.55 1172.9 1268.55 1168.1C1268.55 1163.3 1269.57 1159.04 1271.62 1155.33C1273.67 1151.55 1276.45 1148.61 1279.97 1146.5C1283.49 1144.32 1287.49 1143.23 1291.97 1143.23C1295.56 1143.23 1298.69 1143.9 1301.38 1145.25C1304.07 1146.59 1306.24 1148.48 1307.91 1150.91V1122.88H1320.2V1192H1309.25L1307.91 1185.18C1306.37 1187.3 1304.32 1189.15 1301.76 1190.75C1299.27 1192.35 1296 1193.15 1291.97 1193.15ZM1294.56 1182.4C1298.53 1182.4 1301.76 1181.09 1304.26 1178.46C1306.82 1175.78 1308.1 1172.35 1308.1 1168.19C1308.1 1164.03 1306.82 1160.64 1304.26 1158.02C1301.76 1155.33 1298.53 1153.98 1294.56 1153.98C1290.66 1153.98 1287.43 1155.3 1284.87 1157.92C1282.31 1160.54 1281.03 1163.94 1281.03 1168.1C1281.03 1172.26 1282.31 1175.68 1284.87 1178.37C1287.43 1181.06 1290.66 1182.4 1294.56 1182.4ZM1383.81 1193.15C1380.22 1193.15 1377.09 1192.48 1374.4 1191.14C1371.71 1189.79 1369.54 1187.9 1367.87 1185.47L1366.53 1192H1355.58V1122.88H1367.87V1151.2C1369.41 1149.09 1371.42 1147.23 1373.92 1145.63C1376.48 1144.03 1379.78 1143.23 1383.81 1143.23C1388.29 1143.23 1392.29 1144.32 1395.81 1146.5C1399.33 1148.67 1402.11 1151.65 1404.16 1155.42C1406.21 1159.2 1407.23 1163.49 1407.23 1168.29C1407.23 1173.09 1406.21 1177.38 1404.16 1181.15C1402.11 1184.86 1399.33 1187.81 1395.81 1189.98C1392.29 1192.1 1388.29 1193.15 1383.81 1193.15ZM1381.22 1182.4C1385.12 1182.4 1388.35 1181.09 1390.91 1178.46C1393.47 1175.84 1394.75 1172.45 1394.75 1168.29C1394.75 1164.13 1393.47 1160.7 1390.91 1158.02C1388.35 1155.33 1385.12 1153.98 1381.22 1153.98C1377.25 1153.98 1373.98 1155.33 1371.42 1158.02C1368.93 1160.64 1367.68 1164.03 1367.68 1168.19C1367.68 1172.35 1368.93 1175.78 1371.42 1178.46C1373.98 1181.09 1377.25 1182.4 1381.22 1182.4ZM1434.62 1193.15C1430.53 1193.15 1427.17 1192.51 1424.54 1191.23C1421.92 1189.89 1419.97 1188.13 1418.69 1185.95C1417.41 1183.78 1416.77 1181.38 1416.77 1178.75C1416.77 1174.34 1418.5 1170.75 1421.95 1168C1425.41 1165.25 1430.59 1163.87 1437.5 1163.87H1449.6V1162.72C1449.6 1159.46 1448.67 1157.06 1446.82 1155.52C1444.96 1153.98 1442.66 1153.22 1439.9 1153.22C1437.41 1153.22 1435.23 1153.82 1433.38 1155.04C1431.52 1156.19 1430.37 1157.92 1429.92 1160.22H1417.92C1418.24 1156.77 1419.39 1153.76 1421.38 1151.2C1423.42 1148.64 1426.05 1146.69 1429.25 1145.34C1432.45 1143.94 1436.03 1143.23 1440 1143.23C1446.78 1143.23 1452.13 1144.93 1456.03 1148.32C1459.94 1151.71 1461.89 1156.51 1461.89 1162.72V1192H1451.42L1450.27 1184.32C1448.86 1186.88 1446.88 1188.99 1444.32 1190.66C1441.82 1192.32 1438.59 1193.15 1434.62 1193.15ZM1437.41 1183.55C1440.93 1183.55 1443.65 1182.4 1445.57 1180.1C1447.55 1177.79 1448.8 1174.94 1449.31 1171.55H1438.85C1435.58 1171.55 1433.25 1172.16 1431.84 1173.38C1430.43 1174.53 1429.73 1175.97 1429.73 1177.7C1429.73 1179.55 1430.43 1180.99 1431.84 1182.02C1433.25 1183.04 1435.1 1183.55 1437.41 1183.55ZM1496.94 1193.15C1492.08 1193.15 1487.79 1192.1 1484.08 1189.98C1480.37 1187.87 1477.42 1184.93 1475.25 1181.15C1473.14 1177.38 1472.08 1173.06 1472.08 1168.19C1472.08 1163.33 1473.14 1159.01 1475.25 1155.23C1477.42 1151.46 1480.37 1148.51 1484.08 1146.4C1487.79 1144.29 1492.08 1143.23 1496.94 1143.23C1503.02 1143.23 1508.14 1144.83 1512.3 1148.03C1516.46 1151.17 1519.12 1155.52 1520.27 1161.09H1507.31C1506.67 1158.78 1505.39 1156.99 1503.47 1155.71C1501.62 1154.37 1499.41 1153.7 1496.85 1153.7C1493.46 1153.7 1490.58 1154.98 1488.21 1157.54C1485.84 1160.1 1484.66 1163.65 1484.66 1168.19C1484.66 1172.74 1485.84 1176.29 1488.21 1178.85C1490.58 1181.41 1493.46 1182.69 1496.85 1182.69C1499.41 1182.69 1501.62 1182.05 1503.47 1180.77C1505.39 1179.49 1506.67 1177.66 1507.31 1175.3H1520.27C1519.12 1180.67 1516.46 1184.99 1512.3 1188.26C1508.14 1191.52 1503.02 1193.15 1496.94 1193.15ZM1531.18 1192V1122.88H1543.47V1163.68L1560.36 1144.38H1574.95L1555.47 1166.08L1578.12 1192H1562.76L1543.47 1168.1V1192H1531.18ZM1629.83 1192C1624.84 1192 1620.84 1190.78 1617.83 1188.35C1614.82 1185.92 1613.32 1181.6 1613.32 1175.39V1154.66H1605.16V1144.38H1613.32L1614.76 1131.62H1625.61V1144.38H1638.47V1154.66H1625.61V1175.49C1625.61 1177.79 1626.09 1179.39 1627.05 1180.29C1628.07 1181.12 1629.8 1181.54 1632.23 1181.54H1638.18V1192H1629.83ZM1670.65 1193.15C1666.04 1193.15 1661.88 1192.1 1658.17 1189.98C1654.52 1187.87 1651.61 1184.96 1649.43 1181.25C1647.32 1177.47 1646.27 1173.12 1646.27 1168.19C1646.27 1163.26 1647.35 1158.94 1649.53 1155.23C1651.71 1151.46 1654.62 1148.51 1658.27 1146.4C1661.98 1144.29 1666.14 1143.23 1670.75 1143.23C1675.29 1143.23 1679.39 1144.29 1683.03 1146.4C1686.75 1148.51 1689.66 1151.46 1691.77 1155.23C1693.95 1158.94 1695.03 1163.26 1695.03 1168.19C1695.03 1173.12 1693.95 1177.47 1691.77 1181.25C1689.66 1184.96 1686.75 1187.87 1683.03 1189.98C1679.32 1192.1 1675.19 1193.15 1670.65 1193.15ZM1670.65 1182.5C1673.85 1182.5 1676.63 1181.31 1679 1178.94C1681.37 1176.51 1682.55 1172.93 1682.55 1168.19C1682.55 1163.46 1681.37 1159.9 1679 1157.54C1676.63 1155.1 1673.88 1153.89 1670.75 1153.89C1667.48 1153.89 1664.67 1155.1 1662.3 1157.54C1659.99 1159.9 1658.84 1163.46 1658.84 1168.19C1658.84 1172.93 1659.99 1176.51 1662.3 1178.94C1664.67 1181.31 1667.45 1182.5 1670.65 1182.5ZM1745.31 1193.15C1741.22 1193.15 1737.86 1192.51 1735.23 1191.23C1732.61 1189.89 1730.66 1188.13 1729.38 1185.95C1728.1 1183.78 1727.46 1181.38 1727.46 1178.75C1727.46 1174.34 1729.18 1170.75 1732.64 1168C1736.1 1165.25 1741.28 1163.87 1748.19 1163.87H1760.29V1162.72C1760.29 1159.46 1759.36 1157.06 1757.5 1155.52C1755.65 1153.98 1753.34 1153.22 1750.59 1153.22C1748.1 1153.22 1745.92 1153.82 1744.06 1155.04C1742.21 1156.19 1741.06 1157.92 1740.61 1160.22H1728.61C1728.93 1156.77 1730.08 1153.76 1732.06 1151.2C1734.11 1148.64 1736.74 1146.69 1739.94 1145.34C1743.14 1143.94 1746.72 1143.23 1750.69 1143.23C1757.47 1143.23 1762.82 1144.93 1766.72 1148.32C1770.62 1151.71 1772.58 1156.51 1772.58 1162.72V1192H1762.11L1760.96 1184.32C1759.55 1186.88 1757.57 1188.99 1755.01 1190.66C1752.51 1192.32 1749.28 1193.15 1745.31 1193.15ZM1748.1 1183.55C1751.62 1183.55 1754.34 1182.4 1756.26 1180.1C1758.24 1177.79 1759.49 1174.94 1760 1171.55H1749.54C1746.27 1171.55 1743.94 1172.16 1742.53 1173.38C1741.12 1174.53 1740.42 1175.97 1740.42 1177.7C1740.42 1179.55 1741.12 1180.99 1742.53 1182.02C1743.94 1183.04 1745.79 1183.55 1748.1 1183.55ZM1784.3 1192V1144.38H1795.15L1796.11 1152.45C1797.58 1149.63 1799.69 1147.39 1802.45 1145.73C1805.26 1144.06 1808.56 1143.23 1812.33 1143.23C1818.22 1143.23 1822.8 1145.09 1826.06 1148.8C1829.33 1152.51 1830.96 1157.95 1830.96 1165.12V1192H1818.67V1166.27C1818.67 1162.18 1817.84 1159.04 1816.17 1156.86C1814.51 1154.69 1811.92 1153.6 1808.4 1153.6C1804.94 1153.6 1802.09 1154.82 1799.85 1157.25C1797.68 1159.68 1796.59 1163.07 1796.59 1167.42V1192H1784.3ZM1888.72 1193.15C1883.92 1193.15 1879.66 1192.13 1875.95 1190.08C1872.24 1188.03 1869.33 1185.15 1867.22 1181.44C1865.1 1177.73 1864.05 1173.44 1864.05 1168.58C1864.05 1163.65 1865.07 1159.26 1867.12 1155.42C1869.23 1151.58 1872.11 1148.61 1875.76 1146.5C1879.47 1144.32 1883.82 1143.23 1888.82 1143.23C1893.49 1143.23 1897.62 1144.26 1901.2 1146.3C1904.78 1148.35 1907.57 1151.17 1909.55 1154.75C1911.6 1158.27 1912.62 1162.21 1912.62 1166.56C1912.62 1167.26 1912.59 1168 1912.53 1168.77C1912.53 1169.54 1912.5 1170.34 1912.43 1171.17H1876.24C1876.5 1174.88 1877.78 1177.79 1880.08 1179.9C1882.45 1182.02 1885.3 1183.07 1888.62 1183.07C1891.12 1183.07 1893.2 1182.53 1894.86 1181.44C1896.59 1180.29 1897.87 1178.82 1898.7 1177.02H1911.18C1910.29 1180.03 1908.78 1182.78 1906.67 1185.28C1904.62 1187.71 1902.06 1189.63 1898.99 1191.04C1895.98 1192.45 1892.56 1193.15 1888.72 1193.15ZM1888.82 1153.22C1885.81 1153.22 1883.15 1154.08 1880.85 1155.81C1878.54 1157.47 1877.07 1160.03 1876.43 1163.49H1900.14C1899.95 1160.35 1898.8 1157.86 1896.69 1156C1894.58 1154.14 1891.95 1153.22 1888.82 1153.22ZM1939.37 1193.15C1935.28 1193.15 1931.92 1192.51 1929.29 1191.23C1926.67 1189.89 1924.72 1188.13 1923.44 1185.95C1922.16 1183.78 1921.52 1181.38 1921.52 1178.75C1921.52 1174.34 1923.25 1170.75 1926.7 1168C1930.16 1165.25 1935.34 1163.87 1942.25 1163.87H1954.35V1162.72C1954.35 1159.46 1953.42 1157.06 1951.57 1155.52C1949.71 1153.98 1947.41 1153.22 1944.65 1153.22C1942.16 1153.22 1939.98 1153.82 1938.13 1155.04C1936.27 1156.19 1935.12 1157.92 1934.67 1160.22H1922.67C1922.99 1156.77 1924.14 1153.76 1926.13 1151.2C1928.17 1148.64 1930.8 1146.69 1934 1145.34C1937.2 1143.94 1940.78 1143.23 1944.75 1143.23C1951.53 1143.23 1956.88 1144.93 1960.78 1148.32C1964.69 1151.71 1966.64 1156.51 1966.64 1162.72V1192H1956.17L1955.02 1184.32C1953.61 1186.88 1951.63 1188.99 1949.07 1190.66C1946.57 1192.32 1943.34 1193.15 1939.37 1193.15ZM1942.16 1183.55C1945.68 1183.55 1948.4 1182.4 1950.32 1180.1C1952.3 1177.79 1953.55 1174.94 1954.06 1171.55H1943.6C1940.33 1171.55 1938 1172.16 1936.59 1173.38C1935.18 1174.53 1934.48 1175.97 1934.48 1177.7C1934.48 1179.55 1935.18 1180.99 1936.59 1182.02C1938 1183.04 1939.85 1183.55 1942.16 1183.55ZM1978.37 1192V1144.38H1989.31L1990.46 1153.31C1992.19 1150.24 1994.53 1147.81 1997.47 1146.02C2000.48 1144.16 2004 1143.23 2008.03 1143.23V1156.19H2004.57C2001.89 1156.19 1999.49 1156.61 1997.37 1157.44C1995.26 1158.27 1993.6 1159.71 1992.38 1161.76C1991.23 1163.81 1990.65 1166.66 1990.65 1170.3V1192H1978.37ZM2016.43 1192V1122.88H2028.72V1192H2016.43ZM2047.9 1136.99C2045.66 1136.99 2043.8 1136.32 2042.33 1134.98C2040.92 1133.63 2040.22 1131.94 2040.22 1129.89C2040.22 1127.84 2040.92 1126.18 2042.33 1124.9C2043.8 1123.55 2045.66 1122.88 2047.9 1122.88C2050.14 1122.88 2051.96 1123.55 2053.37 1124.9C2054.84 1126.18 2055.58 1127.84 2055.58 1129.89C2055.58 1131.94 2054.84 1133.63 2053.37 1134.98C2051.96 1136.32 2050.14 1136.99 2047.9 1136.99ZM2041.75 1192V1144.38H2054.04V1192H2041.75ZM2090 1193.15C2085.2 1193.15 2080.95 1192.13 2077.23 1190.08C2073.52 1188.03 2070.61 1185.15 2068.5 1181.44C2066.39 1177.73 2065.33 1173.44 2065.33 1168.58C2065.33 1163.65 2066.35 1159.26 2068.4 1155.42C2070.51 1151.58 2073.39 1148.61 2077.04 1146.5C2080.75 1144.32 2085.11 1143.23 2090.1 1143.23C2094.77 1143.23 2098.9 1144.26 2102.48 1146.3C2106.07 1148.35 2108.85 1151.17 2110.83 1154.75C2112.88 1158.27 2113.91 1162.21 2113.91 1166.56C2113.91 1167.26 2113.87 1168 2113.81 1168.77C2113.81 1169.54 2113.78 1170.34 2113.71 1171.17H2077.52C2077.78 1174.88 2079.06 1177.79 2081.36 1179.9C2083.73 1182.02 2086.58 1183.07 2089.91 1183.07C2092.4 1183.07 2094.48 1182.53 2096.15 1181.44C2097.87 1180.29 2099.15 1178.82 2099.99 1177.02H2112.47C2111.57 1180.03 2110.07 1182.78 2107.95 1185.28C2105.91 1187.71 2103.35 1189.63 2100.27 1191.04C2097.27 1192.45 2093.84 1193.15 2090 1193.15ZM2090.1 1153.22C2087.09 1153.22 2084.43 1154.08 2082.13 1155.81C2079.83 1157.47 2078.35 1160.03 2077.71 1163.49H2101.43C2101.23 1160.35 2100.08 1157.86 2097.97 1156C2095.86 1154.14 2093.23 1153.22 2090.1 1153.22ZM2124.24 1192V1144.38H2135.18L2136.34 1153.31C2138.06 1150.24 2140.4 1147.81 2143.34 1146.02C2146.35 1144.16 2149.87 1143.23 2153.9 1143.23V1156.19H2150.45C2147.76 1156.19 2145.36 1156.61 2143.25 1157.44C2141.14 1158.27 2139.47 1159.71 2138.26 1161.76C2137.1 1163.81 2136.53 1166.66 2136.53 1170.3V1192H2124.24ZM29.568 1318.15C24.704 1318.15 20.416 1317.1 16.704 1314.98C12.992 1312.87 10.048 1309.93 7.872 1306.15C5.76 1302.38 4.704 1298.06 4.704 1293.19C4.704 1288.33 5.76 1284.01 7.872 1280.23C10.048 1276.46 12.992 1273.51 16.704 1271.4C20.416 1269.29 24.704 1268.23 29.568 1268.23C35.648 1268.23 40.768 1269.83 44.928 1273.03C49.088 1276.17 51.744 1280.52 52.896 1286.09H39.936C39.296 1283.78 38.016 1281.99 36.096 1280.71C34.24 1279.37 32.032 1278.7 29.472 1278.7C26.08 1278.7 23.2 1279.98 20.832 1282.54C18.464 1285.1 17.28 1288.65 17.28 1293.19C17.28 1297.74 18.464 1301.29 20.832 1303.85C23.2 1306.41 26.08 1307.69 29.472 1307.69C32.032 1307.69 34.24 1307.05 36.096 1305.77C38.016 1304.49 39.296 1302.66 39.936 1300.3H52.896C51.744 1305.67 49.088 1309.99 44.928 1313.26C40.768 1316.52 35.648 1318.15 29.568 1318.15ZM86.6505 1318.15C82.0425 1318.15 77.8825 1317.1 74.1705 1314.98C70.5225 1312.87 67.6105 1309.96 65.4345 1306.25C63.3225 1302.47 62.2665 1298.12 62.2665 1293.19C62.2665 1288.26 63.3545 1283.94 65.5305 1280.23C67.7065 1276.46 70.6185 1273.51 74.2665 1271.4C77.9785 1269.29 82.1385 1268.23 86.7465 1268.23C91.2905 1268.23 95.3865 1269.29 99.0345 1271.4C102.747 1273.51 105.659 1276.46 107.771 1280.23C109.947 1283.94 111.035 1288.26 111.035 1293.19C111.035 1298.12 109.947 1302.47 107.771 1306.25C105.659 1309.96 102.747 1312.87 99.0345 1314.98C95.3225 1317.1 91.1945 1318.15 86.6505 1318.15ZM86.6505 1307.5C89.8505 1307.5 92.6345 1306.31 95.0025 1303.94C97.3705 1301.51 98.5545 1297.93 98.5545 1293.19C98.5545 1288.46 97.3705 1284.9 95.0025 1282.54C92.6345 1280.1 89.8825 1278.89 86.7465 1278.89C83.4825 1278.89 80.6665 1280.1 78.2985 1282.54C75.9945 1284.9 74.8425 1288.46 74.8425 1293.19C74.8425 1297.93 75.9945 1301.51 78.2985 1303.94C80.6665 1306.31 83.4505 1307.5 86.6505 1307.5ZM122.021 1317V1269.38H132.869L133.925 1275.82C135.461 1273.51 137.477 1271.69 139.973 1270.34C142.533 1268.94 145.477 1268.23 148.805 1268.23C156.165 1268.23 161.381 1271.08 164.453 1276.78C166.181 1274.15 168.485 1272.07 171.365 1270.54C174.309 1269 177.509 1268.23 180.965 1268.23C187.173 1268.23 191.941 1270.09 195.269 1273.8C198.597 1277.51 200.261 1282.95 200.261 1290.12V1317H187.973V1291.27C187.973 1287.18 187.173 1284.04 185.573 1281.86C184.037 1279.69 181.637 1278.6 178.373 1278.6C175.045 1278.6 172.357 1279.82 170.309 1282.25C168.325 1284.68 167.333 1288.07 167.333 1292.42V1317H155.045V1291.27C155.045 1287.18 154.245 1284.04 152.645 1281.86C151.045 1279.69 148.581 1278.6 145.253 1278.6C141.989 1278.6 139.333 1279.82 137.285 1282.25C135.301 1284.68 134.309 1288.07 134.309 1292.42V1317H122.021ZM211.928 1317V1269.38H222.776L223.832 1275.82C225.368 1273.51 227.384 1271.69 229.88 1270.34C232.44 1268.94 235.384 1268.23 238.712 1268.23C246.072 1268.23 251.288 1271.08 254.36 1276.78C256.088 1274.15 258.392 1272.07 261.272 1270.54C264.216 1269 267.416 1268.23 270.872 1268.23C277.08 1268.23 281.848 1270.09 285.176 1273.8C288.504 1277.51 290.168 1282.95 290.168 1290.12V1317H277.88V1291.27C277.88 1287.18 277.08 1284.04 275.48 1281.86C273.944 1279.69 271.544 1278.6 268.28 1278.6C264.952 1278.6 262.264 1279.82 260.216 1282.25C258.232 1284.68 257.24 1288.07 257.24 1292.42V1317H244.952V1291.27C244.952 1287.18 244.152 1284.04 242.552 1281.86C240.952 1279.69 238.488 1278.6 235.16 1278.6C231.896 1278.6 229.24 1279.82 227.192 1282.25C225.208 1284.68 224.216 1288.07 224.216 1292.42V1317H211.928ZM308.458 1261.99C306.218 1261.99 304.362 1261.32 302.89 1259.98C301.482 1258.63 300.778 1256.94 300.778 1254.89C300.778 1252.84 301.482 1251.18 302.89 1249.9C304.362 1248.55 306.218 1247.88 308.458 1247.88C310.698 1247.88 312.522 1248.55 313.93 1249.9C315.402 1251.18 316.138 1252.84 316.138 1254.89C316.138 1256.94 315.402 1258.63 313.93 1259.98C312.522 1261.32 310.698 1261.99 308.458 1261.99ZM302.314 1317V1269.38H314.602V1317H302.314ZM348.644 1317C343.652 1317 339.652 1315.78 336.644 1313.35C333.636 1310.92 332.132 1306.6 332.132 1300.39V1279.66H323.972V1269.38H332.132L333.572 1256.62H344.42V1269.38H357.284V1279.66H344.42V1300.49C344.42 1302.79 344.9 1304.39 345.859 1305.29C346.884 1306.12 348.612 1306.54 351.044 1306.54H356.996V1317H348.644ZM365.469 1328.14L370.941 1304.23H382.845L373.533 1328.14H365.469ZM438.595 1318.15C433.795 1318.15 429.539 1317.13 425.827 1315.08C422.115 1313.03 419.203 1310.15 417.091 1306.44C414.979 1302.73 413.923 1298.44 413.923 1293.58C413.923 1288.65 414.947 1284.26 416.995 1280.42C419.107 1276.58 421.987 1273.61 425.635 1271.5C429.347 1269.32 433.699 1268.23 438.691 1268.23C443.363 1268.23 447.491 1269.26 451.075 1271.3C454.659 1273.35 457.443 1276.17 459.427 1279.75C461.475 1283.27 462.499 1287.21 462.499 1291.56C462.499 1292.26 462.467 1293 462.403 1293.77C462.403 1294.54 462.371 1295.34 462.307 1296.17H426.115C426.371 1299.88 427.651 1302.79 429.955 1304.9C432.323 1307.02 435.171 1308.07 438.499 1308.07C440.995 1308.07 443.075 1307.53 444.739 1306.44C446.467 1305.29 447.747 1303.82 448.579 1302.02H461.059C460.163 1305.03 458.659 1307.78 456.547 1310.28C454.499 1312.71 451.939 1314.63 448.867 1316.04C445.859 1317.45 442.435 1318.15 438.595 1318.15ZM438.691 1278.22C435.683 1278.22 433.027 1279.08 430.723 1280.81C428.419 1282.47 426.947 1285.03 426.307 1288.49H450.019C449.827 1285.35 448.675 1282.86 446.563 1281C444.451 1279.14 441.827 1278.22 438.691 1278.22ZM472.834 1317V1269.38H483.778L484.93 1278.31C486.658 1275.24 488.994 1272.81 491.938 1271.02C494.946 1269.16 498.466 1268.23 502.498 1268.23V1281.19H499.042C496.354 1281.19 493.954 1281.61 491.842 1282.44C489.73 1283.27 488.066 1284.71 486.85 1286.76C485.698 1288.81 485.122 1291.66 485.122 1295.3V1317H472.834ZM527.312 1318.15C523.216 1318.15 519.856 1317.51 517.232 1316.23C514.608 1314.89 512.656 1313.13 511.376 1310.95C510.096 1308.78 509.456 1306.38 509.456 1303.75C509.456 1299.34 511.184 1295.75 514.64 1293C518.096 1290.25 523.28 1288.87 530.192 1288.87H542.288V1287.72C542.288 1284.46 541.36 1282.06 539.504 1280.52C537.648 1278.98 535.344 1278.22 532.592 1278.22C530.096 1278.22 527.92 1278.82 526.064 1280.04C524.208 1281.19 523.056 1282.92 522.608 1285.22H510.608C510.928 1281.77 512.08 1278.76 514.064 1276.2C516.112 1273.64 518.736 1271.69 521.936 1270.34C525.136 1268.94 528.72 1268.23 532.688 1268.23C539.472 1268.23 544.816 1269.93 548.72 1273.32C552.624 1276.71 554.576 1281.51 554.576 1287.72V1317H544.112L542.96 1309.32C541.552 1311.88 539.568 1313.99 537.008 1315.66C534.512 1317.32 531.28 1318.15 527.312 1318.15ZM530.096 1308.55C533.616 1308.55 536.336 1307.4 538.256 1305.1C540.24 1302.79 541.488 1299.94 542 1296.55H531.536C528.272 1296.55 525.936 1297.16 524.528 1298.38C523.12 1299.53 522.416 1300.97 522.416 1302.7C522.416 1304.55 523.12 1305.99 524.528 1307.02C525.936 1308.04 527.792 1308.55 530.096 1308.55ZM585.983 1318.15C581.759 1318.15 578.047 1317.48 574.847 1316.14C571.647 1314.73 569.087 1312.81 567.167 1310.38C565.247 1307.94 564.095 1305.13 563.711 1301.93H576.095C576.479 1303.78 577.503 1305.38 579.167 1306.73C580.895 1308.01 583.103 1308.65 585.791 1308.65C588.479 1308.65 590.431 1308.1 591.647 1307.02C592.927 1305.93 593.567 1304.68 593.567 1303.27C593.567 1301.22 592.671 1299.85 590.879 1299.14C589.087 1298.38 586.591 1297.64 583.391 1296.94C581.343 1296.49 579.263 1295.94 577.151 1295.3C575.039 1294.66 573.087 1293.86 571.295 1292.9C569.567 1291.88 568.159 1290.6 567.071 1289.06C565.983 1287.46 565.439 1285.51 565.439 1283.21C565.439 1278.98 567.103 1275.43 570.431 1272.55C573.823 1269.67 578.559 1268.23 584.639 1268.23C590.271 1268.23 594.751 1269.54 598.079 1272.17C601.471 1274.79 603.487 1278.41 604.127 1283.02H592.511C591.807 1279.5 589.151 1277.74 584.543 1277.74C582.239 1277.74 580.447 1278.18 579.167 1279.08C577.951 1279.98 577.343 1281.1 577.343 1282.44C577.343 1283.85 578.271 1284.97 580.127 1285.8C581.983 1286.63 584.447 1287.4 587.519 1288.1C590.847 1288.87 593.887 1289.74 596.639 1290.7C599.455 1291.59 601.695 1292.97 603.359 1294.82C605.023 1296.62 605.855 1299.21 605.855 1302.6C605.919 1305.54 605.151 1308.2 603.551 1310.57C601.951 1312.94 599.647 1314.79 596.639 1316.14C593.631 1317.48 590.079 1318.15 585.983 1318.15ZM623.364 1261.99C621.124 1261.99 619.268 1261.32 617.796 1259.98C616.388 1258.63 615.684 1256.94 615.684 1254.89C615.684 1252.84 616.388 1251.18 617.796 1249.9C619.268 1248.55 621.124 1247.88 623.364 1247.88C625.604 1247.88 627.428 1248.55 628.836 1249.9C630.308 1251.18 631.044 1252.84 631.044 1254.89C631.044 1256.94 630.308 1258.63 628.836 1259.98C627.428 1261.32 625.604 1261.99 623.364 1261.99ZM617.22 1317V1269.38H629.508V1317H617.22ZM642.334 1317V1269.38H653.182L654.142 1277.45C655.614 1274.63 657.726 1272.39 660.478 1270.73C663.294 1269.06 666.59 1268.23 670.366 1268.23C676.254 1268.23 680.83 1270.09 684.094 1273.8C687.358 1277.51 688.99 1282.95 688.99 1290.12V1317H676.702V1291.27C676.702 1287.18 675.87 1284.04 674.206 1281.86C672.542 1279.69 669.95 1278.6 666.43 1278.6C662.974 1278.6 660.126 1279.82 657.886 1282.25C655.71 1284.68 654.622 1288.07 654.622 1292.42V1317H642.334ZM720.9 1302.79C718.596 1302.79 716.452 1302.54 714.468 1302.02L710.916 1305.58C712.004 1306.15 713.476 1306.63 715.332 1307.02C717.188 1307.4 720.196 1307.78 724.356 1308.17C730.692 1308.74 735.3 1310.25 738.18 1312.68C741.06 1315.11 742.5 1318.47 742.5 1322.76C742.5 1325.58 741.732 1328.23 740.196 1330.73C738.66 1333.29 736.292 1335.34 733.092 1336.87C729.892 1338.47 725.796 1339.27 720.804 1339.27C714.02 1339.27 708.548 1337.99 704.388 1335.43C700.228 1332.94 698.148 1329.16 698.148 1324.1C698.148 1319.82 700.228 1316.1 704.388 1312.97C703.108 1312.39 701.988 1311.78 701.028 1311.14C700.132 1310.5 699.332 1309.83 698.628 1309.13V1306.92L706.98 1298.09C703.268 1294.82 701.412 1290.63 701.412 1285.51C701.412 1282.31 702.18 1279.4 703.716 1276.78C705.316 1274.15 707.556 1272.07 710.436 1270.54C713.316 1269 716.804 1268.23 720.9 1268.23C723.588 1268.23 726.084 1268.62 728.388 1269.38H746.436V1276.87L738.276 1277.45C739.556 1279.88 740.196 1282.57 740.196 1285.51C740.196 1288.71 739.428 1291.62 737.892 1294.25C736.356 1296.87 734.116 1298.95 731.172 1300.49C728.292 1302.02 724.868 1302.79 720.9 1302.79ZM720.9 1293.38C723.396 1293.38 725.444 1292.71 727.044 1291.37C728.708 1290.02 729.54 1288.1 729.54 1285.61C729.54 1283.11 728.708 1281.19 727.044 1279.85C725.444 1278.5 723.396 1277.83 720.9 1277.83C718.276 1277.83 716.164 1278.5 714.564 1279.85C712.964 1281.19 712.164 1283.11 712.164 1285.61C712.164 1288.1 712.964 1290.02 714.564 1291.37C716.164 1292.71 718.276 1293.38 720.9 1293.38ZM709.38 1322.86C709.38 1325.22 710.468 1326.98 712.644 1328.14C714.884 1329.35 717.604 1329.96 720.804 1329.96C723.876 1329.96 726.372 1329.32 728.292 1328.04C730.212 1326.82 731.172 1325.16 731.172 1323.05C731.172 1321.32 730.532 1319.88 729.252 1318.73C728.036 1317.58 725.572 1316.87 721.86 1316.62C719.236 1316.42 716.804 1316.14 714.564 1315.75C712.708 1316.78 711.364 1317.9 710.532 1319.11C709.764 1320.33 709.38 1321.58 709.38 1322.86ZM799.487 1317C794.495 1317 790.495 1315.78 787.487 1313.35C784.479 1310.92 782.975 1306.6 782.975 1300.39V1279.66H774.815V1269.38H782.975L784.415 1256.62H795.263V1269.38H808.127V1279.66H795.263V1300.49C795.263 1302.79 795.743 1304.39 796.703 1305.29C797.727 1306.12 799.455 1306.54 801.887 1306.54H807.839V1317H799.487ZM818.678 1317V1247.88H830.966V1276.68C832.566 1274.06 834.71 1272.01 837.398 1270.54C840.15 1269 843.286 1268.23 846.806 1268.23C852.694 1268.23 857.238 1270.09 860.438 1273.8C863.701 1277.51 865.333 1282.95 865.333 1290.12V1317H853.142V1291.27C853.142 1287.18 852.31 1284.04 850.646 1281.86C849.046 1279.69 846.486 1278.6 842.966 1278.6C839.51 1278.6 836.63 1279.82 834.326 1282.25C832.086 1284.68 830.966 1288.07 830.966 1292.42V1317H818.678ZM900.22 1318.15C895.42 1318.15 891.164 1317.13 887.452 1315.08C883.74 1313.03 880.828 1310.15 878.716 1306.44C876.604 1302.73 875.548 1298.44 875.548 1293.58C875.548 1288.65 876.572 1284.26 878.62 1280.42C880.732 1276.58 883.612 1273.61 887.26 1271.5C890.972 1269.32 895.324 1268.23 900.316 1268.23C904.988 1268.23 909.116 1269.26 912.7 1271.3C916.284 1273.35 919.068 1276.17 921.052 1279.75C923.1 1283.27 924.124 1287.21 924.124 1291.56C924.124 1292.26 924.092 1293 924.028 1293.77C924.028 1294.54 923.996 1295.34 923.932 1296.17H887.74C887.996 1299.88 889.276 1302.79 891.58 1304.9C893.948 1307.02 896.796 1308.07 900.124 1308.07C902.62 1308.07 904.7 1307.53 906.364 1306.44C908.092 1305.29 909.372 1303.82 910.204 1302.02H922.684C921.788 1305.03 920.284 1307.78 918.172 1310.28C916.124 1312.71 913.564 1314.63 910.492 1316.04C907.484 1317.45 904.06 1318.15 900.22 1318.15ZM900.316 1278.22C897.308 1278.22 894.652 1279.08 892.348 1280.81C890.044 1282.47 888.572 1285.03 887.932 1288.49H911.644C911.452 1285.35 910.3 1282.86 908.188 1281C906.076 1279.14 903.452 1278.22 900.316 1278.22ZM955.99 1317V1308.07C960.086 1304.68 964.054 1301.32 967.894 1297.99C971.798 1294.66 975.254 1291.37 978.262 1288.1C981.334 1284.84 983.766 1281.67 985.558 1278.6C987.414 1275.46 988.342 1272.42 988.342 1269.48C988.342 1266.73 987.574 1264.3 986.038 1262.18C984.566 1260.07 982.102 1259.02 978.646 1259.02C975.126 1259.02 972.47 1260.17 970.678 1262.47C968.886 1264.78 967.99 1267.56 967.99 1270.82H956.086C956.214 1265.9 957.302 1261.8 959.35 1258.54C961.398 1255.21 964.118 1252.74 967.51 1251.14C970.902 1249.48 974.71 1248.65 978.934 1248.65C985.782 1248.65 991.094 1250.54 994.87 1254.31C998.71 1258.02 1000.63 1262.86 1000.63 1268.81C1000.63 1272.52 999.766 1276.14 998.038 1279.66C996.374 1283.18 994.166 1286.57 991.414 1289.83C988.662 1293.1 985.686 1296.17 982.486 1299.05C979.286 1301.86 976.182 1304.49 973.174 1306.92H1002.26V1317H955.99ZM1035.05 1317V1247.88H1047.34V1317H1035.05ZM1076.31 1318.15C1072.22 1318.15 1068.86 1317.51 1066.23 1316.23C1063.61 1314.89 1061.66 1313.13 1060.38 1310.95C1059.1 1308.78 1058.46 1306.38 1058.46 1303.75C1058.46 1299.34 1060.18 1295.75 1063.64 1293C1067.1 1290.25 1072.28 1288.87 1079.19 1288.87H1091.29V1287.72C1091.29 1284.46 1090.36 1282.06 1088.5 1280.52C1086.65 1278.98 1084.34 1278.22 1081.59 1278.22C1079.1 1278.22 1076.92 1278.82 1075.06 1280.04C1073.21 1281.19 1072.06 1282.92 1071.61 1285.22H1059.61C1059.93 1281.77 1061.08 1278.76 1063.06 1276.2C1065.11 1273.64 1067.74 1271.69 1070.94 1270.34C1074.14 1268.94 1077.72 1268.23 1081.69 1268.23C1088.47 1268.23 1093.82 1269.93 1097.72 1273.32C1101.62 1276.71 1103.58 1281.51 1103.58 1287.72V1317H1093.11L1091.96 1309.32C1090.55 1311.88 1088.57 1313.99 1086.01 1315.66C1083.51 1317.32 1080.28 1318.15 1076.31 1318.15ZM1079.1 1308.55C1082.62 1308.55 1085.34 1307.4 1087.26 1305.1C1089.24 1302.79 1090.49 1299.94 1091 1296.55H1080.54C1077.27 1296.55 1074.94 1297.16 1073.53 1298.38C1072.12 1299.53 1071.42 1300.97 1071.42 1302.7C1071.42 1304.55 1072.12 1305.99 1073.53 1307.02C1074.94 1308.04 1076.79 1308.55 1079.1 1308.55ZM1135.86 1317C1130.87 1317 1126.87 1315.78 1123.86 1313.35C1120.85 1310.92 1119.35 1306.6 1119.35 1300.39V1279.66H1111.19V1269.38H1119.35L1120.79 1256.62H1131.64V1269.38H1144.5V1279.66H1131.64V1300.49C1131.64 1302.79 1132.12 1304.39 1133.08 1305.29C1134.1 1306.12 1135.83 1306.54 1138.26 1306.54H1144.21V1317H1135.86ZM1176.97 1318.15C1172.17 1318.15 1167.91 1317.13 1164.2 1315.08C1160.49 1313.03 1157.58 1310.15 1155.47 1306.44C1153.35 1302.73 1152.3 1298.44 1152.3 1293.58C1152.3 1288.65 1153.32 1284.26 1155.37 1280.42C1157.48 1276.58 1160.36 1273.61 1164.01 1271.5C1167.72 1269.32 1172.07 1268.23 1177.07 1268.23C1181.74 1268.23 1185.87 1269.26 1189.45 1271.3C1193.03 1273.35 1195.82 1276.17 1197.8 1279.75C1199.85 1283.27 1200.87 1287.21 1200.87 1291.56C1200.87 1292.26 1200.84 1293 1200.78 1293.77C1200.78 1294.54 1200.75 1295.34 1200.68 1296.17H1164.49C1164.75 1299.88 1166.03 1302.79 1168.33 1304.9C1170.7 1307.02 1173.55 1308.07 1176.87 1308.07C1179.37 1308.07 1181.45 1307.53 1183.11 1306.44C1184.84 1305.29 1186.12 1303.82 1186.95 1302.02H1199.43C1198.54 1305.03 1197.03 1307.78 1194.92 1310.28C1192.87 1312.71 1190.31 1314.63 1187.24 1316.04C1184.23 1317.45 1180.81 1318.15 1176.97 1318.15ZM1177.07 1278.22C1174.06 1278.22 1171.4 1279.08 1169.1 1280.81C1166.79 1282.47 1165.32 1285.03 1164.68 1288.49H1188.39C1188.2 1285.35 1187.05 1282.86 1184.94 1281C1182.83 1279.14 1180.2 1278.22 1177.07 1278.22ZM1211.21 1317V1269.38H1222.15L1223.3 1278.31C1225.03 1275.24 1227.37 1272.81 1230.31 1271.02C1233.32 1269.16 1236.84 1268.23 1240.87 1268.23V1281.19H1237.42C1234.73 1281.19 1232.33 1281.61 1230.22 1282.44C1228.1 1283.27 1226.44 1284.71 1225.22 1286.76C1224.07 1288.81 1223.5 1291.66 1223.5 1295.3V1317H1211.21ZM1295.47 1318.15C1290.61 1318.15 1286.32 1317.1 1282.61 1314.98C1278.9 1312.87 1275.95 1309.93 1273.78 1306.15C1271.67 1302.38 1270.61 1298.06 1270.61 1293.19C1270.61 1288.33 1271.67 1284.01 1273.78 1280.23C1275.95 1276.46 1278.9 1273.51 1282.61 1271.4C1286.32 1269.29 1290.61 1268.23 1295.47 1268.23C1301.55 1268.23 1306.67 1269.83 1310.83 1273.03C1314.99 1276.17 1317.65 1280.52 1318.8 1286.09H1305.84C1305.2 1283.78 1303.92 1281.99 1302 1280.71C1300.15 1279.37 1297.94 1278.7 1295.38 1278.7C1291.99 1278.7 1289.11 1279.98 1286.74 1282.54C1284.37 1285.1 1283.19 1288.65 1283.19 1293.19C1283.19 1297.74 1284.37 1301.29 1286.74 1303.85C1289.11 1306.41 1291.99 1307.69 1295.38 1307.69C1297.94 1307.69 1300.15 1307.05 1302 1305.77C1303.92 1304.49 1305.2 1302.66 1305.84 1300.3H1318.8C1317.65 1305.67 1314.99 1309.99 1310.83 1313.26C1306.67 1316.52 1301.55 1318.15 1295.47 1318.15ZM1352.56 1318.15C1347.95 1318.15 1343.79 1317.1 1340.08 1314.98C1336.43 1312.87 1333.52 1309.96 1331.34 1306.25C1329.23 1302.47 1328.17 1298.12 1328.17 1293.19C1328.17 1288.26 1329.26 1283.94 1331.44 1280.23C1333.61 1276.46 1336.52 1273.51 1340.17 1271.4C1343.88 1269.29 1348.04 1268.23 1352.65 1268.23C1357.2 1268.23 1361.29 1269.29 1364.94 1271.4C1368.65 1273.51 1371.56 1276.46 1373.68 1280.23C1375.85 1283.94 1376.94 1288.26 1376.94 1293.19C1376.94 1298.12 1375.85 1302.47 1373.68 1306.25C1371.56 1309.96 1368.65 1312.87 1364.94 1314.98C1361.23 1317.1 1357.1 1318.15 1352.56 1318.15ZM1352.56 1307.5C1355.76 1307.5 1358.54 1306.31 1360.91 1303.94C1363.28 1301.51 1364.46 1297.93 1364.46 1293.19C1364.46 1288.46 1363.28 1284.9 1360.91 1282.54C1358.54 1280.1 1355.79 1278.89 1352.65 1278.89C1349.39 1278.89 1346.57 1280.1 1344.2 1282.54C1341.9 1284.9 1340.75 1288.46 1340.75 1293.19C1340.75 1297.93 1341.9 1301.51 1344.2 1303.94C1346.57 1306.31 1349.36 1307.5 1352.56 1307.5ZM1387.93 1317V1269.38H1398.78L1399.83 1275.82C1401.37 1273.51 1403.38 1271.69 1405.88 1270.34C1408.44 1268.94 1411.38 1268.23 1414.71 1268.23C1422.07 1268.23 1427.29 1271.08 1430.36 1276.78C1432.09 1274.15 1434.39 1272.07 1437.27 1270.54C1440.22 1269 1443.42 1268.23 1446.87 1268.23C1453.08 1268.23 1457.85 1270.09 1461.18 1273.8C1464.5 1277.51 1466.17 1282.95 1466.17 1290.12V1317H1453.88V1291.27C1453.88 1287.18 1453.08 1284.04 1451.48 1281.86C1449.94 1279.69 1447.54 1278.6 1444.28 1278.6C1440.95 1278.6 1438.26 1279.82 1436.22 1282.25C1434.23 1284.68 1433.24 1288.07 1433.24 1292.42V1317H1420.95V1291.27C1420.95 1287.18 1420.15 1284.04 1418.55 1281.86C1416.95 1279.69 1414.49 1278.6 1411.16 1278.6C1407.9 1278.6 1405.24 1279.82 1403.19 1282.25C1401.21 1284.68 1400.22 1288.07 1400.22 1292.42V1317H1387.93ZM1477.83 1317V1269.38H1488.68L1489.74 1275.82C1491.27 1273.51 1493.29 1271.69 1495.79 1270.34C1498.35 1268.94 1501.29 1268.23 1504.62 1268.23C1511.98 1268.23 1517.19 1271.08 1520.27 1276.78C1521.99 1274.15 1524.3 1272.07 1527.18 1270.54C1530.12 1269 1533.32 1268.23 1536.78 1268.23C1542.99 1268.23 1547.75 1270.09 1551.08 1273.8C1554.41 1277.51 1556.07 1282.95 1556.07 1290.12V1317H1543.79V1291.27C1543.79 1287.18 1542.99 1284.04 1541.39 1281.86C1539.85 1279.69 1537.45 1278.6 1534.19 1278.6C1530.86 1278.6 1528.17 1279.82 1526.12 1282.25C1524.14 1284.68 1523.15 1288.07 1523.15 1292.42V1317H1510.86V1291.27C1510.86 1287.18 1510.06 1284.04 1508.46 1281.86C1506.86 1279.69 1504.39 1278.6 1501.07 1278.6C1497.8 1278.6 1495.15 1279.82 1493.1 1282.25C1491.11 1284.68 1490.12 1288.07 1490.12 1292.42V1317H1477.83ZM1574.36 1261.99C1572.12 1261.99 1570.27 1261.32 1568.8 1259.98C1567.39 1258.63 1566.68 1256.94 1566.68 1254.89C1566.68 1252.84 1567.39 1251.18 1568.8 1249.9C1570.27 1248.55 1572.12 1247.88 1574.36 1247.88C1576.6 1247.88 1578.43 1248.55 1579.84 1249.9C1581.31 1251.18 1582.04 1252.84 1582.04 1254.89C1582.04 1256.94 1581.31 1258.63 1579.84 1259.98C1578.43 1261.32 1576.6 1261.99 1574.36 1261.99ZM1568.22 1317V1269.38H1580.51V1317H1568.22ZM1614.55 1317C1609.56 1317 1605.56 1315.78 1602.55 1313.35C1599.54 1310.92 1598.04 1306.6 1598.04 1300.39V1279.66H1589.88V1269.38H1598.04L1599.48 1256.62H1610.33V1269.38H1623.19V1279.66H1610.33V1300.49C1610.33 1302.79 1610.81 1304.39 1611.77 1305.29C1612.79 1306.12 1614.52 1306.54 1616.95 1306.54H1622.9V1317H1614.55ZM1653.42 1318.15C1649.2 1318.15 1645.48 1317.48 1642.28 1316.14C1639.08 1314.73 1636.52 1312.81 1634.6 1310.38C1632.68 1307.94 1631.53 1305.13 1631.15 1301.93H1643.53C1643.92 1303.78 1644.94 1305.38 1646.6 1306.73C1648.33 1308.01 1650.54 1308.65 1653.23 1308.65C1655.92 1308.65 1657.87 1308.1 1659.08 1307.02C1660.36 1305.93 1661 1304.68 1661 1303.27C1661 1301.22 1660.11 1299.85 1658.32 1299.14C1656.52 1298.38 1654.03 1297.64 1650.83 1296.94C1648.78 1296.49 1646.7 1295.94 1644.59 1295.3C1642.48 1294.66 1640.52 1293.86 1638.73 1292.9C1637 1291.88 1635.6 1290.6 1634.51 1289.06C1633.42 1287.46 1632.88 1285.51 1632.88 1283.21C1632.88 1278.98 1634.54 1275.43 1637.87 1272.55C1641.26 1269.67 1646 1268.23 1652.08 1268.23C1657.71 1268.23 1662.19 1269.54 1665.52 1272.17C1668.91 1274.79 1670.92 1278.41 1671.56 1283.02H1659.95C1659.24 1279.5 1656.59 1277.74 1651.98 1277.74C1649.68 1277.74 1647.88 1278.18 1646.6 1279.08C1645.39 1279.98 1644.78 1281.1 1644.78 1282.44C1644.78 1283.85 1645.71 1284.97 1647.56 1285.8C1649.42 1286.63 1651.88 1287.4 1654.96 1288.1C1658.28 1288.87 1661.32 1289.74 1664.08 1290.7C1666.89 1291.59 1669.13 1292.97 1670.8 1294.82C1672.46 1296.62 1673.29 1299.21 1673.29 1302.6C1673.36 1305.54 1672.59 1308.2 1670.99 1310.57C1669.39 1312.94 1667.08 1314.79 1664.08 1316.14C1661.07 1317.48 1657.52 1318.15 1653.42 1318.15ZM1689.46 1317.67C1687.22 1317.67 1685.36 1316.97 1683.89 1315.56C1682.48 1314.15 1681.78 1312.46 1681.78 1310.47C1681.78 1308.42 1682.48 1306.7 1683.89 1305.29C1685.36 1303.88 1687.22 1303.18 1689.46 1303.18C1691.7 1303.18 1693.52 1303.88 1694.93 1305.29C1696.4 1306.7 1697.14 1308.42 1697.14 1310.47C1697.14 1312.46 1696.4 1314.15 1694.93 1315.56C1693.52 1316.97 1691.7 1317.67 1689.46 1317.67Z" fill="#FF6347"/>
</svg>
