<svg width="3790" height="2377" viewBox="0 0 3790 2377" fill="none" xmlns="http://www.w3.org/2000/svg">
<rect y="554" width="400" height="400" rx="200" fill="#3498DB"/>
<rect x="3298" y="1415" width="400" height="400" rx="200" fill="#9B59B6"/>
<rect x="2470" y="1605" width="828" height="21" fill="#545454"/>
<rect x="400" y="744" width="828" height="21" fill="#545454"/>
<rect x="1400.84" y="471" width="400" height="400" rx="200" transform="rotate(45 1400.84 471)" fill="#3498DB"/>
<rect x="2276.24" y="1332.26" width="400" height="400" rx="200" transform="rotate(45 2276.24 1332.26)" fill="#9B59B6"/>
<rect x="1549.33" y="888.193" width="828" height="21" transform="rotate(45 1549.33 888.193)" fill="#545454"/>
<rect x="3460.14" y="1322.11" width="4.43438" height="53.39" transform="rotate(-45 3460.14 1322.11)" fill="black" stroke="black" stroke-width="4.43438"/>
<rect x="3495.51" y="1109.25" width="4.5" height="240.5" fill="black" stroke="black" stroke-width="4.5"/>
<rect x="3532.5" y="1318.98" width="4.43438" height="53.39" transform="rotate(45 3532.5 1318.98)" fill="black" stroke="black" stroke-width="4.43438"/>
<rect x="3272" y="856" width="451" height="196" rx="20" fill="#2ECC71"/>
<path d="M3333.7 998V908.4H3350.09V945.648H3390.28V908.4H3406.66V998H3390.28V958.96H3350.09V998H3333.7ZM3424.08 998V908.4H3482.58V921.584H3440.46V946.16H3478.74V958.96H3440.46V984.816H3482.58V998H3424.08ZM3492.32 998L3525.09 908.4H3543.52L3576.29 998H3558.88L3551.71 977.264H3516.77L3509.47 998H3492.32ZM3521.25 964.464H3547.23L3534.18 927.216L3521.25 964.464ZM3587.83 998V908.4H3618.42C3628.92 908.4 3637.54 910.277 3644.28 914.032C3651.1 917.701 3656.14 922.907 3659.38 929.648C3662.71 936.304 3664.37 944.155 3664.37 953.2C3664.37 962.245 3662.71 970.139 3659.38 976.88C3656.14 983.536 3651.1 988.741 3644.28 992.496C3637.54 996.165 3628.92 998 3618.42 998H3587.83ZM3604.21 983.92H3617.65C3625.16 983.92 3631.09 982.725 3635.45 980.336C3639.8 977.861 3642.91 974.363 3644.79 969.84C3646.67 965.232 3647.61 959.685 3647.61 953.2C3647.61 946.8 3646.67 941.296 3644.79 936.688C3642.91 932.08 3639.8 928.539 3635.45 926.064C3631.09 923.589 3625.16 922.352 3617.65 922.352H3604.21V983.92Z" fill="white"/>
<rect x="1363.14" y="466.112" width="4.43438" height="53.39" transform="rotate(-45 1363.14 466.112)" fill="black" stroke="black" stroke-width="4.43438"/>
<rect x="1398.51" y="253.25" width="4.5" height="240.5" fill="black" stroke="black" stroke-width="4.5"/>
<rect x="1435.5" y="462.976" width="4.43438" height="53.39" transform="rotate(45 1435.5 462.976)" fill="black" stroke="black" stroke-width="4.43438"/>
<rect x="1123" y="5" width="570" height="186" rx="15" fill="white" stroke="#3498DB" stroke-width="10"/>
<path d="M1200.7 142V52.4H1220.16L1248.7 109.232L1276.86 52.4H1296.32V142H1279.94V80.176L1254.98 129.2H1242.05L1217.09 80.176V142H1200.7ZM1335.21 143.536C1329.75 143.536 1325.27 142.683 1321.77 140.976C1318.27 139.184 1315.67 136.837 1313.96 133.936C1312.25 131.035 1311.4 127.835 1311.4 124.336C1311.4 118.448 1313.7 113.669 1318.31 110C1322.92 106.331 1329.83 104.496 1339.05 104.496H1355.18V102.96C1355.18 98.608 1353.94 95.408 1351.46 93.36C1348.99 91.312 1345.92 90.288 1342.25 90.288C1338.92 90.288 1336.02 91.0987 1333.54 92.72C1331.07 94.256 1329.53 96.56 1328.94 99.632H1312.94C1313.36 95.024 1314.9 91.0133 1317.54 87.6C1320.27 84.1867 1323.77 81.584 1328.04 79.792C1332.31 77.9147 1337.09 76.976 1342.38 76.976C1351.42 76.976 1358.55 79.2373 1363.75 83.76C1368.96 88.2827 1371.56 94.6827 1371.56 102.96V142H1357.61L1356.07 131.76C1354.19 135.173 1351.55 137.989 1348.14 140.208C1344.81 142.427 1340.5 143.536 1335.21 143.536ZM1338.92 130.736C1343.61 130.736 1347.24 129.2 1349.8 126.128C1352.45 123.056 1354.11 119.259 1354.79 114.736H1340.84C1336.49 114.736 1333.37 115.547 1331.5 117.168C1329.62 118.704 1328.68 120.624 1328.68 122.928C1328.68 125.403 1329.62 127.323 1331.5 128.688C1333.37 130.053 1335.85 130.736 1338.92 130.736ZM1413.44 143.536C1407.8 143.536 1402.85 142.64 1398.59 140.848C1394.32 138.971 1390.91 136.411 1388.35 133.168C1385.79 129.925 1384.25 126.171 1383.74 121.904H1400.25C1400.76 124.379 1402.13 126.512 1404.35 128.304C1406.65 130.011 1409.6 130.864 1413.18 130.864C1416.76 130.864 1419.37 130.139 1420.99 128.688C1422.69 127.237 1423.55 125.573 1423.55 123.696C1423.55 120.965 1422.35 119.131 1419.96 118.192C1417.57 117.168 1414.25 116.187 1409.98 115.248C1407.25 114.651 1404.48 113.925 1401.66 113.072C1398.84 112.219 1396.24 111.152 1393.85 109.872C1391.55 108.507 1389.67 106.8 1388.22 104.752C1386.77 102.619 1386.04 100.016 1386.04 96.944C1386.04 91.312 1388.26 86.576 1392.7 82.736C1397.22 78.896 1403.54 76.976 1411.64 76.976C1419.15 76.976 1425.13 78.7253 1429.56 82.224C1434.09 85.7227 1436.77 90.544 1437.63 96.688H1422.14C1421.2 91.9947 1417.66 89.648 1411.52 89.648C1408.44 89.648 1406.05 90.2453 1404.35 91.44C1402.73 92.6347 1401.92 94.128 1401.92 95.92C1401.92 97.7973 1403.15 99.2907 1405.63 100.4C1408.1 101.509 1411.39 102.533 1415.48 103.472C1419.92 104.496 1423.97 105.648 1427.64 106.928C1431.4 108.123 1434.38 109.957 1436.6 112.432C1438.82 114.821 1439.93 118.277 1439.93 122.8C1440.02 126.725 1438.99 130.267 1436.86 133.424C1434.73 136.581 1431.65 139.056 1427.64 140.848C1423.63 142.64 1418.9 143.536 1413.44 143.536ZM1480.73 142C1474.08 142 1468.74 140.379 1464.73 137.136C1460.72 133.893 1458.72 128.133 1458.72 119.856V92.208H1447.84V78.512H1458.72L1460.64 61.488H1475.1V78.512H1492.25V92.208H1475.1V119.984C1475.1 123.056 1475.74 125.189 1477.02 126.384C1478.39 127.493 1480.69 128.048 1483.93 128.048H1491.87V142H1480.73ZM1535.54 143.536C1529.14 143.536 1523.47 142.171 1518.52 139.44C1513.57 136.709 1509.69 132.869 1506.87 127.92C1504.06 122.971 1502.65 117.253 1502.65 110.768C1502.65 104.197 1504.01 98.352 1506.74 93.232C1509.56 88.112 1513.4 84.144 1518.26 81.328C1523.21 78.4267 1529.02 76.976 1535.67 76.976C1541.9 76.976 1547.4 78.3413 1552.18 81.072C1556.96 83.8027 1560.67 87.5573 1563.32 92.336C1566.05 97.0293 1567.42 102.277 1567.42 108.08C1567.42 109.019 1567.37 110 1567.29 111.024C1567.29 112.048 1567.24 113.115 1567.16 114.224H1518.9C1519.24 119.173 1520.95 123.056 1524.02 125.872C1527.18 128.688 1530.98 130.096 1535.42 130.096C1538.74 130.096 1541.52 129.371 1543.74 127.92C1546.04 126.384 1547.75 124.421 1548.86 122.032H1565.5C1564.3 126.043 1562.3 129.712 1559.48 133.04C1556.75 136.283 1553.34 138.843 1549.24 140.72C1545.23 142.597 1540.66 143.536 1535.54 143.536ZM1535.67 90.288C1531.66 90.288 1528.12 91.44 1525.05 93.744C1521.98 95.9627 1520.01 99.376 1519.16 103.984H1550.78C1550.52 99.8027 1548.98 96.4747 1546.17 94C1543.35 91.5253 1539.85 90.288 1535.67 90.288ZM1581.2 142V78.512H1595.79L1597.32 90.416C1599.63 86.32 1602.74 83.0773 1606.67 80.688C1610.68 78.2133 1615.37 76.976 1620.75 76.976V94.256H1616.14C1612.56 94.256 1609.36 94.8107 1606.54 95.92C1603.72 97.0293 1601.5 98.9493 1599.88 101.68C1598.35 104.411 1597.58 108.208 1597.58 113.072V142H1581.2Z" fill="#3498DB"/>
<rect x="3538.86" y="1910.89" width="4.43438" height="53.39" transform="rotate(135 3538.86 1910.89)" fill="black" stroke="black" stroke-width="4.43438"/>
<rect x="3503.49" y="2123.75" width="4.5" height="240.5" transform="rotate(-180 3503.49 2123.75)" fill="black" stroke="black" stroke-width="4.5"/>
<rect x="3466.5" y="1914.02" width="4.43438" height="53.39" transform="rotate(-135 3466.5 1914.02)" fill="black" stroke="black" stroke-width="4.43438"/>
<rect x="3785" y="2372" width="566" height="186" rx="15" transform="rotate(-180 3785 2372)" fill="white" stroke="#3498DB" stroke-width="10"/>
<path d="M3300.7 2323V2233.4H3317.09L3359.2 2296.5V2233.4H3375.58V2323H3359.2L3317.09 2260.02V2323H3300.7ZM3423.42 2324.54C3417.02 2324.54 3411.34 2323.17 3406.39 2320.44C3401.44 2317.71 3397.56 2313.87 3394.75 2308.92C3391.93 2303.97 3390.52 2298.25 3390.52 2291.77C3390.52 2285.2 3391.89 2279.35 3394.62 2274.23C3397.43 2269.11 3401.27 2265.14 3406.14 2262.33C3411.09 2259.43 3416.89 2257.98 3423.55 2257.98C3429.78 2257.98 3435.28 2259.34 3440.06 2262.07C3444.84 2264.8 3448.55 2268.56 3451.19 2273.34C3453.92 2278.03 3455.29 2283.28 3455.29 2289.08C3455.29 2290.02 3455.25 2291 3455.16 2292.02C3455.16 2293.05 3455.12 2294.11 3455.03 2295.22H3406.78C3407.12 2300.17 3408.83 2304.06 3411.9 2306.87C3415.06 2309.69 3418.85 2311.1 3423.29 2311.1C3426.62 2311.1 3429.39 2310.37 3431.61 2308.92C3433.91 2307.38 3435.62 2305.42 3436.73 2303.03H3453.37C3452.18 2307.04 3450.17 2310.71 3447.35 2314.04C3444.62 2317.28 3441.21 2319.84 3437.11 2321.72C3433.1 2323.6 3428.54 2324.54 3423.42 2324.54ZM3423.55 2271.29C3419.54 2271.29 3415.99 2272.44 3412.92 2274.74C3409.85 2276.96 3407.89 2280.38 3407.03 2284.98H3438.65C3438.39 2280.8 3436.86 2277.47 3434.04 2275C3431.23 2272.53 3427.73 2271.29 3423.55 2271.29ZM3478.99 2323L3460.43 2259.51H3476.68L3487.69 2305.21L3500.49 2259.51H3518.67L3531.47 2305.21L3542.6 2259.51H3558.86L3540.17 2323H3523.15L3509.58 2275.51L3496.01 2323H3478.99ZM3634.64 2324.54C3628.07 2324.54 3622.14 2323.26 3616.85 2320.7C3611.56 2318.05 3607.33 2314.08 3604.18 2308.79C3601.1 2303.5 3599.57 2296.8 3599.57 2288.7V2233.4H3615.95V2288.82C3615.95 2295.82 3617.62 2301.03 3620.94 2304.44C3624.36 2307.85 3629.05 2309.56 3635.02 2309.56C3640.91 2309.56 3645.56 2307.85 3648.98 2304.44C3652.39 2301.03 3654.1 2295.82 3654.1 2288.82V2233.4H3670.48V2288.7C3670.48 2296.8 3668.86 2303.5 3665.62 2308.79C3662.37 2314.08 3658.02 2318.05 3652.56 2320.7C3647.18 2323.26 3641.21 2324.54 3634.64 2324.54ZM3687.2 2323V2233.4H3703.59V2323H3687.2Z" fill="#3498DB"/>
</svg>
