<svg width="3790" height="2413" viewBox="0 0 3790 2413" fill="none" xmlns="http://www.w3.org/2000/svg">
<rect x="3460.14" y="1340.11" width="4.43438" height="53.39" transform="rotate(-45 3460.14 1340.11)" fill="black" stroke="black" stroke-width="4.43438"/>
<rect x="3495.51" y="1127.25" width="4.5" height="240.5" fill="black" stroke="black" stroke-width="4.5"/>
<rect x="3532.5" y="1336.98" width="4.43438" height="53.39" transform="rotate(45 3532.5 1336.98)" fill="black" stroke="black" stroke-width="4.43438"/>
<rect x="3272" y="874" width="451" height="196" rx="20" fill="#2ECC71"/>
<path d="M3333.7 1016V926.4H3350.09V963.648H3390.28V926.4H3406.66V1016H3390.28V976.96H3350.09V1016H3333.7ZM3424.08 1016V926.4H3482.58V939.584H3440.46V964.16H3478.74V976.96H3440.46V1002.82H3482.58V1016H3424.08ZM3492.32 1016L3525.09 926.4H3543.52L3576.29 1016H3558.88L3551.71 995.264H3516.77L3509.47 1016H3492.32ZM3521.25 982.464H3547.23L3534.18 945.216L3521.25 982.464ZM3587.83 1016V926.4H3618.42C3628.92 926.4 3637.54 928.277 3644.28 932.032C3651.1 935.701 3656.14 940.907 3659.38 947.648C3662.71 954.304 3664.37 962.155 3664.37 971.2C3664.37 980.245 3662.71 988.139 3659.38 994.88C3656.14 1001.54 3651.1 1006.74 3644.28 1010.5C3637.54 1014.17 3628.92 1016 3618.42 1016H3587.83ZM3604.21 1001.92H3617.65C3625.16 1001.92 3631.09 1000.73 3635.45 998.336C3639.8 995.861 3642.91 992.363 3644.79 987.84C3646.67 983.232 3647.61 977.685 3647.61 971.2C3647.61 964.8 3646.67 959.296 3644.79 954.688C3642.91 950.08 3639.8 946.539 3635.45 944.064C3631.09 941.589 3625.16 940.352 3617.65 940.352H3604.21V1001.92Z" fill="white"/>
<rect y="590" width="400" height="400" rx="200" fill="#3498DB"/>
<rect x="3298" y="1451" width="400" height="400" rx="200" fill="#9B59B6"/>
<rect x="2470" y="1641" width="828" height="21" fill="#545454"/>
<rect x="400" y="780" width="828" height="21" fill="#545454"/>
<rect x="1579" y="780" width="1133" height="21" fill="#545454"/>
<rect x="1400.84" y="507" width="400" height="400" rx="200" transform="rotate(45 1400.84 507)" fill="#3498DB"/>
<rect x="2877.84" y="507" width="400" height="400" rx="200" transform="rotate(45 2877.84 507)" fill="#3498DB"/>
<rect x="2276.24" y="1368.26" width="400" height="400" rx="200" transform="rotate(45 2276.24 1368.26)" fill="#9B59B6"/>
<rect x="1549.33" y="924.193" width="828" height="21" transform="rotate(45 1549.33 924.193)" fill="#545454"/>
<rect x="2842.14" y="466.112" width="4.43438" height="53.39" transform="rotate(-45 2842.14 466.112)" fill="black" stroke="black" stroke-width="4.43438"/>
<rect x="2877.51" y="253.25" width="4.5" height="240.5" fill="black" stroke="black" stroke-width="4.5"/>
<rect x="2914.5" y="462.976" width="4.43438" height="53.39" transform="rotate(45 2914.5 462.976)" fill="black" stroke="black" stroke-width="4.43438"/>
<rect x="2602" y="5" width="570" height="186" rx="15" fill="white" stroke="#3498DB" stroke-width="10"/>
<path d="M2679.7 142V52.4H2699.16L2727.7 109.232L2755.86 52.4H2775.32V142H2758.94V80.176L2733.98 129.2H2721.05L2696.09 80.176V142H2679.7ZM2814.21 143.536C2808.75 143.536 2804.27 142.683 2800.77 140.976C2797.27 139.184 2794.67 136.837 2792.96 133.936C2791.25 131.035 2790.4 127.835 2790.4 124.336C2790.4 118.448 2792.7 113.669 2797.31 110C2801.92 106.331 2808.83 104.496 2818.05 104.496H2834.18V102.96C2834.18 98.608 2832.94 95.408 2830.46 93.36C2827.99 91.312 2824.92 90.288 2821.25 90.288C2817.92 90.288 2815.02 91.0987 2812.54 92.72C2810.07 94.256 2808.53 96.56 2807.94 99.632H2791.94C2792.36 95.024 2793.9 91.0133 2796.54 87.6C2799.27 84.1867 2802.77 81.584 2807.04 79.792C2811.31 77.9147 2816.09 76.976 2821.38 76.976C2830.42 76.976 2837.55 79.2373 2842.75 83.76C2847.96 88.2827 2850.56 94.6827 2850.56 102.96V142H2836.61L2835.07 131.76C2833.19 135.173 2830.55 137.989 2827.14 140.208C2823.81 142.427 2819.5 143.536 2814.21 143.536ZM2817.92 130.736C2822.61 130.736 2826.24 129.2 2828.8 126.128C2831.45 123.056 2833.11 119.259 2833.79 114.736H2819.84C2815.49 114.736 2812.37 115.547 2810.5 117.168C2808.62 118.704 2807.68 120.624 2807.68 122.928C2807.68 125.403 2808.62 127.323 2810.5 128.688C2812.37 130.053 2814.85 130.736 2817.92 130.736ZM2892.44 143.536C2886.8 143.536 2881.85 142.64 2877.59 140.848C2873.32 138.971 2869.91 136.411 2867.35 133.168C2864.79 129.925 2863.25 126.171 2862.74 121.904H2879.25C2879.76 124.379 2881.13 126.512 2883.35 128.304C2885.65 130.011 2888.6 130.864 2892.18 130.864C2895.76 130.864 2898.37 130.139 2899.99 128.688C2901.69 127.237 2902.55 125.573 2902.55 123.696C2902.55 120.965 2901.35 119.131 2898.96 118.192C2896.57 117.168 2893.25 116.187 2888.98 115.248C2886.25 114.651 2883.48 113.925 2880.66 113.072C2877.84 112.219 2875.24 111.152 2872.85 109.872C2870.55 108.507 2868.67 106.8 2867.22 104.752C2865.77 102.619 2865.04 100.016 2865.04 96.944C2865.04 91.312 2867.26 86.576 2871.7 82.736C2876.22 78.896 2882.54 76.976 2890.64 76.976C2898.15 76.976 2904.13 78.7253 2908.56 82.224C2913.09 85.7227 2915.77 90.544 2916.63 96.688H2901.14C2900.2 91.9947 2896.66 89.648 2890.52 89.648C2887.44 89.648 2885.05 90.2453 2883.35 91.44C2881.73 92.6347 2880.92 94.128 2880.92 95.92C2880.92 97.7973 2882.15 99.2907 2884.63 100.4C2887.1 101.509 2890.39 102.533 2894.48 103.472C2898.92 104.496 2902.97 105.648 2906.64 106.928C2910.4 108.123 2913.38 109.957 2915.6 112.432C2917.82 114.821 2918.93 118.277 2918.93 122.8C2919.02 126.725 2917.99 130.267 2915.86 133.424C2913.73 136.581 2910.65 139.056 2906.64 140.848C2902.63 142.64 2897.9 143.536 2892.44 143.536ZM2959.73 142C2953.08 142 2947.74 140.379 2943.73 137.136C2939.72 133.893 2937.72 128.133 2937.72 119.856V92.208H2926.84V78.512H2937.72L2939.64 61.488H2954.1V78.512H2971.25V92.208H2954.1V119.984C2954.1 123.056 2954.74 125.189 2956.02 126.384C2957.39 127.493 2959.69 128.048 2962.93 128.048H2970.87V142H2959.73ZM3014.54 143.536C3008.14 143.536 3002.47 142.171 2997.52 139.44C2992.57 136.709 2988.69 132.869 2985.87 127.92C2983.06 122.971 2981.65 117.253 2981.65 110.768C2981.65 104.197 2983.01 98.352 2985.74 93.232C2988.56 88.112 2992.4 84.144 2997.26 81.328C3002.21 78.4267 3008.02 76.976 3014.67 76.976C3020.9 76.976 3026.4 78.3413 3031.18 81.072C3035.96 83.8027 3039.67 87.5573 3042.32 92.336C3045.05 97.0293 3046.42 102.277 3046.42 108.08C3046.42 109.019 3046.37 110 3046.29 111.024C3046.29 112.048 3046.24 113.115 3046.16 114.224H2997.9C2998.24 119.173 2999.95 123.056 3003.02 125.872C3006.18 128.688 3009.98 130.096 3014.42 130.096C3017.74 130.096 3020.52 129.371 3022.74 127.92C3025.04 126.384 3026.75 124.421 3027.86 122.032H3044.5C3043.3 126.043 3041.3 129.712 3038.48 133.04C3035.75 136.283 3032.34 138.843 3028.24 140.72C3024.23 142.597 3019.66 143.536 3014.54 143.536ZM3014.67 90.288C3010.66 90.288 3007.12 91.44 3004.05 93.744C3000.98 95.9627 2999.01 99.376 2998.16 103.984H3029.78C3029.52 99.8027 3027.98 96.4747 3025.17 94C3022.35 91.5253 3018.85 90.288 3014.67 90.288ZM3060.2 142V78.512H3074.79L3076.32 90.416C3078.63 86.32 3081.74 83.0773 3085.67 80.688C3089.68 78.2133 3094.37 76.976 3099.75 76.976V94.256H3095.14C3091.56 94.256 3088.36 94.8107 3085.54 95.92C3082.72 97.0293 3080.5 98.9493 3078.88 101.68C3077.35 104.411 3076.58 108.208 3076.58 113.072V142H3060.2Z" fill="#3498DB"/>
<rect x="3538.86" y="1946.89" width="4.43438" height="53.39" transform="rotate(135 3538.86 1946.89)" fill="black" stroke="black" stroke-width="4.43438"/>
<rect x="3503.49" y="2159.75" width="4.5" height="240.5" transform="rotate(-180 3503.49 2159.75)" fill="black" stroke="black" stroke-width="4.5"/>
<rect x="3466.5" y="1950.02" width="4.43438" height="53.39" transform="rotate(-135 3466.5 1950.02)" fill="black" stroke="black" stroke-width="4.43438"/>
<rect x="3785" y="2408" width="566" height="186" rx="15" transform="rotate(-180 3785 2408)" fill="white" stroke="#3498DB" stroke-width="10"/>
<path d="M3300.7 2359V2269.4H3317.09L3359.2 2332.5V2269.4H3375.58V2359H3359.2L3317.09 2296.02V2359H3300.7ZM3423.42 2360.54C3417.02 2360.54 3411.34 2359.17 3406.39 2356.44C3401.44 2353.71 3397.56 2349.87 3394.75 2344.92C3391.93 2339.97 3390.52 2334.25 3390.52 2327.77C3390.52 2321.2 3391.89 2315.35 3394.62 2310.23C3397.43 2305.11 3401.27 2301.14 3406.14 2298.33C3411.09 2295.43 3416.89 2293.98 3423.55 2293.98C3429.78 2293.98 3435.28 2295.34 3440.06 2298.07C3444.84 2300.8 3448.55 2304.56 3451.19 2309.34C3453.92 2314.03 3455.29 2319.28 3455.29 2325.08C3455.29 2326.02 3455.25 2327 3455.16 2328.02C3455.16 2329.05 3455.12 2330.11 3455.03 2331.22H3406.78C3407.12 2336.17 3408.83 2340.06 3411.9 2342.87C3415.06 2345.69 3418.85 2347.1 3423.29 2347.1C3426.62 2347.1 3429.39 2346.37 3431.61 2344.92C3433.91 2343.38 3435.62 2341.42 3436.73 2339.03H3453.37C3452.18 2343.04 3450.17 2346.71 3447.35 2350.04C3444.62 2353.28 3441.21 2355.84 3437.11 2357.72C3433.1 2359.6 3428.54 2360.54 3423.42 2360.54ZM3423.55 2307.29C3419.54 2307.29 3415.99 2308.44 3412.92 2310.74C3409.85 2312.96 3407.89 2316.38 3407.03 2320.98H3438.65C3438.39 2316.8 3436.86 2313.47 3434.04 2311C3431.23 2308.53 3427.73 2307.29 3423.55 2307.29ZM3478.99 2359L3460.43 2295.51H3476.68L3487.69 2341.21L3500.49 2295.51H3518.67L3531.47 2341.21L3542.6 2295.51H3558.86L3540.17 2359H3523.15L3509.58 2311.51L3496.01 2359H3478.99ZM3634.64 2360.54C3628.07 2360.54 3622.14 2359.26 3616.85 2356.7C3611.56 2354.05 3607.33 2350.08 3604.18 2344.79C3601.1 2339.5 3599.57 2332.8 3599.57 2324.7V2269.4H3615.95V2324.82C3615.95 2331.82 3617.62 2337.03 3620.94 2340.44C3624.36 2343.85 3629.05 2345.56 3635.02 2345.56C3640.91 2345.56 3645.56 2343.85 3648.98 2340.44C3652.39 2337.03 3654.1 2331.82 3654.1 2324.82V2269.4H3670.48V2324.7C3670.48 2332.8 3668.86 2339.5 3665.62 2344.79C3662.37 2350.08 3658.02 2354.05 3652.56 2356.7C3647.18 2359.26 3641.21 2360.54 3634.64 2360.54ZM3687.2 2359V2269.4H3703.59V2359H3687.2Z" fill="#3498DB"/>
</svg>
