<svg width="5018" height="2413" viewBox="0 0 5018 2413" fill="none" xmlns="http://www.w3.org/2000/svg">
<rect y="590" width="400" height="400" rx="200" fill="#3498DB"/>
<rect x="400" y="780" width="828" height="21" fill="#545454"/>
<rect x="4688.14" y="1340.11" width="4.43438" height="53.39" transform="rotate(-45 4688.14 1340.11)" fill="black" stroke="black" stroke-width="4.43438"/>
<rect x="4723.51" y="1127.25" width="4.5" height="240.5" fill="black" stroke="black" stroke-width="4.5"/>
<rect x="4760.5" y="1336.98" width="4.43438" height="53.39" transform="rotate(45 4760.5 1336.98)" fill="black" stroke="black" stroke-width="4.43438"/>
<rect x="4500" y="874" width="451" height="196" rx="20" fill="#2ECC71"/>
<path d="M4561.7 1016V926.4H4578.09V963.648H4618.28V926.4H4634.66V1016H4618.28V976.96H4578.09V1016H4561.7ZM4652.08 1016V926.4H4710.58V939.584H4668.46V964.16H4706.74V976.96H4668.46V1002.82H4710.58V1016H4652.08ZM4720.32 1016L4753.09 926.4H4771.52L4804.29 1016H4786.88L4779.71 995.264H4744.77L4737.47 1016H4720.32ZM4749.25 982.464H4775.23L4762.18 945.216L4749.25 982.464ZM4815.83 1016V926.4H4846.42C4856.92 926.4 4865.54 928.277 4872.28 932.032C4879.1 935.701 4884.14 940.907 4887.38 947.648C4890.71 954.304 4892.37 962.155 4892.37 971.2C4892.37 980.245 4890.71 988.139 4887.38 994.88C4884.14 1001.54 4879.1 1006.74 4872.28 1010.5C4865.54 1014.17 4856.92 1016 4846.42 1016H4815.83ZM4832.21 1001.92H4845.65C4853.16 1001.92 4859.09 1000.73 4863.45 998.336C4867.8 995.861 4870.91 992.363 4872.79 987.84C4874.67 983.232 4875.61 977.685 4875.61 971.2C4875.61 964.8 4874.67 959.296 4872.79 954.688C4870.91 950.08 4867.8 946.539 4863.45 944.064C4859.09 941.589 4853.16 940.352 4845.65 940.352H4832.21V1001.92Z" fill="white"/>
<rect x="1228" y="590" width="400" height="400" rx="200" fill="#3498DB"/>
<rect x="4526" y="1451" width="400" height="400" rx="200" fill="#9B59B6"/>
<rect x="3698" y="1641" width="828" height="21" fill="#545454"/>
<rect x="1628" y="780" width="828" height="21" fill="#545454"/>
<rect x="2807" y="780" width="1133" height="21" fill="#545454"/>
<rect x="2628.84" y="507" width="400" height="400" rx="200" transform="rotate(45 2628.84 507)" fill="#3498DB"/>
<rect x="4105.84" y="507" width="400" height="400" rx="200" transform="rotate(45 4105.84 507)" fill="#3498DB"/>
<rect x="3504.24" y="1368.26" width="400" height="400" rx="200" transform="rotate(45 3504.24 1368.26)" fill="#9B59B6"/>
<rect x="2777.33" y="924.193" width="828" height="21" transform="rotate(45 2777.33 924.193)" fill="#545454"/>
<rect x="4070.14" y="466.112" width="4.43438" height="53.39" transform="rotate(-45 4070.14 466.112)" fill="black" stroke="black" stroke-width="4.43438"/>
<rect x="4105.51" y="253.25" width="4.5" height="240.5" fill="black" stroke="black" stroke-width="4.5"/>
<rect x="4142.5" y="462.976" width="4.43438" height="53.39" transform="rotate(45 4142.5 462.976)" fill="black" stroke="black" stroke-width="4.43438"/>
<rect x="3830" y="5" width="570" height="186" rx="15" fill="white" stroke="#3498DB" stroke-width="10"/>
<path d="M3907.7 142V52.4H3927.16L3955.7 109.232L3983.86 52.4H4003.32V142H3986.94V80.176L3961.98 129.2H3949.05L3924.09 80.176V142H3907.7ZM4042.21 143.536C4036.75 143.536 4032.27 142.683 4028.77 140.976C4025.27 139.184 4022.67 136.837 4020.96 133.936C4019.25 131.035 4018.4 127.835 4018.4 124.336C4018.4 118.448 4020.7 113.669 4025.31 110C4029.92 106.331 4036.83 104.496 4046.05 104.496H4062.18V102.96C4062.18 98.608 4060.94 95.408 4058.46 93.36C4055.99 91.312 4052.92 90.288 4049.25 90.288C4045.92 90.288 4043.02 91.0987 4040.54 92.72C4038.07 94.256 4036.53 96.56 4035.94 99.632H4019.94C4020.36 95.024 4021.9 91.0133 4024.54 87.6C4027.27 84.1867 4030.77 81.584 4035.04 79.792C4039.31 77.9147 4044.09 76.976 4049.38 76.976C4058.42 76.976 4065.55 79.2373 4070.75 83.76C4075.96 88.2827 4078.56 94.6827 4078.56 102.96V142H4064.61L4063.07 131.76C4061.19 135.173 4058.55 137.989 4055.14 140.208C4051.81 142.427 4047.5 143.536 4042.21 143.536ZM4045.92 130.736C4050.61 130.736 4054.24 129.2 4056.8 126.128C4059.45 123.056 4061.11 119.259 4061.79 114.736H4047.84C4043.49 114.736 4040.37 115.547 4038.5 117.168C4036.62 118.704 4035.68 120.624 4035.68 122.928C4035.68 125.403 4036.62 127.323 4038.5 128.688C4040.37 130.053 4042.85 130.736 4045.92 130.736ZM4120.44 143.536C4114.8 143.536 4109.85 142.64 4105.59 140.848C4101.32 138.971 4097.91 136.411 4095.35 133.168C4092.79 129.925 4091.25 126.171 4090.74 121.904H4107.25C4107.76 124.379 4109.13 126.512 4111.35 128.304C4113.65 130.011 4116.6 130.864 4120.18 130.864C4123.76 130.864 4126.37 130.139 4127.99 128.688C4129.69 127.237 4130.55 125.573 4130.55 123.696C4130.55 120.965 4129.35 119.131 4126.96 118.192C4124.57 117.168 4121.25 116.187 4116.98 115.248C4114.25 114.651 4111.48 113.925 4108.66 113.072C4105.84 112.219 4103.24 111.152 4100.85 109.872C4098.55 108.507 4096.67 106.8 4095.22 104.752C4093.77 102.619 4093.04 100.016 4093.04 96.944C4093.04 91.312 4095.26 86.576 4099.7 82.736C4104.22 78.896 4110.54 76.976 4118.64 76.976C4126.15 76.976 4132.13 78.7253 4136.56 82.224C4141.09 85.7227 4143.77 90.544 4144.63 96.688H4129.14C4128.2 91.9947 4124.66 89.648 4118.52 89.648C4115.44 89.648 4113.05 90.2453 4111.35 91.44C4109.73 92.6347 4108.92 94.128 4108.92 95.92C4108.92 97.7973 4110.15 99.2907 4112.63 100.4C4115.1 101.509 4118.39 102.533 4122.48 103.472C4126.92 104.496 4130.97 105.648 4134.64 106.928C4138.4 108.123 4141.38 109.957 4143.6 112.432C4145.82 114.821 4146.93 118.277 4146.93 122.8C4147.02 126.725 4145.99 130.267 4143.86 133.424C4141.73 136.581 4138.65 139.056 4134.64 140.848C4130.63 142.64 4125.9 143.536 4120.44 143.536ZM4187.73 142C4181.08 142 4175.74 140.379 4171.73 137.136C4167.72 133.893 4165.72 128.133 4165.72 119.856V92.208H4154.84V78.512H4165.72L4167.64 61.488H4182.1V78.512H4199.25V92.208H4182.1V119.984C4182.1 123.056 4182.74 125.189 4184.02 126.384C4185.39 127.493 4187.69 128.048 4190.93 128.048H4198.87V142H4187.73ZM4242.54 143.536C4236.14 143.536 4230.47 142.171 4225.52 139.44C4220.57 136.709 4216.69 132.869 4213.87 127.92C4211.06 122.971 4209.65 117.253 4209.65 110.768C4209.65 104.197 4211.01 98.352 4213.74 93.232C4216.56 88.112 4220.4 84.144 4225.26 81.328C4230.21 78.4267 4236.02 76.976 4242.67 76.976C4248.9 76.976 4254.4 78.3413 4259.18 81.072C4263.96 83.8027 4267.67 87.5573 4270.32 92.336C4273.05 97.0293 4274.42 102.277 4274.42 108.08C4274.42 109.019 4274.37 110 4274.29 111.024C4274.29 112.048 4274.24 113.115 4274.16 114.224H4225.9C4226.24 119.173 4227.95 123.056 4231.02 125.872C4234.18 128.688 4237.98 130.096 4242.42 130.096C4245.74 130.096 4248.52 129.371 4250.74 127.92C4253.04 126.384 4254.75 124.421 4255.86 122.032H4272.5C4271.3 126.043 4269.3 129.712 4266.48 133.04C4263.75 136.283 4260.34 138.843 4256.24 140.72C4252.23 142.597 4247.66 143.536 4242.54 143.536ZM4242.67 90.288C4238.66 90.288 4235.12 91.44 4232.05 93.744C4228.98 95.9627 4227.01 99.376 4226.16 103.984H4257.78C4257.52 99.8027 4255.98 96.4747 4253.17 94C4250.35 91.5253 4246.85 90.288 4242.67 90.288ZM4288.2 142V78.512H4302.79L4304.32 90.416C4306.63 86.32 4309.74 83.0773 4313.67 80.688C4317.68 78.2133 4322.37 76.976 4327.75 76.976V94.256H4323.14C4319.56 94.256 4316.36 94.8107 4313.54 95.92C4310.72 97.0293 4308.5 98.9493 4306.88 101.68C4305.35 104.411 4304.58 108.208 4304.58 113.072V142H4288.2Z" fill="#3498DB"/>
<rect x="4766.86" y="1946.89" width="4.43438" height="53.39" transform="rotate(135 4766.86 1946.89)" fill="black" stroke="black" stroke-width="4.43438"/>
<rect x="4731.49" y="2159.75" width="4.5" height="240.5" transform="rotate(-180 4731.49 2159.75)" fill="black" stroke="black" stroke-width="4.5"/>
<rect x="4694.5" y="1950.02" width="4.43438" height="53.39" transform="rotate(-135 4694.5 1950.02)" fill="black" stroke="black" stroke-width="4.43438"/>
<rect x="5013" y="2408" width="566" height="186" rx="15" transform="rotate(-180 5013 2408)" fill="white" stroke="#3498DB" stroke-width="10"/>
<path d="M4528.7 2359V2269.4H4545.09L4587.2 2332.5V2269.4H4603.58V2359H4587.2L4545.09 2296.02V2359H4528.7ZM4651.42 2360.54C4645.02 2360.54 4639.34 2359.17 4634.39 2356.44C4629.44 2353.71 4625.56 2349.87 4622.75 2344.92C4619.93 2339.97 4618.52 2334.25 4618.52 2327.77C4618.52 2321.2 4619.89 2315.35 4622.62 2310.23C4625.43 2305.11 4629.27 2301.14 4634.14 2298.33C4639.09 2295.43 4644.89 2293.98 4651.55 2293.98C4657.78 2293.98 4663.28 2295.34 4668.06 2298.07C4672.84 2300.8 4676.55 2304.56 4679.19 2309.34C4681.92 2314.03 4683.29 2319.28 4683.29 2325.08C4683.29 2326.02 4683.25 2327 4683.16 2328.02C4683.16 2329.05 4683.12 2330.11 4683.03 2331.22H4634.78C4635.12 2336.17 4636.83 2340.06 4639.9 2342.87C4643.06 2345.69 4646.85 2347.1 4651.29 2347.1C4654.62 2347.1 4657.39 2346.37 4659.61 2344.92C4661.91 2343.38 4663.62 2341.42 4664.73 2339.03H4681.37C4680.18 2343.04 4678.17 2346.71 4675.35 2350.04C4672.62 2353.28 4669.21 2355.84 4665.11 2357.72C4661.1 2359.6 4656.54 2360.54 4651.42 2360.54ZM4651.55 2307.29C4647.54 2307.29 4643.99 2308.44 4640.92 2310.74C4637.85 2312.96 4635.89 2316.38 4635.03 2320.98H4666.65C4666.39 2316.8 4664.86 2313.47 4662.04 2311C4659.23 2308.53 4655.73 2307.29 4651.55 2307.29ZM4706.99 2359L4688.43 2295.51H4704.68L4715.69 2341.21L4728.49 2295.51H4746.67L4759.47 2341.21L4770.6 2295.51H4786.86L4768.17 2359H4751.15L4737.58 2311.51L4724.01 2359H4706.99ZM4862.64 2360.54C4856.07 2360.54 4850.14 2359.26 4844.85 2356.7C4839.56 2354.05 4835.33 2350.08 4832.18 2344.79C4829.1 2339.5 4827.57 2332.8 4827.57 2324.7V2269.4H4843.95V2324.82C4843.95 2331.82 4845.62 2337.03 4848.94 2340.44C4852.36 2343.85 4857.05 2345.56 4863.02 2345.56C4868.91 2345.56 4873.56 2343.85 4876.98 2340.44C4880.39 2337.03 4882.1 2331.82 4882.1 2324.82V2269.4H4898.48V2324.7C4898.48 2332.8 4896.86 2339.5 4893.62 2344.79C4890.37 2350.08 4886.02 2354.05 4880.56 2356.7C4875.18 2359.26 4869.21 2360.54 4862.64 2360.54ZM4915.2 2359V2269.4H4931.59V2359H4915.2Z" fill="#3498DB"/>
</svg>
