<svg width="5018" height="2377" viewBox="0 0 5018 2377" fill="none" xmlns="http://www.w3.org/2000/svg">
<rect y="554" width="400" height="400" rx="200" fill="#3498DB"/>
<rect x="1228" y="554" width="400" height="400" rx="200" fill="#3498DB"/>
<rect x="400" y="744" width="828" height="21" fill="#545454"/>
<rect x="4526" y="1415" width="400" height="400" rx="200" fill="#9B59B6"/>
<rect x="3698" y="1605" width="828" height="21" fill="#545454"/>
<rect x="1628" y="744" width="828" height="21" fill="#545454"/>
<rect x="2628.84" y="471" width="400" height="400" rx="200" transform="rotate(45 2628.84 471)" fill="#3498DB"/>
<rect x="3504.24" y="1332.26" width="400" height="400" rx="200" transform="rotate(45 3504.24 1332.26)" fill="#9B59B6"/>
<rect x="2777.33" y="888.193" width="828" height="21" transform="rotate(45 2777.33 888.193)" fill="#545454"/>
<rect x="4295.11" y="2316.64" width="4.43438" height="53.39" transform="rotate(-135 4295.11 2316.64)" fill="black" stroke="black" stroke-width="4.43438"/>
<rect x="4082.25" y="2281.27" width="4.5" height="240.5" transform="rotate(-90 4082.25 2281.27)" fill="black" stroke="black" stroke-width="4.5"/>
<rect x="4291.98" y="2244.27" width="4.43438" height="53.39" transform="rotate(-45 4291.98 2244.27)" fill="black" stroke="black" stroke-width="4.43438"/>
<rect x="3523" y="2181" width="451" height="196" rx="20" fill="#2ECC71"/>
<path d="M3584.7 2323V2233.4H3601.09V2270.65H3641.28V2233.4H3657.66V2323H3641.28V2283.96H3601.09V2323H3584.7ZM3675.08 2323V2233.4H3733.58V2246.58H3691.46V2271.16H3729.74V2283.96H3691.46V2309.82H3733.58V2323H3675.08ZM3743.32 2323L3776.09 2233.4H3794.52L3827.29 2323H3809.88L3802.71 2302.26H3767.77L3760.47 2323H3743.32ZM3772.25 2289.46H3798.23L3785.18 2252.22L3772.25 2289.46ZM3838.83 2323V2233.4H3869.42C3879.92 2233.4 3888.54 2235.28 3895.28 2239.03C3902.1 2242.7 3907.14 2247.91 3910.38 2254.65C3913.71 2261.3 3915.37 2269.15 3915.37 2278.2C3915.37 2287.25 3913.71 2295.14 3910.38 2301.88C3907.14 2308.54 3902.1 2313.74 3895.28 2317.5C3888.54 2321.17 3879.92 2323 3869.42 2323H3838.83ZM3855.21 2308.92H3868.65C3876.16 2308.92 3882.09 2307.73 3886.45 2305.34C3890.8 2302.86 3893.91 2299.36 3895.79 2294.84C3897.67 2290.23 3898.61 2284.69 3898.61 2278.2C3898.61 2271.8 3897.67 2266.3 3895.79 2261.69C3893.91 2257.08 3890.8 2253.54 3886.45 2251.06C3882.09 2248.59 3876.16 2247.35 3868.65 2247.35H3855.21V2308.92Z" fill="white"/>
<rect x="2591.14" y="466.112" width="4.43438" height="53.39" transform="rotate(-45 2591.14 466.112)" fill="black" stroke="black" stroke-width="4.43438"/>
<rect x="2626.51" y="253.25" width="4.5" height="240.5" fill="black" stroke="black" stroke-width="4.5"/>
<rect x="2663.5" y="462.976" width="4.43438" height="53.39" transform="rotate(45 2663.5 462.976)" fill="black" stroke="black" stroke-width="4.43438"/>
<rect x="2408" y="5" width="441" height="186" rx="15" fill="white" stroke="#3498DB" stroke-width="10"/>
<path d="M2487.7 142V52.4H2507.16L2535.7 109.232L2563.86 52.4H2583.32V142H2566.94V80.176L2541.98 129.2H2529.05L2504.09 80.176V142H2487.7ZM2622.21 143.536C2616.75 143.536 2612.27 142.683 2608.77 140.976C2605.27 139.184 2602.67 136.837 2600.96 133.936C2599.25 131.035 2598.4 127.835 2598.4 124.336C2598.4 118.448 2600.7 113.669 2605.31 110C2609.92 106.331 2616.83 104.496 2626.05 104.496H2642.18V102.96C2642.18 98.608 2640.94 95.408 2638.46 93.36C2635.99 91.312 2632.92 90.288 2629.25 90.288C2625.92 90.288 2623.02 91.0987 2620.54 92.72C2618.07 94.256 2616.53 96.56 2615.94 99.632H2599.94C2600.36 95.024 2601.9 91.0133 2604.54 87.6C2607.27 84.1867 2610.77 81.584 2615.04 79.792C2619.31 77.9147 2624.09 76.976 2629.38 76.976C2638.42 76.976 2645.55 79.2373 2650.75 83.76C2655.96 88.2827 2658.56 94.6827 2658.56 102.96V142H2644.61L2643.07 131.76C2641.19 135.173 2638.55 137.989 2635.14 140.208C2631.81 142.427 2627.5 143.536 2622.21 143.536ZM2625.92 130.736C2630.61 130.736 2634.24 129.2 2636.8 126.128C2639.45 123.056 2641.11 119.259 2641.79 114.736H2627.84C2623.49 114.736 2620.37 115.547 2618.5 117.168C2616.62 118.704 2615.68 120.624 2615.68 122.928C2615.68 125.403 2616.62 127.323 2618.5 128.688C2620.37 130.053 2622.85 130.736 2625.92 130.736ZM2683.03 68.656C2680.04 68.656 2677.57 67.76 2675.6 65.968C2673.73 64.176 2672.79 61.9147 2672.79 59.184C2672.79 56.4533 2673.73 54.2347 2675.6 52.528C2677.57 50.736 2680.04 49.84 2683.03 49.84C2686.01 49.84 2688.45 50.736 2690.32 52.528C2692.29 54.2347 2693.27 56.4533 2693.27 59.184C2693.27 61.9147 2692.29 64.176 2690.32 65.968C2688.45 67.76 2686.01 68.656 2683.03 68.656ZM2674.84 142V78.512H2691.22V142H2674.84ZM2708.32 142V78.512H2722.78L2724.06 89.264C2726.03 85.5093 2728.84 82.5227 2732.51 80.304C2736.27 78.0853 2740.66 76.976 2745.7 76.976C2753.55 76.976 2759.65 79.4507 2764 84.4C2768.35 89.3493 2770.53 96.6027 2770.53 106.16V142H2754.14V107.696C2754.14 102.235 2753.03 98.0533 2750.82 95.152C2748.6 92.2507 2745.14 90.8 2740.45 90.8C2735.84 90.8 2732.04 92.4213 2729.06 95.664C2726.15 98.9067 2724.7 103.429 2724.7 109.232V142H2708.32Z" fill="#3498DB"/>
<rect x="4766.86" y="1910.89" width="4.43438" height="53.39" transform="rotate(135 4766.86 1910.89)" fill="black" stroke="black" stroke-width="4.43438"/>
<rect x="4731.49" y="2123.75" width="4.5" height="240.5" transform="rotate(-180 4731.49 2123.75)" fill="black" stroke="black" stroke-width="4.5"/>
<rect x="4694.5" y="1914.02" width="4.43438" height="53.39" transform="rotate(-135 4694.5 1914.02)" fill="black" stroke="black" stroke-width="4.43438"/>
<rect x="5013" y="2372" width="566" height="186" rx="15" transform="rotate(-180 5013 2372)" fill="white" stroke="#3498DB" stroke-width="10"/>
<path d="M4528.7 2323V2233.4H4545.09L4587.2 2296.5V2233.4H4603.58V2323H4587.2L4545.09 2260.02V2323H4528.7ZM4651.42 2324.54C4645.02 2324.54 4639.34 2323.17 4634.39 2320.44C4629.44 2317.71 4625.56 2313.87 4622.75 2308.92C4619.93 2303.97 4618.52 2298.25 4618.52 2291.77C4618.52 2285.2 4619.89 2279.35 4622.62 2274.23C4625.43 2269.11 4629.27 2265.14 4634.14 2262.33C4639.09 2259.43 4644.89 2257.98 4651.55 2257.98C4657.78 2257.98 4663.28 2259.34 4668.06 2262.07C4672.84 2264.8 4676.55 2268.56 4679.19 2273.34C4681.92 2278.03 4683.29 2283.28 4683.29 2289.08C4683.29 2290.02 4683.25 2291 4683.16 2292.02C4683.16 2293.05 4683.12 2294.11 4683.03 2295.22H4634.78C4635.12 2300.17 4636.83 2304.06 4639.9 2306.87C4643.06 2309.69 4646.85 2311.1 4651.29 2311.1C4654.62 2311.1 4657.39 2310.37 4659.61 2308.92C4661.91 2307.38 4663.62 2305.42 4664.73 2303.03H4681.37C4680.18 2307.04 4678.17 2310.71 4675.35 2314.04C4672.62 2317.28 4669.21 2319.84 4665.11 2321.72C4661.1 2323.6 4656.54 2324.54 4651.42 2324.54ZM4651.55 2271.29C4647.54 2271.29 4643.99 2272.44 4640.92 2274.74C4637.85 2276.96 4635.89 2280.38 4635.03 2284.98H4666.65C4666.39 2280.8 4664.86 2277.47 4662.04 2275C4659.23 2272.53 4655.73 2271.29 4651.55 2271.29ZM4706.99 2323L4688.43 2259.51H4704.68L4715.69 2305.21L4728.49 2259.51H4746.67L4759.47 2305.21L4770.6 2259.51H4786.86L4768.17 2323H4751.15L4737.58 2275.51L4724.01 2323H4706.99ZM4862.64 2324.54C4856.07 2324.54 4850.14 2323.26 4844.85 2320.7C4839.56 2318.05 4835.33 2314.08 4832.18 2308.79C4829.1 2303.5 4827.57 2296.8 4827.57 2288.7V2233.4H4843.95V2288.82C4843.95 2295.82 4845.62 2301.03 4848.94 2304.44C4852.36 2307.85 4857.05 2309.56 4863.02 2309.56C4868.91 2309.56 4873.56 2307.85 4876.98 2304.44C4880.39 2301.03 4882.1 2295.82 4882.1 2288.82V2233.4H4898.48V2288.7C4898.48 2296.8 4896.86 2303.5 4893.62 2308.79C4890.37 2314.08 4886.02 2318.05 4880.56 2320.7C4875.18 2323.26 4869.21 2324.54 4862.64 2324.54ZM4915.2 2323V2233.4H4931.59V2323H4915.2Z" fill="#3498DB"/>
</svg>
