<svg width="5874" height="2424" viewBox="0 0 5874 2424" fill="none" xmlns="http://www.w3.org/2000/svg">
<rect x="5553.14" y="466.112" width="4.43438" height="53.39" transform="rotate(-45 5553.14 466.112)" fill="black" stroke="black" stroke-width="4.43438"/>
<rect x="5588.51" y="253.25" width="4.5" height="240.5" fill="black" stroke="black" stroke-width="4.5"/>
<rect x="5625.5" y="462.976" width="4.43438" height="53.39" transform="rotate(45 5625.5 462.976)" fill="black" stroke="black" stroke-width="4.43438"/>
<rect x="5365" width="451" height="196" rx="20" fill="#2ECC71"/>
<path d="M5426.7 142V52.4H5443.09V89.648H5483.28V52.4H5499.66V142H5483.28V102.96H5443.09V142H5426.7ZM5517.08 142V52.4H5575.58V65.584H5533.46V90.16H5571.74V102.96H5533.46V128.816H5575.58V142H5517.08ZM5585.32 142L5618.09 52.4H5636.52L5669.29 142H5651.88L5644.71 121.264H5609.77L5602.47 142H5585.32ZM5614.25 108.464H5640.23L5627.18 71.216L5614.25 108.464ZM5680.83 142V52.4H5711.42C5721.92 52.4 5730.54 54.2773 5737.28 58.032C5744.1 61.7013 5749.14 66.9067 5752.38 73.648C5755.71 80.304 5757.37 88.1547 5757.37 97.2C5757.37 106.245 5755.71 114.139 5752.38 120.88C5749.14 127.536 5744.1 132.741 5737.28 136.496C5730.54 140.165 5721.92 142 5711.42 142H5680.83ZM5697.21 127.92H5710.65C5718.16 127.92 5724.09 126.725 5728.45 124.336C5732.8 121.861 5735.91 118.363 5737.79 113.84C5739.67 109.232 5740.61 103.685 5740.61 97.2C5740.61 90.8 5739.67 85.296 5737.79 80.688C5735.91 76.08 5732.8 72.5387 5728.45 70.064C5724.09 67.5893 5718.16 66.352 5710.65 66.352H5697.21V127.92Z" fill="white"/>
<rect x="5553.14" y="466.112" width="4.43438" height="53.39" transform="rotate(-45 5553.14 466.112)" fill="black" stroke="black" stroke-width="4.43438"/>
<rect x="5588.51" y="253.25" width="4.5" height="240.5" fill="black" stroke="black" stroke-width="4.5"/>
<rect x="5625.5" y="462.976" width="4.43438" height="53.39" transform="rotate(45 5625.5 462.976)" fill="black" stroke="black" stroke-width="4.43438"/>
<rect x="5365" width="451" height="196" rx="20" fill="#2ECC71"/>
<path d="M5426.7 142V52.4H5443.09V89.648H5483.28V52.4H5499.66V142H5483.28V102.96H5443.09V142H5426.7ZM5517.08 142V52.4H5575.58V65.584H5533.46V90.16H5571.74V102.96H5533.46V128.816H5575.58V142H5517.08ZM5585.32 142L5618.09 52.4H5636.52L5669.29 142H5651.88L5644.71 121.264H5609.77L5602.47 142H5585.32ZM5614.25 108.464H5640.23L5627.18 71.216L5614.25 108.464ZM5680.83 142V52.4H5711.42C5721.92 52.4 5730.54 54.2773 5737.28 58.032C5744.1 61.7013 5749.14 66.9067 5752.38 73.648C5755.71 80.304 5757.37 88.1547 5757.37 97.2C5757.37 106.245 5755.71 114.139 5752.38 120.88C5749.14 127.536 5744.1 132.741 5737.28 136.496C5730.54 140.165 5721.92 142 5711.42 142H5680.83ZM5697.21 127.92H5710.65C5718.16 127.92 5724.09 126.725 5728.45 124.336C5732.8 121.861 5735.91 118.363 5737.79 113.84C5739.67 109.232 5740.61 103.685 5740.61 97.2C5740.61 90.8 5739.67 85.296 5737.79 80.688C5735.91 76.08 5732.8 72.5387 5728.45 70.064C5724.09 67.5893 5718.16 66.352 5710.65 66.352H5697.21V127.92Z" fill="white"/>
<rect x="1228" y="601" width="400" height="400" rx="200" fill="#3498DB"/>
<rect x="4526" y="1462" width="400" height="400" rx="200" fill="#9B59B6"/>
<rect x="3698" y="1652" width="828" height="21" fill="#545454"/>
<rect x="1628" y="791" width="828" height="21" fill="#545454"/>
<rect x="2807" y="791" width="2598" height="21" fill="#545454"/>
<rect x="2628.84" y="518" width="400" height="400" rx="200" transform="rotate(45 2628.84 518)" fill="#3498DB"/>
<rect x="4121.84" y="518" width="400" height="400" rx="200" transform="rotate(45 4121.84 518)" fill="#3498DB"/>
<rect x="3504.24" y="1379.26" width="400" height="400" rx="200" transform="rotate(45 3504.24 1379.26)" fill="#9B59B6"/>
<rect x="2777.33" y="935.193" width="828" height="21" transform="rotate(45 2777.33 935.193)" fill="#545454"/>
<rect width="400" height="400" rx="200" transform="matrix(-0.707107 0.707107 0.707107 0.707107 5590.98 518)" fill="#3498DB"/>
<rect width="828" height="21" transform="matrix(-0.707107 0.707107 0.707107 0.707107 5442.48 935.193)" fill="#545454"/>
<rect x="5622.64" y="1135.89" width="4.43438" height="53.39" transform="rotate(135 5622.64 1135.89)" fill="black" stroke="black" stroke-width="4.43438"/>
<rect x="5587.27" y="1348.75" width="4.5" height="240.5" transform="rotate(-180 5587.27 1348.75)" fill="black" stroke="black" stroke-width="4.5"/>
<rect x="5550.27" y="1139.02" width="4.43438" height="53.39" transform="rotate(-135 5550.27 1139.02)" fill="black" stroke="black" stroke-width="4.43438"/>
<rect x="5299" y="1411" width="570" height="186" rx="15" fill="white" stroke="#3498DB" stroke-width="10"/>
<path d="M5376.7 1548V1458.4H5396.16L5424.7 1515.23L5452.86 1458.4H5472.32V1548H5455.94V1486.18L5430.98 1535.2H5418.05L5393.09 1486.18V1548H5376.7ZM5511.21 1549.54C5505.75 1549.54 5501.27 1548.68 5497.77 1546.98C5494.27 1545.18 5491.67 1542.84 5489.96 1539.94C5488.25 1537.03 5487.4 1533.83 5487.4 1530.34C5487.4 1524.45 5489.7 1519.67 5494.31 1516C5498.92 1512.33 5505.83 1510.5 5515.05 1510.5H5531.18V1508.96C5531.18 1504.61 5529.94 1501.41 5527.46 1499.36C5524.99 1497.31 5521.92 1496.29 5518.25 1496.29C5514.92 1496.29 5512.02 1497.1 5509.54 1498.72C5507.07 1500.26 5505.53 1502.56 5504.94 1505.63H5488.94C5489.36 1501.02 5490.9 1497.01 5493.54 1493.6C5496.27 1490.19 5499.77 1487.58 5504.04 1485.79C5508.31 1483.91 5513.09 1482.98 5518.38 1482.98C5527.42 1482.98 5534.55 1485.24 5539.75 1489.76C5544.96 1494.28 5547.56 1500.68 5547.56 1508.96V1548H5533.61L5532.07 1537.76C5530.19 1541.17 5527.55 1543.99 5524.14 1546.21C5520.81 1548.43 5516.5 1549.54 5511.21 1549.54ZM5514.92 1536.74C5519.61 1536.74 5523.24 1535.2 5525.8 1532.13C5528.45 1529.06 5530.11 1525.26 5530.79 1520.74H5516.84C5512.49 1520.74 5509.37 1521.55 5507.5 1523.17C5505.62 1524.7 5504.68 1526.62 5504.68 1528.93C5504.68 1531.4 5505.62 1533.32 5507.5 1534.69C5509.37 1536.05 5511.85 1536.74 5514.92 1536.74ZM5589.44 1549.54C5583.8 1549.54 5578.85 1548.64 5574.59 1546.85C5570.32 1544.97 5566.91 1542.41 5564.35 1539.17C5561.79 1535.93 5560.25 1532.17 5559.74 1527.9H5576.25C5576.76 1530.38 5578.13 1532.51 5580.35 1534.3C5582.65 1536.01 5585.6 1536.86 5589.18 1536.86C5592.76 1536.86 5595.37 1536.14 5596.99 1534.69C5598.69 1533.24 5599.55 1531.57 5599.55 1529.7C5599.55 1526.97 5598.35 1525.13 5595.96 1524.19C5593.57 1523.17 5590.25 1522.19 5585.98 1521.25C5583.25 1520.65 5580.48 1519.93 5577.66 1519.07C5574.84 1518.22 5572.24 1517.15 5569.85 1515.87C5567.55 1514.51 5565.67 1512.8 5564.22 1510.75C5562.77 1508.62 5562.04 1506.02 5562.04 1502.94C5562.04 1497.31 5564.26 1492.58 5568.7 1488.74C5573.22 1484.9 5579.54 1482.98 5587.64 1482.98C5595.15 1482.98 5601.13 1484.73 5605.56 1488.22C5610.09 1491.72 5612.77 1496.54 5613.63 1502.69H5598.14C5597.2 1497.99 5593.66 1495.65 5587.52 1495.65C5584.44 1495.65 5582.05 1496.25 5580.35 1497.44C5578.73 1498.63 5577.92 1500.13 5577.92 1501.92C5577.92 1503.8 5579.15 1505.29 5581.63 1506.4C5584.1 1507.51 5587.39 1508.53 5591.48 1509.47C5595.92 1510.5 5599.97 1511.65 5603.64 1512.93C5607.4 1514.12 5610.38 1515.96 5612.6 1518.43C5614.82 1520.82 5615.93 1524.28 5615.93 1528.8C5616.02 1532.73 5614.99 1536.27 5612.86 1539.42C5610.73 1542.58 5607.65 1545.06 5603.64 1546.85C5599.63 1548.64 5594.9 1549.54 5589.44 1549.54ZM5656.73 1548C5650.08 1548 5644.74 1546.38 5640.73 1543.14C5636.72 1539.89 5634.72 1534.13 5634.72 1525.86V1498.21H5623.84V1484.51H5634.72L5636.64 1467.49H5651.1V1484.51H5668.25V1498.21H5651.1V1525.98C5651.1 1529.06 5651.74 1531.19 5653.02 1532.38C5654.39 1533.49 5656.69 1534.05 5659.93 1534.05H5667.87V1548H5656.73ZM5711.54 1549.54C5705.14 1549.54 5699.47 1548.17 5694.52 1545.44C5689.57 1542.71 5685.69 1538.87 5682.87 1533.92C5680.06 1528.97 5678.65 1523.25 5678.65 1516.77C5678.65 1510.2 5680.01 1504.35 5682.74 1499.23C5685.56 1494.11 5689.4 1490.14 5694.26 1487.33C5699.21 1484.43 5705.02 1482.98 5711.67 1482.98C5717.9 1482.98 5723.4 1484.34 5728.18 1487.07C5732.96 1489.8 5736.67 1493.56 5739.32 1498.34C5742.05 1503.03 5743.42 1508.28 5743.42 1514.08C5743.42 1515.02 5743.37 1516 5743.29 1517.02C5743.29 1518.05 5743.24 1519.11 5743.16 1520.22H5694.9C5695.24 1525.17 5696.95 1529.06 5700.02 1531.87C5703.18 1534.69 5706.98 1536.1 5711.42 1536.1C5714.74 1536.1 5717.52 1535.37 5719.74 1533.92C5722.04 1532.38 5723.75 1530.42 5724.86 1528.03H5741.5C5740.3 1532.04 5738.3 1535.71 5735.48 1539.04C5732.75 1542.28 5729.34 1544.84 5725.24 1546.72C5721.23 1548.6 5716.66 1549.54 5711.54 1549.54ZM5711.67 1496.29C5707.66 1496.29 5704.12 1497.44 5701.05 1499.74C5697.98 1501.96 5696.01 1505.38 5695.16 1509.98H5726.78C5726.52 1505.8 5724.98 1502.47 5722.17 1500C5719.35 1497.53 5715.85 1496.29 5711.67 1496.29ZM5757.2 1548V1484.51H5771.79L5773.32 1496.42C5775.63 1492.32 5778.74 1489.08 5782.67 1486.69C5786.68 1484.21 5791.37 1482.98 5796.75 1482.98V1500.26H5792.14C5788.56 1500.26 5785.36 1500.81 5782.54 1501.92C5779.72 1503.03 5777.5 1504.95 5775.88 1507.68C5774.35 1510.41 5773.58 1514.21 5773.58 1519.07V1548H5757.2Z" fill="#3498DB"/>
<rect x="4766.86" y="1957.89" width="4.43438" height="53.39" transform="rotate(135 4766.86 1957.89)" fill="black" stroke="black" stroke-width="4.43438"/>
<rect x="4731.49" y="2170.75" width="4.5" height="240.5" transform="rotate(-180 4731.49 2170.75)" fill="black" stroke="black" stroke-width="4.5"/>
<rect x="4694.5" y="1961.02" width="4.43438" height="53.39" transform="rotate(-135 4694.5 1961.02)" fill="black" stroke="black" stroke-width="4.43438"/>
<rect x="5013" y="2419" width="566" height="186" rx="15" transform="rotate(-180 5013 2419)" fill="white" stroke="#3498DB" stroke-width="10"/>
<path d="M4528.7 2370V2280.4H4545.09L4587.2 2343.5V2280.4H4603.58V2370H4587.2L4545.09 2307.02V2370H4528.7ZM4651.42 2371.54C4645.02 2371.54 4639.34 2370.17 4634.39 2367.44C4629.44 2364.71 4625.56 2360.87 4622.75 2355.92C4619.93 2350.97 4618.52 2345.25 4618.52 2338.77C4618.52 2332.2 4619.89 2326.35 4622.62 2321.23C4625.43 2316.11 4629.27 2312.14 4634.14 2309.33C4639.09 2306.43 4644.89 2304.98 4651.55 2304.98C4657.78 2304.98 4663.28 2306.34 4668.06 2309.07C4672.84 2311.8 4676.55 2315.56 4679.19 2320.34C4681.92 2325.03 4683.29 2330.28 4683.29 2336.08C4683.29 2337.02 4683.25 2338 4683.16 2339.02C4683.16 2340.05 4683.12 2341.11 4683.03 2342.22H4634.78C4635.12 2347.17 4636.83 2351.06 4639.9 2353.87C4643.06 2356.69 4646.85 2358.1 4651.29 2358.1C4654.62 2358.1 4657.39 2357.37 4659.61 2355.92C4661.91 2354.38 4663.62 2352.42 4664.73 2350.03H4681.37C4680.18 2354.04 4678.17 2357.71 4675.35 2361.04C4672.62 2364.28 4669.21 2366.84 4665.11 2368.72C4661.1 2370.6 4656.54 2371.54 4651.42 2371.54ZM4651.55 2318.29C4647.54 2318.29 4643.99 2319.44 4640.92 2321.74C4637.85 2323.96 4635.89 2327.38 4635.03 2331.98H4666.65C4666.39 2327.8 4664.86 2324.47 4662.04 2322C4659.23 2319.53 4655.73 2318.29 4651.55 2318.29ZM4706.99 2370L4688.43 2306.51H4704.68L4715.69 2352.21L4728.49 2306.51H4746.67L4759.47 2352.21L4770.6 2306.51H4786.86L4768.17 2370H4751.15L4737.58 2322.51L4724.01 2370H4706.99ZM4862.64 2371.54C4856.07 2371.54 4850.14 2370.26 4844.85 2367.7C4839.56 2365.05 4835.33 2361.08 4832.18 2355.79C4829.1 2350.5 4827.57 2343.8 4827.57 2335.7V2280.4H4843.95V2335.82C4843.95 2342.82 4845.62 2348.03 4848.94 2351.44C4852.36 2354.85 4857.05 2356.56 4863.02 2356.56C4868.91 2356.56 4873.56 2354.85 4876.98 2351.44C4880.39 2348.03 4882.1 2342.82 4882.1 2335.82V2280.4H4898.48V2335.7C4898.48 2343.8 4896.86 2350.5 4893.62 2355.79C4890.37 2361.08 4886.02 2365.05 4880.56 2367.7C4875.18 2370.26 4869.21 2371.54 4862.64 2371.54ZM4915.2 2370V2280.4H4931.59V2370H4915.2Z" fill="#3498DB"/>
<rect y="591" width="400" height="400" rx="200" fill="#3498DB"/>
<rect x="400" y="781" width="828" height="21" fill="#545454"/>
</svg>
