<svg width="4647" height="1966" viewBox="0 0 4647 1966" fill="none" xmlns="http://www.w3.org/2000/svg">
<rect x="3456.14" y="813.112" width="4.43438" height="53.39" transform="rotate(-45 3456.14 813.112)" fill="black" stroke="black" stroke-width="4.43438"/>
<rect x="3491.51" y="600.25" width="4.5" height="240.5" fill="black" stroke="black" stroke-width="4.5"/>
<rect x="3528.5" y="809.976" width="4.43438" height="53.39" transform="rotate(45 3528.5 809.976)" fill="black" stroke="black" stroke-width="4.43438"/>
<rect x="3213" y="327" width="570" height="186" rx="15" fill="white" stroke="#3498DB" stroke-width="10"/>
<path d="M3290.7 464V374.4H3310.16L3338.7 431.232L3366.86 374.4H3386.32V464H3369.94V402.176L3344.98 451.2H3332.05L3307.09 402.176V464H3290.7ZM3425.21 465.536C3419.75 465.536 3415.27 464.683 3411.77 462.976C3408.27 461.184 3405.67 458.837 3403.96 455.936C3402.25 453.035 3401.4 449.835 3401.4 446.336C3401.4 440.448 3403.7 435.669 3408.31 432C3412.92 428.331 3419.83 426.496 3429.05 426.496H3445.18V424.96C3445.18 420.608 3443.94 417.408 3441.46 415.36C3438.99 413.312 3435.92 412.288 3432.25 412.288C3428.92 412.288 3426.02 413.099 3423.54 414.72C3421.07 416.256 3419.53 418.56 3418.94 421.632H3402.94C3403.36 417.024 3404.9 413.013 3407.54 409.6C3410.27 406.187 3413.77 403.584 3418.04 401.792C3422.31 399.915 3427.09 398.976 3432.38 398.976C3441.42 398.976 3448.55 401.237 3453.75 405.76C3458.96 410.283 3461.56 416.683 3461.56 424.96V464H3447.61L3446.07 453.76C3444.19 457.173 3441.55 459.989 3438.14 462.208C3434.81 464.427 3430.5 465.536 3425.21 465.536ZM3428.92 452.736C3433.61 452.736 3437.24 451.2 3439.8 448.128C3442.45 445.056 3444.11 441.259 3444.79 436.736H3430.84C3426.49 436.736 3423.37 437.547 3421.5 439.168C3419.62 440.704 3418.68 442.624 3418.68 444.928C3418.68 447.403 3419.62 449.323 3421.5 450.688C3423.37 452.053 3425.85 452.736 3428.92 452.736ZM3503.44 465.536C3497.8 465.536 3492.85 464.64 3488.59 462.848C3484.32 460.971 3480.91 458.411 3478.35 455.168C3475.79 451.925 3474.25 448.171 3473.74 443.904H3490.25C3490.76 446.379 3492.13 448.512 3494.35 450.304C3496.65 452.011 3499.6 452.864 3503.18 452.864C3506.76 452.864 3509.37 452.139 3510.99 450.688C3512.69 449.237 3513.55 447.573 3513.55 445.696C3513.55 442.965 3512.35 441.131 3509.96 440.192C3507.57 439.168 3504.25 438.187 3499.98 437.248C3497.25 436.651 3494.48 435.925 3491.66 435.072C3488.84 434.219 3486.24 433.152 3483.85 431.872C3481.55 430.507 3479.67 428.8 3478.22 426.752C3476.77 424.619 3476.04 422.016 3476.04 418.944C3476.04 413.312 3478.26 408.576 3482.7 404.736C3487.22 400.896 3493.54 398.976 3501.64 398.976C3509.15 398.976 3515.13 400.725 3519.56 404.224C3524.09 407.723 3526.77 412.544 3527.63 418.688H3512.14C3511.2 413.995 3507.66 411.648 3501.52 411.648C3498.44 411.648 3496.05 412.245 3494.35 413.44C3492.73 414.635 3491.92 416.128 3491.92 417.92C3491.92 419.797 3493.15 421.291 3495.63 422.4C3498.1 423.509 3501.39 424.533 3505.48 425.472C3509.92 426.496 3513.97 427.648 3517.64 428.928C3521.4 430.123 3524.38 431.957 3526.6 434.432C3528.82 436.821 3529.93 440.277 3529.93 444.8C3530.02 448.725 3528.99 452.267 3526.86 455.424C3524.73 458.581 3521.65 461.056 3517.64 462.848C3513.63 464.64 3508.9 465.536 3503.44 465.536ZM3570.73 464C3564.08 464 3558.74 462.379 3554.73 459.136C3550.72 455.893 3548.72 450.133 3548.72 441.856V414.208H3537.84V400.512H3548.72L3550.64 383.488H3565.1V400.512H3582.25V414.208H3565.1V441.984C3565.1 445.056 3565.74 447.189 3567.02 448.384C3568.39 449.493 3570.69 450.048 3573.93 450.048H3581.87V464H3570.73ZM3625.54 465.536C3619.14 465.536 3613.47 464.171 3608.52 461.44C3603.57 458.709 3599.69 454.869 3596.87 449.92C3594.06 444.971 3592.65 439.253 3592.65 432.768C3592.65 426.197 3594.01 420.352 3596.74 415.232C3599.56 410.112 3603.4 406.144 3608.26 403.328C3613.21 400.427 3619.02 398.976 3625.67 398.976C3631.9 398.976 3637.4 400.341 3642.18 403.072C3646.96 405.803 3650.67 409.557 3653.32 414.336C3656.05 419.029 3657.42 424.277 3657.42 430.08C3657.42 431.019 3657.37 432 3657.29 433.024C3657.29 434.048 3657.24 435.115 3657.16 436.224H3608.9C3609.24 441.173 3610.95 445.056 3614.02 447.872C3617.18 450.688 3620.98 452.096 3625.42 452.096C3628.74 452.096 3631.52 451.371 3633.74 449.92C3636.04 448.384 3637.75 446.421 3638.86 444.032H3655.5C3654.3 448.043 3652.3 451.712 3649.48 455.04C3646.75 458.283 3643.34 460.843 3639.24 462.72C3635.23 464.597 3630.66 465.536 3625.54 465.536ZM3625.67 412.288C3621.66 412.288 3618.12 413.44 3615.05 415.744C3611.98 417.963 3610.01 421.376 3609.16 425.984H3640.78C3640.52 421.803 3638.98 418.475 3636.17 416C3633.35 413.525 3629.85 412.288 3625.67 412.288ZM3671.2 464V400.512H3685.79L3687.32 412.416C3689.63 408.32 3692.74 405.077 3696.67 402.688C3700.68 400.213 3705.37 398.976 3710.75 398.976V416.256H3706.14C3702.56 416.256 3699.36 416.811 3696.54 417.92C3693.72 419.029 3691.5 420.949 3689.88 423.68C3688.35 426.411 3687.58 430.208 3687.58 435.072V464H3671.2Z" fill="#3498DB"/>
<rect x="4196" y="316" width="451" height="196" rx="20" fill="#2ECC71"/>
<path d="M4257.7 458V368.4H4274.09V405.648H4314.28V368.4H4330.66V458H4314.28V418.96H4274.09V458H4257.7ZM4348.08 458V368.4H4406.58V381.584H4364.46V406.16H4402.74V418.96H4364.46V444.816H4406.58V458H4348.08ZM4416.32 458L4449.09 368.4H4467.52L4500.29 458H4482.88L4475.71 437.264H4440.77L4433.47 458H4416.32ZM4445.25 424.464H4471.23L4458.18 387.216L4445.25 424.464ZM4511.83 458V368.4H4542.42C4552.92 368.4 4561.54 370.277 4568.28 374.032C4575.1 377.701 4580.14 382.907 4583.38 389.648C4586.71 396.304 4588.37 404.155 4588.37 413.2C4588.37 422.245 4586.71 430.139 4583.38 436.88C4580.14 443.536 4575.1 448.741 4568.28 452.496C4561.54 456.165 4552.92 458 4542.42 458H4511.83ZM4528.21 443.92H4541.65C4549.16 443.92 4555.09 442.725 4559.45 440.336C4563.8 437.861 4566.91 434.363 4568.79 429.84C4570.67 425.232 4571.61 419.685 4571.61 413.2C4571.61 406.8 4570.67 401.296 4568.79 396.688C4566.91 392.08 4563.8 388.539 4559.45 386.064C4555.09 383.589 4549.16 382.352 4541.65 382.352H4528.21V443.92Z" fill="white"/>
<rect x="3904.89" y="382.136" width="4.43438" height="53.39" transform="rotate(45 3904.89 382.136)" fill="black" stroke="black" stroke-width="4.43438"/>
<rect x="4117.75" y="417.51" width="4.5" height="240.5" transform="rotate(90 4117.75 417.51)" fill="black" stroke="black" stroke-width="4.5"/>
<rect x="3908.02" y="454.505" width="4.43438" height="53.39" transform="rotate(135 3908.02 454.505)" fill="black" stroke="black" stroke-width="4.43438"/>
<rect x="4196" y="316" width="451" height="196" rx="20" fill="#2ECC71"/>
<path d="M4257.7 458V368.4H4274.09V405.648H4314.28V368.4H4330.66V458H4314.28V418.96H4274.09V458H4257.7ZM4348.08 458V368.4H4406.58V381.584H4364.46V406.16H4402.74V418.96H4364.46V444.816H4406.58V458H4348.08ZM4416.32 458L4449.09 368.4H4467.52L4500.29 458H4482.88L4475.71 437.264H4440.77L4433.47 458H4416.32ZM4445.25 424.464H4471.23L4458.18 387.216L4445.25 424.464ZM4511.83 458V368.4H4542.42C4552.92 368.4 4561.54 370.277 4568.28 374.032C4575.1 377.701 4580.14 382.907 4583.38 389.648C4586.71 396.304 4588.37 404.155 4588.37 413.2C4588.37 422.245 4586.71 430.139 4583.38 436.88C4580.14 443.536 4575.1 448.741 4568.28 452.496C4561.54 456.165 4552.92 458 4542.42 458H4511.83ZM4528.21 443.92H4541.65C4549.16 443.92 4555.09 442.725 4559.45 440.336C4563.8 437.861 4566.91 434.363 4568.79 429.84C4570.67 425.232 4571.61 419.685 4571.61 413.2C4571.61 406.8 4570.67 401.296 4568.79 396.688C4566.91 392.08 4563.8 388.539 4559.45 386.064C4555.09 383.589 4549.16 382.352 4541.65 382.352H4528.21V443.92Z" fill="white"/>
<rect y="83" width="400" height="400" rx="200" fill="#3498DB"/>
<rect x="3298" y="944" width="400" height="400" rx="200" fill="#9B59B6"/>
<rect x="2470" y="1134" width="828" height="21" fill="#545454"/>
<rect x="400" y="273" width="828" height="21" fill="#545454"/>
<rect x="1400.84" width="400" height="400" rx="200" transform="rotate(45 1400.84 0)" fill="#3498DB"/>
<rect x="2276.24" y="861.256" width="400" height="400" rx="200" transform="rotate(45 2276.24 861.256)" fill="#9B59B6"/>
<rect x="1549.33" y="417.193" width="828" height="21" transform="rotate(45 1549.33 417.193)" fill="#545454"/>
<rect x="3538.86" y="1474.89" width="4.43438" height="53.39" transform="rotate(135 3538.86 1474.89)" fill="black" stroke="black" stroke-width="4.43438"/>
<rect x="3503.49" y="1687.75" width="4.5" height="240.5" transform="rotate(-180 3503.49 1687.75)" fill="black" stroke="black" stroke-width="4.5"/>
<rect x="3466.5" y="1478.02" width="4.43438" height="53.39" transform="rotate(-135 3466.5 1478.02)" fill="black" stroke="black" stroke-width="4.43438"/>
<rect x="3783" y="1961" width="566" height="186" rx="15" transform="rotate(-180 3783 1961)" fill="white" stroke="#3498DB" stroke-width="10"/>
<path d="M3298.7 1912V1822.4H3315.09L3357.2 1885.5V1822.4H3373.58V1912H3357.2L3315.09 1849.02V1912H3298.7ZM3421.42 1913.54C3415.02 1913.54 3409.34 1912.17 3404.39 1909.44C3399.44 1906.71 3395.56 1902.87 3392.75 1897.92C3389.93 1892.97 3388.52 1887.25 3388.52 1880.77C3388.52 1874.2 3389.89 1868.35 3392.62 1863.23C3395.43 1858.11 3399.27 1854.14 3404.14 1851.33C3409.09 1848.43 3414.89 1846.98 3421.55 1846.98C3427.78 1846.98 3433.28 1848.34 3438.06 1851.07C3442.84 1853.8 3446.55 1857.56 3449.19 1862.34C3451.92 1867.03 3453.29 1872.28 3453.29 1878.08C3453.29 1879.02 3453.25 1880 3453.16 1881.02C3453.16 1882.05 3453.12 1883.11 3453.03 1884.22H3404.78C3405.12 1889.17 3406.83 1893.06 3409.9 1895.87C3413.06 1898.69 3416.85 1900.1 3421.29 1900.1C3424.62 1900.1 3427.39 1899.37 3429.61 1897.92C3431.91 1896.38 3433.62 1894.42 3434.73 1892.03H3451.37C3450.18 1896.04 3448.17 1899.71 3445.35 1903.04C3442.62 1906.28 3439.21 1908.84 3435.11 1910.72C3431.1 1912.6 3426.54 1913.54 3421.42 1913.54ZM3421.55 1860.29C3417.54 1860.29 3413.99 1861.44 3410.92 1863.74C3407.85 1865.96 3405.89 1869.38 3405.03 1873.98H3436.65C3436.39 1869.8 3434.86 1866.47 3432.04 1864C3429.23 1861.53 3425.73 1860.29 3421.55 1860.29ZM3476.99 1912L3458.43 1848.51H3474.68L3485.69 1894.21L3498.49 1848.51H3516.67L3529.47 1894.21L3540.6 1848.51H3556.86L3538.17 1912H3521.15L3507.58 1864.51L3494.01 1912H3476.99ZM3632.64 1913.54C3626.07 1913.54 3620.14 1912.26 3614.85 1909.7C3609.56 1907.05 3605.33 1903.08 3602.18 1897.79C3599.1 1892.5 3597.57 1885.8 3597.57 1877.7V1822.4H3613.95V1877.82C3613.95 1884.82 3615.62 1890.03 3618.94 1893.44C3622.36 1896.85 3627.05 1898.56 3633.02 1898.56C3638.91 1898.56 3643.56 1896.85 3646.98 1893.44C3650.39 1890.03 3652.1 1884.82 3652.1 1877.82V1822.4H3668.48V1877.7C3668.48 1885.8 3666.86 1892.5 3663.62 1897.79C3660.37 1903.08 3656.02 1907.05 3650.56 1909.7C3645.18 1912.26 3639.21 1913.54 3632.64 1913.54ZM3685.2 1912V1822.4H3701.59V1912H3685.2Z" fill="#3498DB"/>
</svg>
