<svg width="4646" height="2424" viewBox="0 0 4646 2424" fill="none" xmlns="http://www.w3.org/2000/svg">
<rect x="4325.14" y="466.112" width="4.43438" height="53.39" transform="rotate(-45 4325.14 466.112)" fill="black" stroke="black" stroke-width="4.43438"/>
<rect x="4360.51" y="253.25" width="4.5" height="240.5" fill="black" stroke="black" stroke-width="4.5"/>
<rect x="4397.5" y="462.976" width="4.43438" height="53.39" transform="rotate(45 4397.5 462.976)" fill="black" stroke="black" stroke-width="4.43438"/>
<rect x="4137" width="451" height="196" rx="20" fill="#2ECC71"/>
<path d="M4198.7 142V52.4H4215.09V89.648H4255.28V52.4H4271.66V142H4255.28V102.96H4215.09V142H4198.7ZM4289.08 142V52.4H4347.58V65.584H4305.46V90.16H4343.74V102.96H4305.46V128.816H4347.58V142H4289.08ZM4357.32 142L4390.09 52.4H4408.52L4441.29 142H4423.88L4416.71 121.264H4381.77L4374.47 142H4357.32ZM4386.25 108.464H4412.23L4399.18 71.216L4386.25 108.464ZM4452.83 142V52.4H4483.42C4493.92 52.4 4502.54 54.2773 4509.28 58.032C4516.1 61.7013 4521.14 66.9067 4524.38 73.648C4527.71 80.304 4529.37 88.1547 4529.37 97.2C4529.37 106.245 4527.71 114.139 4524.38 120.88C4521.14 127.536 4516.1 132.741 4509.28 136.496C4502.54 140.165 4493.92 142 4483.42 142H4452.83ZM4469.21 127.92H4482.65C4490.16 127.92 4496.09 126.725 4500.45 124.336C4504.8 121.861 4507.91 118.363 4509.79 113.84C4511.67 109.232 4512.61 103.685 4512.61 97.2C4512.61 90.8 4511.67 85.296 4509.79 80.688C4507.91 76.08 4504.8 72.5387 4500.45 70.064C4496.09 67.5893 4490.16 66.352 4482.65 66.352H4469.21V127.92Z" fill="white"/>
<rect x="4325.14" y="466.112" width="4.43438" height="53.39" transform="rotate(-45 4325.14 466.112)" fill="black" stroke="black" stroke-width="4.43438"/>
<rect x="4360.51" y="253.25" width="4.5" height="240.5" fill="black" stroke="black" stroke-width="4.5"/>
<rect x="4397.5" y="462.976" width="4.43438" height="53.39" transform="rotate(45 4397.5 462.976)" fill="black" stroke="black" stroke-width="4.43438"/>
<rect x="4137" width="451" height="196" rx="20" fill="#2ECC71"/>
<path d="M4198.7 142V52.4H4215.09V89.648H4255.28V52.4H4271.66V142H4255.28V102.96H4215.09V142H4198.7ZM4289.08 142V52.4H4347.58V65.584H4305.46V90.16H4343.74V102.96H4305.46V128.816H4347.58V142H4289.08ZM4357.32 142L4390.09 52.4H4408.52L4441.29 142H4423.88L4416.71 121.264H4381.77L4374.47 142H4357.32ZM4386.25 108.464H4412.23L4399.18 71.216L4386.25 108.464ZM4452.83 142V52.4H4483.42C4493.92 52.4 4502.54 54.2773 4509.28 58.032C4516.1 61.7013 4521.14 66.9067 4524.38 73.648C4527.71 80.304 4529.37 88.1547 4529.37 97.2C4529.37 106.245 4527.71 114.139 4524.38 120.88C4521.14 127.536 4516.1 132.741 4509.28 136.496C4502.54 140.165 4493.92 142 4483.42 142H4452.83ZM4469.21 127.92H4482.65C4490.16 127.92 4496.09 126.725 4500.45 124.336C4504.8 121.861 4507.91 118.363 4509.79 113.84C4511.67 109.232 4512.61 103.685 4512.61 97.2C4512.61 90.8 4511.67 85.296 4509.79 80.688C4507.91 76.08 4504.8 72.5387 4500.45 70.064C4496.09 67.5893 4490.16 66.352 4482.65 66.352H4469.21V127.92Z" fill="white"/>
<rect y="601" width="400" height="400" rx="200" fill="#3498DB"/>
<rect x="3298" y="1462" width="400" height="400" rx="200" fill="#9B59B6"/>
<rect x="2470" y="1652" width="828" height="21" fill="#545454"/>
<rect x="400" y="791" width="828" height="21" fill="#545454"/>
<rect x="1579" y="791" width="2598" height="21" fill="#545454"/>
<rect x="1400.84" y="518" width="400" height="400" rx="200" transform="rotate(45 1400.84 518)" fill="#3498DB"/>
<rect x="2893.84" y="518" width="400" height="400" rx="200" transform="rotate(45 2893.84 518)" fill="#3498DB"/>
<rect x="2276.24" y="1379.26" width="400" height="400" rx="200" transform="rotate(45 2276.24 1379.26)" fill="#9B59B6"/>
<rect x="1549.33" y="935.193" width="828" height="21" transform="rotate(45 1549.33 935.193)" fill="#545454"/>
<rect width="400" height="400" rx="200" transform="matrix(-0.707107 0.707107 0.707107 0.707107 4362.98 518)" fill="#3498DB"/>
<rect width="828" height="21" transform="matrix(-0.707107 0.707107 0.707107 0.707107 4214.48 935.193)" fill="#545454"/>
<rect x="4394.64" y="1135.89" width="4.43438" height="53.39" transform="rotate(135 4394.64 1135.89)" fill="black" stroke="black" stroke-width="4.43438"/>
<rect x="4359.27" y="1348.75" width="4.5" height="240.5" transform="rotate(-180 4359.27 1348.75)" fill="black" stroke="black" stroke-width="4.5"/>
<rect x="4322.27" y="1139.02" width="4.43438" height="53.39" transform="rotate(-135 4322.27 1139.02)" fill="black" stroke="black" stroke-width="4.43438"/>
<rect x="4071" y="1411" width="570" height="186" rx="15" fill="white" stroke="#3498DB" stroke-width="10"/>
<path d="M4148.7 1548V1458.4H4168.16L4196.7 1515.23L4224.86 1458.4H4244.32V1548H4227.94V1486.18L4202.98 1535.2H4190.05L4165.09 1486.18V1548H4148.7ZM4283.21 1549.54C4277.75 1549.54 4273.27 1548.68 4269.77 1546.98C4266.27 1545.18 4263.67 1542.84 4261.96 1539.94C4260.25 1537.03 4259.4 1533.83 4259.4 1530.34C4259.4 1524.45 4261.7 1519.67 4266.31 1516C4270.92 1512.33 4277.83 1510.5 4287.05 1510.5H4303.18V1508.96C4303.18 1504.61 4301.94 1501.41 4299.46 1499.36C4296.99 1497.31 4293.92 1496.29 4290.25 1496.29C4286.92 1496.29 4284.02 1497.1 4281.54 1498.72C4279.07 1500.26 4277.53 1502.56 4276.94 1505.63H4260.94C4261.36 1501.02 4262.9 1497.01 4265.54 1493.6C4268.27 1490.19 4271.77 1487.58 4276.04 1485.79C4280.31 1483.91 4285.09 1482.98 4290.38 1482.98C4299.42 1482.98 4306.55 1485.24 4311.75 1489.76C4316.96 1494.28 4319.56 1500.68 4319.56 1508.96V1548H4305.61L4304.07 1537.76C4302.19 1541.17 4299.55 1543.99 4296.14 1546.21C4292.81 1548.43 4288.5 1549.54 4283.21 1549.54ZM4286.92 1536.74C4291.61 1536.74 4295.24 1535.2 4297.8 1532.13C4300.45 1529.06 4302.11 1525.26 4302.79 1520.74H4288.84C4284.49 1520.74 4281.37 1521.55 4279.5 1523.17C4277.62 1524.7 4276.68 1526.62 4276.68 1528.93C4276.68 1531.4 4277.62 1533.32 4279.5 1534.69C4281.37 1536.05 4283.85 1536.74 4286.92 1536.74ZM4361.44 1549.54C4355.8 1549.54 4350.85 1548.64 4346.59 1546.85C4342.32 1544.97 4338.91 1542.41 4336.35 1539.17C4333.79 1535.93 4332.25 1532.17 4331.74 1527.9H4348.25C4348.76 1530.38 4350.13 1532.51 4352.35 1534.3C4354.65 1536.01 4357.6 1536.86 4361.18 1536.86C4364.76 1536.86 4367.37 1536.14 4368.99 1534.69C4370.69 1533.24 4371.55 1531.57 4371.55 1529.7C4371.55 1526.97 4370.35 1525.13 4367.96 1524.19C4365.57 1523.17 4362.25 1522.19 4357.98 1521.25C4355.25 1520.65 4352.48 1519.93 4349.66 1519.07C4346.84 1518.22 4344.24 1517.15 4341.85 1515.87C4339.55 1514.51 4337.67 1512.8 4336.22 1510.75C4334.77 1508.62 4334.04 1506.02 4334.04 1502.94C4334.04 1497.31 4336.26 1492.58 4340.7 1488.74C4345.22 1484.9 4351.54 1482.98 4359.64 1482.98C4367.15 1482.98 4373.13 1484.73 4377.56 1488.22C4382.09 1491.72 4384.77 1496.54 4385.63 1502.69H4370.14C4369.2 1497.99 4365.66 1495.65 4359.52 1495.65C4356.44 1495.65 4354.05 1496.25 4352.35 1497.44C4350.73 1498.63 4349.92 1500.13 4349.92 1501.92C4349.92 1503.8 4351.15 1505.29 4353.63 1506.4C4356.1 1507.51 4359.39 1508.53 4363.48 1509.47C4367.92 1510.5 4371.97 1511.65 4375.64 1512.93C4379.4 1514.12 4382.38 1515.96 4384.6 1518.43C4386.82 1520.82 4387.93 1524.28 4387.93 1528.8C4388.02 1532.73 4386.99 1536.27 4384.86 1539.42C4382.73 1542.58 4379.65 1545.06 4375.64 1546.85C4371.63 1548.64 4366.9 1549.54 4361.44 1549.54ZM4428.73 1548C4422.08 1548 4416.74 1546.38 4412.73 1543.14C4408.72 1539.89 4406.72 1534.13 4406.72 1525.86V1498.21H4395.84V1484.51H4406.72L4408.64 1467.49H4423.1V1484.51H4440.25V1498.21H4423.1V1525.98C4423.1 1529.06 4423.74 1531.19 4425.02 1532.38C4426.39 1533.49 4428.69 1534.05 4431.93 1534.05H4439.87V1548H4428.73ZM4483.54 1549.54C4477.14 1549.54 4471.47 1548.17 4466.52 1545.44C4461.57 1542.71 4457.69 1538.87 4454.87 1533.92C4452.06 1528.97 4450.65 1523.25 4450.65 1516.77C4450.65 1510.2 4452.01 1504.35 4454.74 1499.23C4457.56 1494.11 4461.4 1490.14 4466.26 1487.33C4471.21 1484.43 4477.02 1482.98 4483.67 1482.98C4489.9 1482.98 4495.4 1484.34 4500.18 1487.07C4504.96 1489.8 4508.67 1493.56 4511.32 1498.34C4514.05 1503.03 4515.42 1508.28 4515.42 1514.08C4515.42 1515.02 4515.37 1516 4515.29 1517.02C4515.29 1518.05 4515.24 1519.11 4515.16 1520.22H4466.9C4467.24 1525.17 4468.95 1529.06 4472.02 1531.87C4475.18 1534.69 4478.98 1536.1 4483.42 1536.1C4486.74 1536.1 4489.52 1535.37 4491.74 1533.92C4494.04 1532.38 4495.75 1530.42 4496.86 1528.03H4513.5C4512.3 1532.04 4510.3 1535.71 4507.48 1539.04C4504.75 1542.28 4501.34 1544.84 4497.24 1546.72C4493.23 1548.6 4488.66 1549.54 4483.54 1549.54ZM4483.67 1496.29C4479.66 1496.29 4476.12 1497.44 4473.05 1499.74C4469.98 1501.96 4468.01 1505.38 4467.16 1509.98H4498.78C4498.52 1505.8 4496.98 1502.47 4494.17 1500C4491.35 1497.53 4487.85 1496.29 4483.67 1496.29ZM4529.2 1548V1484.51H4543.79L4545.32 1496.42C4547.63 1492.32 4550.74 1489.08 4554.67 1486.69C4558.68 1484.21 4563.37 1482.98 4568.75 1482.98V1500.26H4564.14C4560.56 1500.26 4557.36 1500.81 4554.54 1501.92C4551.72 1503.03 4549.5 1504.95 4547.88 1507.68C4546.35 1510.41 4545.58 1514.21 4545.58 1519.07V1548H4529.2Z" fill="#3498DB"/>
<rect x="3538.86" y="1957.89" width="4.43438" height="53.39" transform="rotate(135 3538.86 1957.89)" fill="black" stroke="black" stroke-width="4.43438"/>
<rect x="3503.49" y="2170.75" width="4.5" height="240.5" transform="rotate(-180 3503.49 2170.75)" fill="black" stroke="black" stroke-width="4.5"/>
<rect x="3466.5" y="1961.02" width="4.43438" height="53.39" transform="rotate(-135 3466.5 1961.02)" fill="black" stroke="black" stroke-width="4.43438"/>
<rect x="3785" y="2419" width="566" height="186" rx="15" transform="rotate(-180 3785 2419)" fill="white" stroke="#3498DB" stroke-width="10"/>
<path d="M3300.7 2370V2280.4H3317.09L3359.2 2343.5V2280.4H3375.58V2370H3359.2L3317.09 2307.02V2370H3300.7ZM3423.42 2371.54C3417.02 2371.54 3411.34 2370.17 3406.39 2367.44C3401.44 2364.71 3397.56 2360.87 3394.75 2355.92C3391.93 2350.97 3390.52 2345.25 3390.52 2338.77C3390.52 2332.2 3391.89 2326.35 3394.62 2321.23C3397.43 2316.11 3401.27 2312.14 3406.14 2309.33C3411.09 2306.43 3416.89 2304.98 3423.55 2304.98C3429.78 2304.98 3435.28 2306.34 3440.06 2309.07C3444.84 2311.8 3448.55 2315.56 3451.19 2320.34C3453.92 2325.03 3455.29 2330.28 3455.29 2336.08C3455.29 2337.02 3455.25 2338 3455.16 2339.02C3455.16 2340.05 3455.12 2341.11 3455.03 2342.22H3406.78C3407.12 2347.17 3408.83 2351.06 3411.9 2353.87C3415.06 2356.69 3418.85 2358.1 3423.29 2358.1C3426.62 2358.1 3429.39 2357.37 3431.61 2355.92C3433.91 2354.38 3435.62 2352.42 3436.73 2350.03H3453.37C3452.18 2354.04 3450.17 2357.71 3447.35 2361.04C3444.62 2364.28 3441.21 2366.84 3437.11 2368.72C3433.1 2370.6 3428.54 2371.54 3423.42 2371.54ZM3423.55 2318.29C3419.54 2318.29 3415.99 2319.44 3412.92 2321.74C3409.85 2323.96 3407.89 2327.38 3407.03 2331.98H3438.65C3438.39 2327.8 3436.86 2324.47 3434.04 2322C3431.23 2319.53 3427.73 2318.29 3423.55 2318.29ZM3478.99 2370L3460.43 2306.51H3476.68L3487.69 2352.21L3500.49 2306.51H3518.67L3531.47 2352.21L3542.6 2306.51H3558.86L3540.17 2370H3523.15L3509.58 2322.51L3496.01 2370H3478.99ZM3634.64 2371.54C3628.07 2371.54 3622.14 2370.26 3616.85 2367.7C3611.56 2365.05 3607.33 2361.08 3604.18 2355.79C3601.1 2350.5 3599.57 2343.8 3599.57 2335.7V2280.4H3615.95V2335.82C3615.95 2342.82 3617.62 2348.03 3620.94 2351.44C3624.36 2354.85 3629.05 2356.56 3635.02 2356.56C3640.91 2356.56 3645.56 2354.85 3648.98 2351.44C3652.39 2348.03 3654.1 2342.82 3654.1 2335.82V2280.4H3670.48V2335.7C3670.48 2343.8 3668.86 2350.5 3665.62 2355.79C3662.37 2361.08 3658.02 2365.05 3652.56 2367.7C3647.18 2370.26 3641.21 2371.54 3634.64 2371.54ZM3687.2 2370V2280.4H3703.59V2370H3687.2Z" fill="#3498DB"/>
</svg>
